<?xml version="1.0" standalone="yes"?>

<svg version="1.1" viewBox="0.0 0.0 835.0 578.0" fill="none" stroke="none" stroke-linecap="square" stroke-miterlimit="10" xmlns="http://www.w3.org/2000/svg" xmlns:xlink="http://www.w3.org/1999/xlink"><clipPath id="p.0"><path d="m0 0l835.0 0l0 578.0l-835.0 0l0 -578.0z" clip-rule="nonzero"></path></clipPath><g clip-path="url(#p.0)"><path fill="#000000" fill-opacity="0.0" d="m0 0l835.28345 0l0 578.54333l-835.28345 0z" fill-rule="nonzero"></path><path fill="#000000" fill-opacity="0.0" d="m62.97113 17.38845l642.3937 0l0 68.25197l-642.3937 0z" fill-rule="nonzero"></path><path fill="#000000" d="m238.69922 57.10845l0 -19.03125l-6.796875 0l0 -3.875l18.203125 0l0 3.875l-6.78125 0l0 19.03125l-4.625 0zm18.5625 0l-4.390625 0l0 -16.59375l4.078125 0l0 2.359375q1.046875 -1.671875 1.875 -2.203125q0.84375 -0.53125 1.90625 -0.53125q1.5 0 2.890625 0.828125l-1.359375 3.828125q-1.109375 -0.71875 -2.0625 -0.71875q-0.921875 0 -1.5625 0.515625q-0.640625 0.5 -1.015625 1.828125q-0.359375 1.328125 -0.359375 5.5625l0 5.125zm11.53125 -11.53125l-3.984375 -0.71875q0.671875 -2.40625 2.3125 -3.5625q1.640625 -1.15625 4.875 -1.15625q2.9375 0 4.375 0.703125q1.4375 0.6875 2.015625 1.765625q0.59375 1.0625 0.59375 3.921875l-0.046875 5.125q0 2.1875 0.203125 3.234375q0.21875 1.03125 0.796875 2.21875l-4.34375 0q-0.171875 -0.4375 -0.421875 -1.296875q-0.109375 -0.390625 -0.15625 -0.515625q-1.125 1.09375 -2.40625 1.640625q-1.28125 0.546875 -2.734375 0.546875q-2.5625 0 -4.046875 -1.390625q-1.46875 -1.390625 -1.46875 -3.515625q0 -1.40625 0.671875 -2.5q0.671875 -1.109375 1.875 -1.6875q1.21875 -0.59375 3.5 -1.03125q3.078125 -0.578125 4.265625 -1.078125l0 -0.4375q0 -1.265625 -0.625 -1.796875q-0.625 -0.546875 -2.359375 -0.546875q-1.171875 0 -1.828125 0.46875q-0.65625 0.453125 -1.0625 1.609375zm5.875 3.5625q-0.84375 0.28125 -2.671875 0.671875q-1.828125 0.390625 -2.390625 0.765625q-0.859375 0.609375 -0.859375 1.546875q0 0.921875 0.6875 1.59375q0.6875 0.671875 1.75 0.671875q1.1875 0 2.265625 -0.78125q0.796875 -0.59375 1.046875 -1.453125q0.171875 -0.5625 0.171875 -2.140625l0 -0.875zm13.203125 7.96875l-6.6875 -16.59375l4.609375 0l3.125 8.46875l0.90625 2.828125q0.359375 -1.078125 0.453125 -1.421875q0.21875 -0.703125 0.46875 -1.40625l3.15625 -8.46875l4.515625 0l-6.59375 16.59375l-3.953125 0zm22.84375 -5.28125l4.375 0.734375q-0.84375 2.40625 -2.671875 3.671875q-1.8125 1.25 -4.546875 1.25q-4.328125 0 -6.40625 -2.828125q-1.640625 -2.265625 -1.640625 -5.71875q0 -4.125 2.15625 -6.453125q2.15625 -2.34375 5.453125 -2.34375q3.703125 0 5.84375 2.453125q2.140625 2.4375 2.046875 7.484375l-11.0 0q0.046875 1.953125 1.0625 3.046875q1.015625 1.078125 2.53125 1.078125q1.03125 0 1.734375 -0.5625q0.703125 -0.5625 1.0625 -1.8125zm0.25 -4.4375q-0.046875 -1.90625 -0.984375 -2.890625q-0.9375 -1.0 -2.28125 -1.0q-1.4375 0 -2.375 1.046875q-0.9375 1.046875 -0.921875 2.84375l6.5625 0zm12.140625 9.71875l-4.390625 0l0 -16.59375l4.078125 0l0 2.359375q1.046875 -1.671875 1.875 -2.203125q0.84375 -0.53125 1.90625 -0.53125q1.5 0 2.890625 0.828125l-1.359375 3.828125q-1.109375 -0.71875 -2.0625 -0.71875q-0.921875 0 -1.5625 0.515625q-0.640625 0.5 -1.015625 1.828125q-0.359375 1.328125 -0.359375 5.5625l0 5.125zm6.703125 -4.734375l4.40625 -0.671875q0.28125 1.28125 1.140625 1.953125q0.859375 0.65625 2.40625 0.65625q1.703125 0 2.5625 -0.625q0.578125 -0.4375 0.578125 -1.171875q0 -0.5 -0.3125 -0.828125q-0.328125 -0.3125 -1.46875 -0.578125q-5.3125 -1.171875 -6.734375 -2.140625q-1.96875 -1.34375 -1.96875 -3.734375q0 -2.15625 1.703125 -3.625q1.703125 -1.46875 5.28125 -1.46875q3.40625 0 5.0625 1.109375q1.65625 1.109375 2.28125 3.28125l-4.140625 0.765625q-0.265625 -0.96875 -1.015625 -1.484375q-0.734375 -0.515625 -2.109375 -0.515625q-1.734375 0 -2.484375 0.484375q-0.5 0.34375 -0.5 0.890625q0 0.46875 0.4375 0.796875q0.59375 0.4375 4.09375 1.234375q3.515625 0.796875 4.90625 1.953125q1.375 1.171875 1.375 3.265625q0 2.28125 -1.90625 3.921875q-1.90625 1.640625 -5.640625 1.640625q-3.390625 0 -5.375 -1.375q-1.96875 -1.375 -2.578125 -3.734375zm22.625 -6.796875l-3.984375 -0.71875q0.671875 -2.40625 2.3125 -3.5625q1.640625 -1.15625 4.875 -1.15625q2.9375 0 4.375 0.703125q1.4375 0.6875 2.015625 1.765625q0.59375 1.0625 0.59375 3.921875l-0.046875 5.125q0 2.1875 0.203125 3.234375q0.21875 1.03125 0.796875 2.21875l-4.34375 0q-0.171875 -0.4375 -0.421875 -1.296875q-0.109375 -0.390625 -0.15625 -0.515625q-1.125 1.09375 -2.40625 1.640625q-1.28125 0.546875 -2.734375 0.546875q-2.5625 0 -4.046875 -1.390625q-1.46875 -1.390625 -1.46875 -3.515625q0 -1.40625 0.671875 -2.5q0.671875 -1.109375 1.875 -1.6875q1.21875 -0.59375 3.5 -1.03125q3.078125 -0.578125 4.265625 -1.078125l0 -0.4375q0 -1.265625 -0.625 -1.796875q-0.625 -0.546875 -2.359375 -0.546875q-1.171875 0 -1.828125 0.46875q-0.65625 0.453125 -1.0625 1.609375zm5.875 3.5625q-0.84375 0.28125 -2.671875 0.671875q-1.828125 0.390625 -2.390625 0.765625q-0.859375 0.609375 -0.859375 1.546875q0 0.921875 0.6875 1.59375q0.6875 0.671875 1.75 0.671875q1.1875 0 2.265625 -0.78125q0.796875 -0.59375 1.046875 -1.453125q0.171875 -0.5625 0.171875 -2.140625l0 -0.875zm8.640625 7.96875l0 -22.90625l4.390625 0l0 22.90625l-4.390625 0zm16.765625 -8.53125q0 -2.1875 1.078125 -4.234375q1.078125 -2.046875 3.046875 -3.125q1.984375 -1.078125 4.421875 -1.078125q3.765625 0 6.171875 2.453125q2.40625 2.4375 2.40625 6.171875q0 3.765625 -2.4375 6.25q-2.421875 2.46875 -6.109375 2.46875q-2.28125 0 -4.359375 -1.03125q-2.0625 -1.03125 -3.140625 -3.015625q-1.078125 -2.0 -1.078125 -4.859375zm4.5 0.234375q0 2.46875 1.171875 3.78125q1.171875 1.3125 2.890625 1.3125q1.71875 0 2.875 -1.3125q1.171875 -1.3125 1.171875 -3.8125q0 -2.4375 -1.171875 -3.75q-1.15625 -1.3125 -2.875 -1.3125q-1.71875 0 -2.890625 1.3125q-1.171875 1.3125 -1.171875 3.78125zm14.140625 -8.296875l2.4375 0l0 -1.25q0 -2.09375 0.4375 -3.125q0.453125 -1.03125 1.640625 -1.671875q1.203125 -0.65625 3.03125 -0.65625q1.875 0 3.671875 0.5625l-0.59375 3.0625q-1.046875 -0.25 -2.015625 -0.25q-0.953125 0 -1.375 0.453125q-0.40625 0.4375 -0.40625 1.703125l0 1.171875l3.28125 0l0 3.453125l-3.28125 0l0 13.140625l-4.390625 0l0 -13.140625l-2.4375 0l0 -3.453125zm29.078125 0l0 3.5l-3.0 0l0 6.6875q0 2.03125 0.078125 2.375q0.09375 0.328125 0.390625 0.546875q0.3125 0.21875 0.75 0.21875q0.609375 0 1.765625 -0.421875l0.375 3.40625q-1.53125 0.65625 -3.46875 0.65625q-1.1875 0 -2.140625 -0.390625q-0.953125 -0.40625 -1.40625 -1.03125q-0.4375 -0.640625 -0.609375 -1.71875q-0.140625 -0.765625 -0.140625 -3.09375l0 -7.234375l-2.015625 0l0 -3.5l2.015625 0l0 -3.296875l4.40625 -2.5625l0 5.859375l3.0 0zm7.421875 -6.3125l0 8.421875q2.125 -2.484375 5.078125 -2.484375q1.515625 0 2.734375 0.5625q1.21875 0.5625 1.828125 1.4375q0.625 0.875 0.84375 1.9375q0.234375 1.0625 0.234375 3.296875l0 9.734375l-4.390625 0l0 -8.765625q0 -2.609375 -0.25 -3.3125q-0.25 -0.703125 -0.890625 -1.109375q-0.625 -0.421875 -1.578125 -0.421875q-1.09375 0 -1.953125 0.53125q-0.859375 0.53125 -1.265625 1.609375q-0.390625 1.0625 -0.390625 3.15625l0 8.3125l-4.390625 0l0 -22.90625l4.390625 0zm24.78125 17.625l4.375 0.734375q-0.84375 2.40625 -2.671875 3.671875q-1.8125 1.25 -4.546875 1.25q-4.328125 0 -6.40625 -2.828125q-1.640625 -2.265625 -1.640625 -5.71875q0 -4.125 2.15625 -6.453125q2.15625 -2.34375 5.453125 -2.34375q3.703125 0 5.84375 2.453125q2.140625 2.4375 2.046875 7.484375l-11.0 0q0.046875 1.953125 1.0625 3.046875q1.015625 1.078125 2.53125 1.078125q1.03125 0 1.734375 -0.5625q0.703125 -0.5625 1.0625 -1.8125zm0.25 -4.4375q-0.046875 -1.90625 -0.984375 -2.890625q-0.9375 -1.0 -2.28125 -1.0q-1.4375 0 -2.375 1.046875q-0.9375 1.046875 -0.921875 2.84375l6.5625 0zm24.4375 -6.875l0 3.5l-3.0 0l0 6.6875q0 2.03125 0.078125 2.375q0.09375 0.328125 0.390625 0.546875q0.3125 0.21875 0.75 0.21875q0.609375 0 1.765625 -0.421875l0.375 3.40625q-1.53125 0.65625 -3.46875 0.65625q-1.1875 0 -2.140625 -0.390625q-0.953125 -0.40625 -1.40625 -1.03125q-0.4375 -0.640625 -0.609375 -1.71875q-0.140625 -0.765625 -0.140625 -3.09375l0 -7.234375l-2.015625 0l0 -3.5l2.015625 0l0 -3.296875l4.40625 -2.5625l0 5.859375l3.0 0zm7.25 16.59375l-4.390625 0l0 -16.59375l4.078125 0l0 2.359375q1.046875 -1.671875 1.875 -2.203125q0.84375 -0.53125 1.90625 -0.53125q1.5 0 2.890625 0.828125l-1.359375 3.828125q-1.109375 -0.71875 -2.0625 -0.71875q-0.921875 0 -1.5625 0.515625q-0.640625 0.5 -1.015625 1.828125q-0.359375 1.328125 -0.359375 5.5625l0 5.125zm17.859375 -5.28125l4.375 0.734375q-0.84375 2.40625 -2.671875 3.671875q-1.8125 1.25 -4.546875 1.25q-4.328125 0 -6.40625 -2.828125q-1.640625 -2.265625 -1.640625 -5.71875q0 -4.125 2.15625 -6.453125q2.15625 -2.34375 5.453125 -2.34375q3.703125 0 5.84375 2.453125q2.140625 2.4375 2.046875 7.484375l-11.0 0q0.046875 1.953125 1.0625 3.046875q1.015625 1.078125 2.53125 1.078125q1.03125 0 1.734375 -0.5625q0.703125 -0.5625 1.0625 -1.8125zm0.25 -4.4375q-0.046875 -1.90625 -0.984375 -2.890625q-0.9375 -1.0 -2.28125 -1.0q-1.4375 0 -2.375 1.046875q-0.9375 1.046875 -0.921875 2.84375l6.5625 0zm17.546875 4.4375l4.375 0.734375q-0.84375 2.40625 -2.671875 3.671875q-1.8125 1.25 -4.546875 1.25q-4.328125 0 -6.40625 -2.828125q-1.640625 -2.265625 -1.640625 -5.71875q0 -4.125 2.15625 -6.453125q2.15625 -2.34375 5.453125 -2.34375q3.703125 0 5.84375 2.453125q2.140625 2.4375 2.046875 7.484375l-11.0 0q0.046875 1.953125 1.0625 3.046875q1.015625 1.078125 2.53125 1.078125q1.03125 0 1.734375 -0.5625q0.703125 -0.5625 1.0625 -1.8125zm0.25 -4.4375q-0.046875 -1.90625 -0.984375 -2.890625q-0.9375 -1.0 -2.28125 -1.0q-1.4375 0 -2.375 1.046875q-0.9375 1.046875 -0.921875 2.84375l6.5625 0z" fill-rule="nonzero"></path><path fill="#f1c232" d="m348.042 119.7664l0 0c0 -18.84726 16.174164 -34.125984 36.125977 -34.125984l0 0c9.581207 0 18.769989 3.5954056 25.544952 9.99527c6.774933 6.399864 10.581055 15.079941 10.581055 24.130714l0 0c0 18.84726 -16.174164 34.12599 -36.126007 34.12599l0 0c-19.951813 0 -36.125977 -15.278732 -36.125977 -34.12599z" fill-rule="nonzero"></path><path stroke="#1155cc" stroke-width="2.0" stroke-linejoin="round" stroke-linecap="butt" d="m348.042 119.7664l0 0c0 -18.84726 16.174164 -34.125984 36.125977 -34.125984l0 0c9.581207 0 18.769989 3.5954056 25.544952 9.99527c6.774933 6.399864 10.581055 15.079941 10.581055 24.130714l0 0c0 18.84726 -16.174164 34.12599 -36.126007 34.12599l0 0c-19.951813 0 -36.125977 -15.278732 -36.125977 -34.12599z" fill-rule="nonzero"></path><path fill="#434343" d="m386.94727 128.30641l-3.296875 0l0 -12.406258q-1.8125 1.6875 -4.25 2.484375l0 -2.984375q1.28125 -0.421875 2.796875 -1.59375q1.515625 -1.1875 2.078125 -2.75l2.671875 0l0 17.250008z" fill-rule="nonzero"></path><path fill="#f1c232" d="m62.97113 228.11023l0 0c0 -18.84726 16.174149 -34.125977 36.125984 -34.125977l0 0c9.581207 0 18.769989 3.595398 25.54493 9.99527c6.774933 6.3998566 10.581055 15.079941 10.581055 24.130707l0 0c0 18.847275 -16.174156 34.125977 -36.125984 34.125977l0 0c-19.951836 0 -36.125984 -15.278702 -36.125984 -34.125977z" fill-rule="nonzero"></path><path stroke="#1155cc" stroke-width="2.0" stroke-linejoin="round" stroke-linecap="butt" d="m62.97113 228.11023l0 0c0 -18.84726 16.174149 -34.125977 36.125984 -34.125977l0 0c9.581207 0 18.769989 3.595398 25.54493 9.99527c6.774933 6.3998566 10.581055 15.079941 10.581055 24.130707l0 0c0 18.847275 -16.174156 34.125977 -36.125984 34.125977l0 0c-19.951836 0 -36.125984 -15.278702 -36.125984 -34.125977z" fill-rule="nonzero"></path><path fill="#434343" d="m104.56391 233.58774l0 3.0625l-11.546875 0q0.1875 -1.734375 1.125 -3.28125q0.9375 -1.5625 3.703125 -4.125q2.234375 -2.078125 2.734375 -2.8125q0.6875 -1.015625 0.6875 -2.015625q0 -1.109375 -0.59375 -1.6875q-0.59375 -0.59375 -1.640625 -0.59375q-1.03125 0 -1.640625 0.625q-0.609375 0.609375 -0.703125 2.046875l-3.28125 -0.328125q0.296875 -2.71875 1.84375 -3.890625q1.546875 -1.1875 3.859375 -1.1875q2.546875 0 4.0 1.375q1.453125 1.359375 1.453125 3.40625q0 1.15625 -0.421875 2.203125q-0.40625 1.046875 -1.3125 2.203125q-0.59375 0.765625 -2.15625 2.203125q-1.5625 1.421875 -1.984375 1.890625q-0.40625 0.46875 -0.65625 0.90625l6.53125 0z" fill-rule="nonzero"></path><path fill="#f1c232" d="m62.97113 360.5433l0 0c0 -18.84726 16.174149 -34.125977 36.125984 -34.125977l0 0c9.581207 0 18.769989 3.595398 25.54493 9.99527c6.774933 6.399872 10.581055 15.079926 10.581055 24.130707l0 0c0 18.84726 -16.174156 34.125977 -36.125984 34.125977l0 0c-19.951836 0 -36.125984 -15.278717 -36.125984 -34.125977z" fill-rule="nonzero"></path><path stroke="#1155cc" stroke-width="2.0" stroke-linejoin="round" stroke-linecap="butt" d="m62.97113 360.5433l0 0c0 -18.84726 16.174149 -34.125977 36.125984 -34.125977l0 0c9.581207 0 18.769989 3.595398 25.54493 9.99527c6.774933 6.399872 10.581055 15.079926 10.581055 24.130707l0 0c0 18.84726 -16.174156 34.125977 -36.125984 34.125977l0 0c-19.951836 0 -36.125984 -15.278717 -36.125984 -34.125977z" fill-rule="nonzero"></path><path fill="#434343" d="m93.32954 364.5208l3.1875 -0.390625q0.15625 1.21875 0.8125 1.875q0.671875 0.640625 1.625 0.640625q1.015625 0 1.703125 -0.765625q0.703125 -0.78125 0.703125 -2.09375q0 -1.25 -0.671875 -1.96875q-0.65625 -0.734375 -1.625 -0.734375q-0.625 0 -1.5 0.25l0.359375 -2.6875q1.328125 0.046875 2.03125 -0.5625q0.703125 -0.625 0.703125 -1.640625q0 -0.875 -0.515625 -1.390625q-0.515625 -0.515625 -1.359375 -0.515625q-0.84375 0 -1.453125 0.59375q-0.59375 0.578125 -0.71875 1.703125l-3.03125 -0.515625q0.3125 -1.5625 0.953125 -2.484375q0.640625 -0.9375 1.78125 -1.46875q1.140625 -0.53125 2.5625 -0.53125q2.421875 0 3.890625 1.546875q1.203125 1.265625 1.203125 2.859375q0 2.265625 -2.46875 3.609375q1.46875 0.3125 2.34375 1.421875q0.890625 1.09375 0.890625 2.65625q0 2.265625 -1.65625 3.859375q-1.640625 1.59375 -4.109375 1.59375q-2.328125 0 -3.859375 -1.34375q-1.53125 -1.34375 -1.78125 -3.515625z" fill-rule="nonzero"></path><path fill="#f1c232" d="m348.042 228.11023l0 0c0 -18.84726 16.174164 -34.125977 36.125977 -34.125977l0 0c9.581207 0 18.769989 3.595398 25.544952 9.99527c6.774933 6.3998566 10.581055 15.079941 10.581055 24.130707l0 0c0 18.847275 -16.174164 34.125977 -36.126007 34.125977l0 0c-19.951813 0 -36.125977 -15.278702 -36.125977 -34.125977z" fill-rule="nonzero"></path><path stroke="#1155cc" stroke-width="2.0" stroke-linejoin="round" stroke-linecap="butt" d="m348.042 228.11023l0 0c0 -18.84726 16.174164 -34.125977 36.125977 -34.125977l0 0c9.581207 0 18.769989 3.595398 25.544952 9.99527c6.774933 6.3998566 10.581055 15.079941 10.581055 24.130707l0 0c0 18.847275 -16.174164 34.125977 -36.126007 34.125977l0 0c-19.951813 0 -36.125977 -15.278702 -36.125977 -34.125977z" fill-rule="nonzero"></path><path fill="#434343" d="m384.97852 236.65024l0 -3.453125l-7.03125 0l0 -2.890625l7.453125 -10.90625l2.765625 0l0 10.890625l2.125 0l0 2.90625l-2.125 0l0 3.453125l-3.1875 0zm0 -6.359375l0 -5.859375l-3.953125 5.859375l3.953125 0z" fill-rule="nonzero"></path><path fill="#f1c232" d="m633.11285 228.11023l0 0c0 -18.84726 16.174133 -34.125977 36.125977 -34.125977l0 0c9.581238 0 18.77002 3.595398 25.544922 9.99527c6.7749634 6.3998566 10.581055 15.079941 10.581055 24.130707l0 0c0 18.847275 -16.174133 34.125977 -36.125977 34.125977l0 0c-19.951843 0 -36.125977 -15.278702 -36.125977 -34.125977z" fill-rule="nonzero"></path><path stroke="#1155cc" stroke-width="2.0" stroke-linejoin="round" stroke-linecap="butt" d="m633.11285 228.11023l0 0c0 -18.84726 16.174133 -34.125977 36.125977 -34.125977l0 0c9.581238 0 18.77002 3.595398 25.544922 9.99527c6.7749634 6.3998566 10.581055 15.079941 10.581055 24.130707l0 0c0 18.847275 -16.174133 34.125977 -36.125977 34.125977l0 0c-19.951843 0 -36.125977 -15.278702 -36.125977 -34.125977z" fill-rule="nonzero"></path><path fill="#434343" d="m663.5806 222.75961l0 -3.0625l11.265625 0l0 2.390625q-1.390625 1.375 -2.84375 3.953125q-1.4375 2.5625 -2.1875 5.453125q-0.75 2.875 -0.75 5.15625l-3.171875 0q0.078125 -3.5625 1.46875 -7.265625q1.390625 -3.703125 3.71875 -6.625l-7.5 0z" fill-rule="nonzero"></path><path fill="#f1c232" d="m275.79004 360.5433l0 0c0 -18.84726 16.174133 -34.125977 36.125977 -34.125977l0 0c9.581207 0 18.769989 3.595398 25.544922 9.99527c6.774933 6.399872 10.581055 15.079926 10.581055 24.130707l0 0c0 18.84726 -16.174164 34.125977 -36.125977 34.125977l0 0c-19.951843 0 -36.125977 -15.278717 -36.125977 -34.125977z" fill-rule="nonzero"></path><path stroke="#1155cc" stroke-width="2.0" stroke-linejoin="round" stroke-linecap="butt" d="m275.79004 360.5433l0 0c0 -18.84726 16.174133 -34.125977 36.125977 -34.125977l0 0c9.581207 0 18.769989 3.595398 25.544922 9.99527c6.774933 6.399872 10.581055 15.079926 10.581055 24.130707l0 0c0 18.84726 -16.174164 34.125977 -36.125977 34.125977l0 0c-19.951843 0 -36.125977 -15.278717 -36.125977 -34.125977z" fill-rule="nonzero"></path><path fill="#434343" d="m306.3047 364.66144l3.28125 -0.34375q0.140625 1.125 0.828125 1.78125q0.703125 0.640625 1.609375 0.640625q1.03125 0 1.734375 -0.828125q0.71875 -0.84375 0.71875 -2.53125q0 -1.59375 -0.71875 -2.375q-0.703125 -0.796875 -1.828125 -0.796875q-1.421875 0 -2.546875 1.25l-2.671875 -0.375l1.6875 -8.953125l8.703125 0l0 3.09375l-6.203125 0l-0.515625 2.90625q1.09375 -0.546875 2.25 -0.546875q2.1875 0 3.703125 1.59375q1.53125 1.59375 1.53125 4.140625q0 2.125 -1.234375 3.78125q-1.671875 2.28125 -4.65625 2.28125q-2.375 0 -3.875 -1.28125q-1.5 -1.28125 -1.796875 -3.4375z" fill-rule="nonzero"></path><path fill="#f1c232" d="m420.29398 360.5433l0 0c0 -18.84726 16.174133 -34.125977 36.125977 -34.125977l0 0c9.581207 0 18.769989 3.595398 25.544922 9.99527c6.774933 6.399872 10.581055 15.079926 10.581055 24.130707l0 0c0 18.84726 -16.174164 34.125977 -36.125977 34.125977l0 0c-19.951843 0 -36.125977 -15.278717 -36.125977 -34.125977z" fill-rule="nonzero"></path><path stroke="#1155cc" stroke-width="2.0" stroke-linejoin="round" stroke-linecap="butt" d="m420.29398 360.5433l0 0c0 -18.84726 16.174133 -34.125977 36.125977 -34.125977l0 0c9.581207 0 18.769989 3.595398 25.544922 9.99527c6.774933 6.399872 10.581055 15.079926 10.581055 24.130707l0 0c0 18.84726 -16.174164 34.125977 -36.125977 34.125977l0 0c-19.951843 0 -36.125977 -15.278717 -36.125977 -34.125977z" fill-rule="nonzero"></path><path fill="#434343" d="m461.918 356.11456l-3.1875 0.34375q-0.109375 -0.984375 -0.609375 -1.453125q-0.484375 -0.46875 -1.265625 -0.46875q-1.046875 0 -1.765625 0.9375q-0.71875 0.9375 -0.90625 3.90625q1.21875 -1.453125 3.046875 -1.453125q2.0625 0 3.53125 1.578125q1.484375 1.5625 1.484375 4.046875q0 2.640625 -1.546875 4.234375q-1.546875 1.59375 -3.984375 1.59375q-2.59375 0 -4.28125 -2.015625q-1.671875 -2.03125 -1.671875 -6.640625q0 -4.71875 1.75 -6.796875q1.75 -2.09375 4.53125 -2.09375q1.96875 0 3.25 1.09375q1.28125 1.09375 1.625 3.1875zm-7.453125 7.171875q0 1.609375 0.734375 2.484375q0.734375 0.875 1.6875 0.875q0.90625 0 1.515625 -0.71875q0.609375 -0.71875 0.609375 -2.34375q0 -1.671875 -0.65625 -2.453125q-0.65625 -0.78125 -1.640625 -0.78125q-0.9375 0 -1.59375 0.75q-0.65625 0.734375 -0.65625 2.1875z" fill-rule="nonzero"></path><path fill="#f1c232" d="m564.7979 360.5433l0 0c0 -18.84726 16.174133 -34.125977 36.125977 -34.125977l0 0c9.581177 0 18.769958 3.595398 25.544922 9.99527c6.7749634 6.399872 10.581055 15.079926 10.581055 24.130707l0 0c0 18.84726 -16.174133 34.125977 -36.125977 34.125977l0 0c-19.951843 0 -36.125977 -15.278717 -36.125977 -34.125977z" fill-rule="nonzero"></path><path stroke="#1155cc" stroke-width="2.0" stroke-linejoin="round" stroke-linecap="butt" d="m564.7979 360.5433l0 0c0 -18.84726 16.174133 -34.125977 36.125977 -34.125977l0 0c9.581177 0 18.769958 3.595398 25.544922 9.99527c6.7749634 6.399872 10.581055 15.079926 10.581055 24.130707l0 0c0 18.84726 -16.174133 34.125977 -36.125977 34.125977l0 0c-19.951843 0 -36.125977 -15.278717 -36.125977 -34.125977z" fill-rule="nonzero"></path><path fill="#434343" d="m598.0938 359.8177q-1.28125 -0.546875 -1.859375 -1.484375q-0.578125 -0.953125 -0.578125 -2.078125q0 -1.921875 1.34375 -3.171875q1.34375 -1.25 3.8125 -1.25q2.453125 0 3.796875 1.25q1.359375 1.25 1.359375 3.171875q0 1.203125 -0.625 2.140625q-0.609375 0.921875 -1.734375 1.421875q1.421875 0.5625 2.15625 1.671875q0.75 1.09375 0.75 2.546875q0 2.375 -1.515625 3.875q-1.515625 1.484375 -4.03125 1.484375q-2.34375 0 -3.90625 -1.234375q-1.84375 -1.453125 -1.84375 -3.984375q0 -1.40625 0.6875 -2.5625q0.703125 -1.171875 2.1875 -1.796875zm0.6875 -3.328125q0 0.984375 0.546875 1.546875q0.5625 0.546875 1.484375 0.546875q0.9375 0 1.5 -0.546875q0.5625 -0.5625 0.5625 -1.546875q0 -0.9375 -0.5625 -1.484375q-0.546875 -0.5625 -1.46875 -0.5625q-0.9375 0 -1.5 0.5625q-0.5625 0.5625 -0.5625 1.484375zm-0.3125 7.359375q0 1.359375 0.6875 2.125q0.703125 0.765625 1.75 0.765625q1.015625 0 1.6875 -0.734375q0.671875 -0.734375 0.671875 -2.109375q0 -1.21875 -0.6875 -1.9375q-0.671875 -0.734375 -1.71875 -0.734375q-1.203125 0 -1.796875 0.828125q-0.59375 0.828125 -0.59375 1.796875z" fill-rule="nonzero"></path><path fill="#f1c232" d="m709.3018 360.5433l0 0c0 -18.84726 16.174194 -34.125977 36.125977 -34.125977l0 0c9.581238 0 18.77002 3.595398 25.544983 9.99527c6.7749023 6.399872 10.581055 15.079926 10.581055 24.130707l0 0c0 18.84726 -16.174194 34.125977 -36.126038 34.125977l0 0c-19.951782 0 -36.125977 -15.278717 -36.125977 -34.125977z" fill-rule="nonzero"></path><path stroke="#1155cc" stroke-width="2.0" stroke-linejoin="round" stroke-linecap="butt" d="m709.3018 360.5433l0 0c0 -18.84726 16.174194 -34.125977 36.125977 -34.125977l0 0c9.581238 0 18.77002 3.595398 25.544983 9.99527c6.7749023 6.399872 10.581055 15.079926 10.581055 24.130707l0 0c0 18.84726 -16.174194 34.125977 -36.126038 34.125977l0 0c-19.951782 0 -36.125977 -15.278717 -36.125977 -34.125977z" fill-rule="nonzero"></path><path fill="#434343" d="m741.53326 369.0833l-3.296875 0l0 -12.40625q-1.8125 1.6875 -4.25 2.484375l0 -2.984375q1.28125 -0.421875 2.796875 -1.59375q1.515625 -1.1875 2.078125 -2.75l2.671875 0l0 17.25zm10.488281 -17.25q2.484375 0 3.890625 1.78125q1.6875 2.109375 1.6875 7.0q0 4.875 -1.6875 7.0q-1.40625 1.765625 -3.890625 1.765625q-2.515625 0 -4.046875 -1.921875q-1.53125 -1.9375 -1.53125 -6.890625q0 -4.84375 1.6875 -6.984375q1.390625 -1.75 3.890625 -1.75zm0 2.734375q-0.609375 0 -1.078125 0.375q-0.46875 0.375 -0.71875 1.359375q-0.34375 1.28125 -0.34375 4.3125q0 3.015625 0.296875 4.15625q0.3125 1.125 0.765625 1.5q0.46875 0.375 1.078125 0.375q0.59375 0 1.0625 -0.375q0.46875 -0.390625 0.71875 -1.375q0.34375 -1.265625 0.34375 -4.28125q0 -3.03125 -0.3125 -4.15625q-0.296875 -1.140625 -0.765625 -1.515625q-0.453125 -0.375 -1.046875 -0.375z" fill-rule="nonzero"></path><path fill="#f1c232" d="m564.7979 492.97638l0 0c0 -18.84726 16.174133 -34.125977 36.125977 -34.125977l0 0c9.581177 0 18.769958 3.595398 25.544922 9.99527c6.7749634 6.3998413 10.581055 15.079926 10.581055 24.130707l0 0c0 18.84726 -16.174133 34.125977 -36.125977 34.125977l0 0c-19.951843 0 -36.125977 -15.278717 -36.125977 -34.125977z" fill-rule="nonzero"></path><path stroke="#1155cc" stroke-width="2.0" stroke-linejoin="round" stroke-linecap="butt" d="m564.7979 492.97638l0 0c0 -18.84726 16.174133 -34.125977 36.125977 -34.125977l0 0c9.581177 0 18.769958 3.595398 25.544922 9.99527c6.7749634 6.3998413 10.581055 15.079926 10.581055 24.130707l0 0c0 18.84726 -16.174133 34.125977 -36.125977 34.125977l0 0c-19.951843 0 -36.125977 -15.278717 -36.125977 -34.125977z" fill-rule="nonzero"></path><path fill="#434343" d="m595.3438 497.54764l3.1875 -0.359375q0.109375 0.96875 0.59375 1.4375q0.5 0.46875 1.3125 0.46875q1.015625 0 1.734375 -0.9375q0.71875 -0.9375 0.921875 -3.890625q-1.25 1.453125 -3.109375 1.453125q-2.03125 0 -3.5 -1.5625q-1.46875 -1.578125 -1.46875 -4.078125q0 -2.609375 1.546875 -4.203125q1.5625 -1.609375 3.953125 -1.609375q2.625 0 4.296875 2.03125q1.671875 2.015625 1.671875 6.640625q0 4.703125 -1.75 6.796875q-1.734375 2.09375 -4.546875 2.09375q-2.015625 0 -3.265625 -1.078125q-1.234375 -1.078125 -1.578125 -3.203125zm7.453125 -7.203125q0 -1.59375 -0.734375 -2.46875q-0.734375 -0.875 -1.6875 -0.875q-0.921875 0 -1.53125 0.71875q-0.59375 0.71875 -0.59375 2.359375q0 1.65625 0.65625 2.4375q0.65625 0.78125 1.640625 0.78125q0.953125 0 1.59375 -0.75q0.65625 -0.75 0.65625 -2.203125z" fill-rule="nonzero"></path><path fill="#f1c232" d="m709.3018 492.97638l0 0c0 -18.84726 16.174194 -34.125977 36.125977 -34.125977l0 0c9.581238 0 18.77002 3.595398 25.544983 9.99527c6.7749023 6.3998413 10.581055 15.079926 10.581055 24.130707l0 0c0 18.84726 -16.174194 34.125977 -36.126038 34.125977l0 0c-19.951782 0 -36.125977 -15.278717 -36.125977 -34.125977z" fill-rule="nonzero"></path><path stroke="#1155cc" stroke-width="2.0" stroke-linejoin="round" stroke-linecap="butt" d="m709.3018 492.97638l0 0c0 -18.84726 16.174194 -34.125977 36.125977 -34.125977l0 0c9.581238 0 18.77002 3.595398 25.544983 9.99527c6.7749023 6.3998413 10.581055 15.079926 10.581055 24.130707l0 0c0 18.84726 -16.174194 34.125977 -36.126038 34.125977l0 0c-19.951782 0 -36.125977 -15.278717 -36.125977 -34.125977z" fill-rule="nonzero"></path><path fill="#434343" d="m741.53326 501.5164l-3.296875 0l0 -12.40625q-1.8125 1.6875 -4.25 2.484375l0 -2.984375q1.28125 -0.421875 2.796875 -1.59375q1.515625 -1.1875 2.078125 -2.75l2.671875 0l0 17.25zm13.347656 0l-3.296875 0l0 -12.40625q-1.8125 1.6875 -4.25 2.484375l0 -2.984375q1.28125 -0.421875 2.796875 -1.59375q1.515625 -1.1875 2.078125 -2.75l2.671875 0l0 17.25z" fill-rule="nonzero"></path><path fill="#000000" fill-opacity="0.0" d="m384.16797 153.8924l0 40.091858" fill-rule="nonzero"></path><path stroke="#000000" stroke-width="2.0" stroke-linejoin="round" stroke-linecap="butt" d="m384.16797 153.8924l0 40.091858" fill-rule="nonzero"></path><path fill="#000000" fill-opacity="0.0" d="m99.097115 262.2362l0 64.18112" fill-rule="nonzero"></path><path stroke="#000000" stroke-width="2.0" stroke-linejoin="round" stroke-linecap="butt" d="m99.097115 262.2362l0 64.18112" fill-rule="nonzero"></path><path fill="#000000" fill-opacity="0.0" d="m358.62305 252.24095l-46.70703 74.17638" fill-rule="nonzero"></path><path stroke="#000000" stroke-width="2.0" stroke-linejoin="round" stroke-linecap="butt" d="m358.62305 252.24095l-46.70703 74.17638" fill-rule="nonzero"></path><path fill="#000000" fill-opacity="0.0" d="m409.71292 252.24095l46.70703 74.17638" fill-rule="nonzero"></path><path stroke="#000000" stroke-width="2.0" stroke-linejoin="round" stroke-linecap="butt" d="m409.71292 252.24095l46.70703 74.17638" fill-rule="nonzero"></path><path fill="#000000" fill-opacity="0.0" d="m643.6939 252.24095l-42.77002 74.17638" fill-rule="nonzero"></path><path stroke="#000000" stroke-width="2.0" stroke-linejoin="round" stroke-linecap="butt" d="m643.6939 252.24095l-42.77002 74.17638" fill-rule="nonzero"></path><path fill="#000000" fill-opacity="0.0" d="m694.78375 252.24095l50.644043 74.17638" fill-rule="nonzero"></path><path stroke="#000000" stroke-width="2.0" stroke-linejoin="round" stroke-linecap="butt" d="m694.78375 252.24095l50.644043 74.17638" fill-rule="nonzero"></path><path fill="#000000" fill-opacity="0.0" d="m600.9239 394.66928l0 64.18112" fill-rule="nonzero"></path><path stroke="#000000" stroke-width="2.0" stroke-linejoin="round" stroke-linecap="butt" d="m600.9239 394.66928l0 64.18112" fill-rule="nonzero"></path><path fill="#000000" fill-opacity="0.0" d="m745.4278 394.66928l0 64.18112" fill-rule="nonzero"></path><path stroke="#000000" stroke-width="2.0" stroke-linejoin="round" stroke-linecap="butt" d="m745.4278 394.66928l0 64.18112" fill-rule="nonzero"></path><path fill="#000000" fill-opacity="0.0" d="m420.29398 119.7664l223.39993 84.21312" fill-rule="nonzero"></path><path stroke="#000000" stroke-width="2.0" stroke-linejoin="round" stroke-linecap="butt" d="m420.29398 119.7664l223.39993 84.21312" fill-rule="nonzero"></path><path fill="#000000" fill-opacity="0.0" d="m348.042 119.7664l-223.39995 84.21312" fill-rule="nonzero"></path><path stroke="#000000" stroke-width="2.0" stroke-linejoin="round" stroke-linecap="butt" d="m348.042 119.7664l-223.39995 84.21312" fill-rule="nonzero"></path><path fill="#000000" fill-opacity="0.0" d="m317.2047 85.64042l25.417328 0l0 34.614174l-25.417328 0z" fill-rule="nonzero"></path><path fill="#000000" d="m332.17706 111.4875l-2.109375 0l0 -13.4375q-0.75 0.71875 -2.0 1.453125q-1.234375 0.71875 -2.21875 1.078125l0 -2.03125q1.78125 -0.828125 3.09375 -2.015625q1.328125 -1.1875 1.875 -2.296875l1.359375 0l0 17.25z" fill-rule="nonzero"></path><path fill="#000000" fill-opacity="0.0" d="m425.7139 85.15223l46.70868 0l0 34.614174l-46.70868 0z" fill-rule="nonzero"></path><path fill="#000000" d="m447.7987 108.96806l0 2.03125l-11.34375 0q-0.03125 -0.765625 0.234375 -1.46875q0.4375 -1.15625 1.390625 -2.28125q0.953125 -1.125 2.765625 -2.609375q2.796875 -2.296875 3.78125 -3.625q0.984375 -1.34375 0.984375 -2.546875q0 -1.25 -0.90625 -2.109375q-0.890625 -0.859375 -2.328125 -0.859375q-1.515625 0 -2.4375 0.921875q-0.90625 0.90625 -0.921875 2.515625l-2.171875 -0.21875q0.21875 -2.421875 1.671875 -3.6875q1.453125 -1.28125 3.90625 -1.28125q2.46875 0 3.90625 1.375q1.453125 1.359375 1.453125 3.390625q0 1.03125 -0.421875 2.03125q-0.421875 1.0 -1.40625 2.109375q-0.96875 1.09375 -3.25 3.015625q-1.890625 1.59375 -2.4375 2.15625q-0.53125 0.5625 -0.890625 1.140625l8.421875 0zm13.347656 0l0 2.03125l-11.34375 0q-0.03125 -0.765625 0.234375 -1.46875q0.4375 -1.15625 1.390625 -2.28125q0.953125 -1.125 2.765625 -2.609375q2.796875 -2.296875 3.78125 -3.625q0.984375 -1.34375 0.984375 -2.546875q0 -1.25 -0.90625 -2.109375q-0.890625 -0.859375 -2.328125 -0.859375q-1.515625 0 -2.4375 0.921875q-0.90625 0.90625 -0.921875 2.515625l-2.171875 -0.21875q0.21875 -2.421875 1.671875 -3.6875q1.453125 -1.28125 3.90625 -1.28125q2.46875 0 3.90625 1.375q1.453125 1.359375 1.453125 3.390625q0 1.03125 -0.421875 2.03125q-0.421875 1.0 -1.40625 2.109375q-0.96875 1.09375 -3.25 3.015625q-1.890625 1.59375 -2.4375 2.15625q-0.53125 0.5625 -0.890625 1.140625l8.421875 0z" fill-rule="nonzero"></path><path fill="#000000" fill-opacity="0.0" d="m56.160107 299.22046l25.417324 0l0 34.614197l-25.417324 0z" fill-rule="nonzero"></path><path fill="#000000" d="m63.210564 320.53632l2.109375 -0.28125q0.359375 1.78125 1.234375 2.578125q0.875 0.796875 2.125 0.796875q1.484375 0 2.5 -1.03125q1.03125 -1.03125 1.03125 -2.5625q0 -1.453125 -0.953125 -2.390625q-0.9375 -0.953125 -2.40625 -0.953125q-0.59375 0 -1.484375 0.234375l0.234375 -1.84375q0.203125 0.015625 0.34375 0.015625q1.34375 0 2.421875 -0.703125q1.078125 -0.703125 1.078125 -2.15625q0 -1.171875 -0.796875 -1.921875q-0.78125 -0.765625 -2.015625 -0.765625q-1.234375 0 -2.0625 0.78125q-0.8125 0.765625 -1.046875 2.3125l-2.109375 -0.375q0.390625 -2.125 1.75 -3.28125q1.375 -1.171875 3.421875 -1.171875q1.40625 0 2.578125 0.609375q1.1875 0.59375 1.8125 1.640625q0.640625 1.046875 0.640625 2.21875q0 1.109375 -0.609375 2.03125q-0.59375 0.90625 -1.765625 1.4375q1.53125 0.359375 2.375 1.46875q0.84375 1.109375 0.84375 2.765625q0 2.25 -1.640625 3.828125q-1.640625 1.5625 -4.15625 1.5625q-2.265625 0 -3.765625 -1.34375q-1.484375 -1.359375 -1.6875 -3.5z" fill-rule="nonzero"></path><path fill="#000000" fill-opacity="0.0" d="m109.80577 299.22046l25.417328 0l0 34.614197l-25.417328 0z" fill-rule="nonzero"></path><path fill="#000000" d="m123.60623 325.06757l0 -4.109375l-7.453125 0l0 -1.9375l7.828125 -11.140625l1.734375 0l0 11.140625l2.3125 0l0 1.9375l-2.3125 0l0 4.109375l-2.109375 0zm0 -6.046875l0 -7.75l-5.390625 7.75l5.390625 0z" fill-rule="nonzero"></path><path fill="#000000" fill-opacity="0.0" d="m342.62204 164.25853l25.417328 0l0 34.614166l-25.417328 0z" fill-rule="nonzero"></path><path fill="#000000" d="m360.5944 177.13687l-2.09375 0.15625q-0.28125 -1.234375 -0.796875 -1.796875q-0.859375 -0.90625 -2.109375 -0.90625q-1.0 0 -1.765625 0.5625q-1.0 0.71875 -1.578125 2.125q-0.5625 1.390625 -0.59375 3.96875q0.765625 -1.15625 1.859375 -1.71875q1.109375 -0.5625 2.3125 -0.5625q2.109375 0 3.59375 1.546875q1.484375 1.546875 1.484375 4.015625q0 1.609375 -0.703125 3.0q-0.6875 1.390625 -1.90625 2.140625q-1.21875 0.734375 -2.765625 0.734375q-2.640625 0 -4.3125 -1.9375q-1.65625 -1.953125 -1.65625 -6.40625q0 -4.96875 1.84375 -7.234375q1.59375 -1.96875 4.3125 -1.96875q2.03125 0 3.328125 1.140625q1.296875 1.125 1.546875 3.140625zm-8.609375 7.40625q0 1.078125 0.453125 2.078125q0.46875 1.0 1.296875 1.53125q0.84375 0.515625 1.75 0.515625q1.34375 0 2.296875 -1.078125q0.96875 -1.078125 0.96875 -2.9375q0 -1.78125 -0.953125 -2.796875q-0.953125 -1.03125 -2.390625 -1.03125q-1.421875 0 -2.421875 1.03125q-1.0 1.015625 -1.0 2.6875z" fill-rule="nonzero"></path><path fill="#000000" fill-opacity="0.0" d="m400.2966 164.25984l25.417297 0l0 34.614166l-25.417297 0z" fill-rule="nonzero"></path><path fill="#000000" fill-opacity="0.0" d="m290.4357 291.80316l25.417328 0l0 34.614166l-25.417328 0z" fill-rule="nonzero"></path><path fill="#000000" d="m297.61115 302.71274l0 -2.015625l11.125 0l0 1.640625q-1.640625 1.734375 -3.265625 4.640625q-1.609375 2.890625 -2.484375 5.953125q-0.625 2.15625 -0.8125 4.71875l-2.15625 0q0.03125 -2.03125 0.78125 -4.890625q0.765625 -2.875 2.1875 -5.546875q1.4375 -2.671875 3.03125 -4.5l-8.40625 0z" fill-rule="nonzero"></path><path fill="#000000" fill-opacity="0.0" d="m328.542 299.22046l25.417328 0l0 34.614197l-25.417328 0z" fill-rule="nonzero"></path><path fill="#000000" d="m338.8268 315.75507q-1.3125 -0.484375 -1.953125 -1.375q-0.625 -0.890625 -0.625 -2.140625q0 -1.875 1.34375 -3.140625q1.34375 -1.28125 3.578125 -1.28125q2.25 0 3.625 1.3125q1.375 1.296875 1.375 3.171875q0 1.203125 -0.625 2.09375q-0.625 0.875 -1.90625 1.359375q1.578125 0.515625 2.40625 1.671875q0.828125 1.140625 0.828125 2.734375q0 2.203125 -1.5625 3.703125q-1.5625 1.5 -4.09375 1.5q-2.546875 0 -4.109375 -1.5q-1.5625 -1.515625 -1.5625 -3.765625q0 -1.671875 0.84375 -2.796875q0.859375 -1.140625 2.4375 -1.546875zm-0.421875 -3.578125q0 1.21875 0.78125 2.0q0.78125 0.765625 2.03125 0.765625q1.21875 0 2.0 -0.765625q0.78125 -0.765625 0.78125 -1.890625q0 -1.15625 -0.8125 -1.9375q-0.796875 -0.796875 -1.984375 -0.796875q-1.203125 0 -2.0 0.78125q-0.796875 0.765625 -0.796875 1.84375zm-0.6875 7.9375q0 0.890625 0.421875 1.734375q0.4375 0.84375 1.28125 1.3125q0.84375 0.46875 1.8125 0.46875q1.515625 0 2.5 -0.96875q0.984375 -0.984375 0.984375 -2.484375q0 -1.515625 -1.015625 -2.515625q-1.015625 -1.0 -2.53125 -1.0q-1.5 0 -2.484375 0.984375q-0.96875 0.984375 -0.96875 2.46875z" fill-rule="nonzero"></path><path fill="#000000" fill-opacity="0.0" d="m410.2953 299.22046l25.417297 0l0 34.614197l-25.417297 0z" fill-rule="nonzero"></path><path fill="#000000" d="m417.6426 321.09882l2.03125 -0.1875q0.25 1.421875 0.96875 2.078125q0.734375 0.640625 1.875 0.640625q0.96875 0 1.703125 -0.4375q0.734375 -0.453125 1.203125 -1.203125q0.46875 -0.75 0.78125 -2.015625q0.328125 -1.265625 0.328125 -2.578125q0 -0.140625 -0.015625 -0.421875q-0.640625 1.015625 -1.734375 1.640625q-1.09375 0.625 -2.375 0.625q-2.125 0 -3.609375 -1.546875q-1.46875 -1.546875 -1.46875 -4.078125q0 -2.609375 1.53125 -4.203125q1.546875 -1.59375 3.875 -1.59375q1.671875 0 3.0625 0.90625q1.390625 0.890625 2.109375 2.5625q0.71875 1.671875 0.71875 4.84375q0 3.28125 -0.71875 5.234375q-0.71875 1.953125 -2.125 2.984375q-1.40625 1.015625 -3.3125 1.015625q-2.015625 0 -3.296875 -1.125q-1.265625 -1.125 -1.53125 -3.140625zm8.640625 -7.59375q0 -1.8125 -0.96875 -2.875q-0.96875 -1.0625 -2.328125 -1.0625q-1.40625 0 -2.453125 1.15625q-1.03125 1.140625 -1.03125 2.96875q0 1.640625 0.984375 2.671875q0.984375 1.015625 2.4375 1.015625q1.46875 0 2.40625 -1.015625q0.953125 -1.03125 0.953125 -2.859375z" fill-rule="nonzero"></path><path fill="#000000" fill-opacity="0.0" d="m454.44992 291.80316l50.64566 0l0 34.614166l-50.64566 0z" fill-rule="nonzero"></path><path fill="#000000" d="m475.36258 317.65024l-2.109375 0l0 -13.4375q-0.75 0.71875 -2.0 1.453125q-1.234375 0.71875 -2.21875 1.078125l0 -2.03125q1.78125 -0.828125 3.09375 -2.015625q1.328125 -1.1875 1.875 -2.296875l1.359375 0l0 17.25zm5.4101562 -8.46875q0 -3.046875 0.625 -4.90625q0.625 -1.859375 1.859375 -2.859375q1.234375 -1.015625 3.109375 -1.015625q1.390625 0 2.421875 0.5625q1.046875 0.546875 1.71875 1.59375q0.6875 1.046875 1.078125 2.5625q0.390625 1.5 0.390625 4.0625q0 3.015625 -0.625 4.875q-0.625 1.859375 -1.859375 2.875q-1.234375 1.015625 -3.125 1.015625q-2.484375 0 -3.890625 -1.78125q-1.703125 -2.15625 -1.703125 -6.984375zm2.171875 0q0 4.21875 0.984375 5.625q0.984375 1.40625 2.4375 1.40625q1.453125 0 2.4375 -1.40625q1.0 -1.40625 1.0 -5.625q0 -4.25 -1.0 -5.640625q-0.984375 -1.390625 -2.453125 -1.390625q-1.453125 0 -2.328125 1.21875q-1.078125 1.578125 -1.078125 5.8125z" fill-rule="nonzero"></path><path fill="#000000" fill-opacity="0.0" d="m99.097115 156.63124l25.41732 0l0 34.614166l-25.41732 0z" fill-rule="nonzero"></path><path fill="#000000" d="m117.21007 180.44707l0 2.03125l-11.34375 0q-0.03125 -0.765625 0.234375 -1.46875q0.4375 -1.15625 1.390625 -2.28125q0.953125 -1.125 2.765625 -2.609375q2.796875 -2.296875 3.78125 -3.625q0.984375 -1.34375 0.984375 -2.546875q0 -1.25 -0.90625 -2.109375q-0.890625 -0.859375 -2.328125 -0.859375q-1.515625 0 -2.4375 0.921875q-0.90625 0.90625 -0.921875 2.515625l-2.171875 -0.21875q0.21875 -2.421875 1.671875 -3.6875q1.453125 -1.28125 3.90625 -1.28125q2.46875 0 3.90625 1.375q1.453125 1.359375 1.453125 3.390625q0 1.03125 -0.421875 2.03125q-0.421875 1.0 -1.40625 2.109375q-0.96875 1.09375 -3.25 3.015625q-1.890625 1.59375 -2.4375 2.15625q-0.53125 0.5625 -0.890625 1.140625l8.421875 0z" fill-rule="nonzero"></path><path fill="#000000" fill-opacity="0.0" d="m145.71391 203.979l25.417328 0l0 34.614166l-25.417328 0z" fill-rule="nonzero"></path><path fill="#000000" d="m152.74875 225.3261l2.21875 -0.1875q0.234375 1.609375 1.125 2.4375q0.90625 0.8125 2.171875 0.8125q1.53125 0 2.578125 -1.140625q1.0625 -1.15625 1.0625 -3.0625q0 -1.796875 -1.015625 -2.84375q-1.015625 -1.046875 -2.65625 -1.046875q-1.015625 0 -1.84375 0.46875q-0.8125 0.453125 -1.28125 1.203125l-1.984375 -0.265625l1.65625 -8.828125l8.546875 0l0 2.015625l-6.859375 0l-0.921875 4.625q1.546875 -1.078125 3.25 -1.078125q2.25 0 3.796875 1.5625q1.546875 1.546875 1.546875 4.0q0 2.328125 -1.359375 4.03125q-1.65625 2.09375 -4.515625 2.09375q-2.34375 0 -3.828125 -1.3125q-1.484375 -1.3125 -1.6875 -3.484375z" fill-rule="nonzero"></path><path fill="#000000" fill-opacity="0.0" d="m400.29636 164.25984l50.64569 0l0 34.614166l-50.64569 0z" fill-rule="nonzero"></path><path fill="#000000" d="m421.20905 190.10693l-2.109375 0l0 -13.4375q-0.75 0.71875 -2.0 1.453125q-1.234375 0.71875 -2.21875 1.078125l0 -2.03125q1.78125 -0.828125 3.09375 -2.015625q1.328125 -1.1875 1.875 -2.296875l1.359375 0l0 17.25zm13.347656 0l-2.109375 0l0 -13.4375q-0.75 0.71875 -2.0 1.453125q-1.234375 0.71875 -2.21875 1.078125l0 -2.03125q1.78125 -0.828125 3.09375 -2.015625q1.328125 -1.1875 1.875 -2.296875l1.359375 0l0 17.25z" fill-rule="nonzero"></path><path fill="#000000" fill-opacity="0.0" d="m582.467 198.87401l50.64569 0l0 34.61418l-50.64569 0z" fill-rule="nonzero"></path><path fill="#000000" d="m603.37964 224.7211l-2.109375 0l0 -13.4375q-0.75 0.71875 -2.0 1.453125q-1.234375 0.71875 -2.21875 1.078125l0 -2.03125q1.78125 -0.828125 3.09375 -2.015625q1.328125 -1.1875 1.875 -2.296875l1.359375 0l0 17.25zm16.488281 -2.03125l0 2.03125l-11.34375 0q-0.03125 -0.765625 0.234375 -1.46875q0.4375 -1.15625 1.390625 -2.28125q0.953125 -1.125 2.765625 -2.609375q2.796875 -2.296875 3.78125 -3.625q0.984375 -1.34375 0.984375 -2.546875q0 -1.25 -0.90625 -2.109375q-0.890625 -0.859375 -2.328125 -0.859375q-1.515625 0 -2.4375 0.921875q-0.90625 0.90625 -0.921875 2.515625l-2.171875 -0.21875q0.21875 -2.421875 1.671875 -3.6875q1.453125 -1.28125 3.90625 -1.28125q2.46875 0 3.90625 1.375q1.453125 1.359375 1.453125 3.390625q0 1.03125 -0.421875 2.03125q-0.421875 1.0 -1.40625 2.109375q-0.96875 1.09375 -3.25 3.015625q-1.890625 1.59375 -2.4375 2.15625q-0.53125 0.5625 -0.890625 1.140625l8.421875 0z" fill-rule="nonzero"></path><path fill="#000000" fill-opacity="0.0" d="m550.2793 291.80316l50.64569 0l0 34.614166l-50.64569 0z" fill-rule="nonzero"></path><path fill="#000000" d="m571.192 317.65024l-2.109375 0l0 -13.4375q-0.75 0.71875 -2.0 1.453125q-1.234375 0.71875 -2.21875 1.078125l0 -2.03125q1.78125 -0.828125 3.09375 -2.015625q1.328125 -1.1875 1.875 -2.296875l1.359375 0l0 17.25zm5.4257812 -4.53125l2.109375 -0.28125q0.359375 1.78125 1.234375 2.578125q0.875 0.796875 2.125 0.796875q1.484375 0 2.5 -1.03125q1.03125 -1.03125 1.03125 -2.5625q0 -1.453125 -0.953125 -2.390625q-0.9375 -0.953125 -2.40625 -0.953125q-0.59375 0 -1.484375 0.234375l0.234375 -1.84375q0.203125 0.015625 0.34375 0.015625q1.34375 0 2.421875 -0.703125q1.078125 -0.703125 1.078125 -2.15625q0 -1.171875 -0.796875 -1.921875q-0.78125 -0.765625 -2.015625 -0.765625q-1.234375 0 -2.0625 0.78125q-0.8125 0.765625 -1.046875 2.3125l-2.109375 -0.375q0.390625 -2.125 1.75 -3.28125q1.375 -1.171875 3.421875 -1.171875q1.40625 0 2.578125 0.609375q1.1875 0.59375 1.8125 1.640625q0.640625 1.046875 0.640625 2.21875q0 1.109375 -0.609375 2.03125q-0.59375 0.90625 -1.765625 1.4375q1.53125 0.359375 2.375 1.46875q0.84375 1.109375 0.84375 2.765625q0 2.25 -1.640625 3.828125q-1.640625 1.5625 -4.15625 1.5625q-2.265625 0 -3.765625 -1.34375q-1.484375 -1.359375 -1.6875 -3.5z" fill-rule="nonzero"></path><path fill="#000000" fill-opacity="0.0" d="m546.6612 424.2362l50.64569 0l0 34.614197l-50.64569 0z" fill-rule="nonzero"></path><path fill="#000000" d="m567.57385 450.0833l-2.109375 0l0 -13.4375q-0.75 0.71875 -2.0 1.453125q-1.234375 0.71875 -2.21875 1.078125l0 -2.03125q1.78125 -0.828125 3.09375 -2.015625q1.328125 -1.1875 1.875 -2.296875l1.359375 0l0 17.25zm12.175781 0l0 -4.109375l-7.453125 0l0 -1.9375l7.828125 -11.140625l1.734375 0l0 11.140625l2.3125 0l0 1.9375l-2.3125 0l0 4.109375l-2.109375 0zm0 -6.046875l0 -7.75l-5.390625 7.75l5.390625 0z" fill-rule="nonzero"></path><path fill="#000000" fill-opacity="0.0" d="m608.16254 424.2362l50.64563 0l0 34.614197l-50.64563 0z" fill-rule="nonzero"></path><path fill="#000000" d="m629.0752 450.0833l-2.109375 0l0 -13.4375q-0.75 0.71875 -2.0 1.453125q-1.234375 0.71875 -2.21875 1.078125l0 -2.03125q1.78125 -0.828125 3.09375 -2.015625q1.328125 -1.1875 1.875 -2.296875l1.359375 0l0 17.25zm5.4101562 -4.5l2.21875 -0.1875q0.234375 1.609375 1.125 2.4375q0.90625 0.8125 2.171875 0.8125q1.53125 0 2.578125 -1.140625q1.0625 -1.15625 1.0625 -3.0625q0 -1.796875 -1.015625 -2.84375q-1.015625 -1.046875 -2.65625 -1.046875q-1.015625 0 -1.84375 0.46875q-0.8125 0.453125 -1.28125 1.203125l-1.984375 -0.265625l1.65625 -8.828125l8.546875 0l0 2.015625l-6.859375 0l-0.921875 4.625q1.546875 -1.078125 3.25 -1.078125q2.25 0 3.796875 1.5625q1.546875 1.546875 1.546875 4.0q0 2.328125 -1.359375 4.03125q-1.65625 2.09375 -4.515625 2.09375q-2.34375 0 -3.828125 -1.3125q-1.484375 -1.3125 -1.6875 -3.484375z" fill-rule="nonzero"></path><path fill="#000000" fill-opacity="0.0" d="m611.5011 296.80054l50.64569 0l0 34.614166l-50.64569 0z" fill-rule="nonzero"></path><path fill="#000000" d="m632.41376 322.6476l-2.109375 0l0 -13.4375q-0.75 0.71875 -2.0 1.453125q-1.234375 0.71875 -2.21875 1.078125l0 -2.03125q1.78125 -0.828125 3.09375 -2.015625q1.328125 -1.1875 1.875 -2.296875l1.359375 0l0 17.25zm16.347656 -12.96875l-2.09375 0.15625q-0.28125 -1.234375 -0.796875 -1.796875q-0.859375 -0.90625 -2.109375 -0.90625q-1.0 0 -1.765625 0.5625q-1.0 0.71875 -1.578125 2.125q-0.5625 1.390625 -0.59375 3.96875q0.765625 -1.15625 1.859375 -1.71875q1.109375 -0.5625 2.3125 -0.5625q2.109375 0 3.59375 1.546875q1.484375 1.546875 1.484375 4.015625q0 1.609375 -0.703125 3.0q-0.6875 1.390625 -1.90625 2.140625q-1.21875 0.734375 -2.765625 0.734375q-2.640625 0 -4.3125 -1.9375q-1.65625 -1.953125 -1.65625 -6.40625q0 -4.96875 1.84375 -7.234375q1.59375 -1.96875 4.3125 -1.96875q2.03125 0 3.328125 1.140625q1.296875 1.125 1.546875 3.140625zm-8.609375 7.40625q0 1.078125 0.453125 2.078125q0.46875 1.0 1.296875 1.53125q0.84375 0.515625 1.75 0.515625q1.34375 0 2.296875 -1.078125q0.96875 -1.078125 0.96875 -2.9375q0 -1.78125 -0.953125 -2.796875q-0.953125 -1.03125 -2.390625 -1.03125q-1.421875 0 -2.421875 1.03125q-1.0 1.015625 -1.0 2.6875z" fill-rule="nonzero"></path><path fill="#000000" fill-opacity="0.0" d="m683.65594 299.22046l50.64569 0l0 34.614197l-50.64569 0z" fill-rule="nonzero"></path><path fill="#000000" d="m704.5686 325.06757l-2.109375 0l0 -13.4375q-0.75 0.71875 -2.0 1.453125q-1.234375 0.71875 -2.21875 1.078125l0 -2.03125q1.78125 -0.828125 3.09375 -2.015625q1.328125 -1.1875 1.875 -2.296875l1.359375 0l0 17.25zm5.5507812 -14.9375l0 -2.015625l11.125 0l0 1.640625q-1.640625 1.734375 -3.265625 4.640625q-1.609375 2.890625 -2.484375 5.953125q-0.625 2.15625 -0.8125 4.71875l-2.15625 0q0.03125 -2.03125 0.78125 -4.890625q0.765625 -2.875 2.1875 -5.546875q1.4375 -2.671875 3.03125 -4.5l-8.40625 0z" fill-rule="nonzero"></path><path fill="#000000" fill-opacity="0.0" d="m688.9499 424.2362l50.64569 0l0 34.614197l-50.64569 0z" fill-rule="nonzero"></path><path fill="#000000" d="m709.8626 450.0833l-2.109375 0l0 -13.4375q-0.75 0.71875 -2.0 1.453125q-1.234375 0.71875 -2.21875 1.078125l0 -2.03125q1.78125 -0.828125 3.09375 -2.015625q1.328125 -1.1875 1.875 -2.296875l1.359375 0l0 17.25zm8.660156 -9.3125q-1.3125 -0.484375 -1.953125 -1.375q-0.625 -0.890625 -0.625 -2.140625q0 -1.875 1.34375 -3.140625q1.34375 -1.28125 3.578125 -1.28125q2.25 0 3.625 1.3125q1.375 1.296875 1.375 3.171875q0 1.203125 -0.625 2.09375q-0.625 0.875 -1.90625 1.359375q1.578125 0.515625 2.40625 1.671875q0.828125 1.140625 0.828125 2.734375q0 2.203125 -1.5625 3.703125q-1.5625 1.5 -4.09375 1.5q-2.546875 0 -4.109375 -1.5q-1.5625 -1.515625 -1.5625 -3.765625q0 -1.671875 0.84375 -2.796875q0.859375 -1.140625 2.4375 -1.546875zm-0.421875 -3.578125q0 1.21875 0.78125 2.0q0.78125 0.765625 2.03125 0.765625q1.21875 0 2.0 -0.765625q0.78125 -0.765625 0.78125 -1.890625q0 -1.15625 -0.8125 -1.9375q-0.796875 -0.796875 -1.984375 -0.796875q-1.203125 0 -2.0 0.78125q-0.796875 0.765625 -0.796875 1.84375zm-0.6875 7.9375q0 0.890625 0.421875 1.734375q0.4375 0.84375 1.28125 1.3125q0.84375 0.46875 1.8125 0.46875q1.515625 0 2.5 -0.96875q0.984375 -0.984375 0.984375 -2.484375q0 -1.515625 -1.015625 -2.515625q-1.015625 -1.0 -2.53125 -1.0q-1.5 0 -2.484375 0.984375q-0.96875 0.984375 -0.96875 2.46875z" fill-rule="nonzero"></path><path fill="#000000" fill-opacity="0.0" d="m751.25964 424.2362l50.64563 0l0 34.614197l-50.64563 0z" fill-rule="nonzero"></path><path fill="#000000" d="m772.1723 450.0833l-2.109375 0l0 -13.4375q-0.75 0.71875 -2.0 1.453125q-1.234375 0.71875 -2.21875 1.078125l0 -2.03125q1.78125 -0.828125 3.09375 -2.015625q1.328125 -1.1875 1.875 -2.296875l1.359375 0l0 17.25zm5.7226562 -3.96875l2.03125 -0.1875q0.25 1.421875 0.96875 2.078125q0.734375 0.640625 1.875 0.640625q0.96875 0 1.703125 -0.4375q0.734375 -0.453125 1.203125 -1.203125q0.46875 -0.75 0.78125 -2.015625q0.328125 -1.265625 0.328125 -2.578125q0 -0.140625 -0.015625 -0.421875q-0.640625 1.015625 -1.734375 1.640625q-1.09375 0.625 -2.375 0.625q-2.125 0 -3.609375 -1.546875q-1.46875 -1.546875 -1.46875 -4.078125q0 -2.609375 1.53125 -4.203125q1.546875 -1.59375 3.875 -1.59375q1.671875 0 3.0625 0.90625q1.390625 0.890625 2.109375 2.5625q0.71875 1.671875 0.71875 4.84375q0 3.28125 -0.71875 5.234375q-0.71875 1.953125 -2.125 2.984375q-1.40625 1.015625 -3.3125 1.015625q-2.015625 0 -3.296875 -1.125q-1.265625 -1.125 -1.53125 -3.140625zm8.640625 -7.59375q0 -1.8125 -0.96875 -2.875q-0.96875 -1.0625 -2.328125 -1.0625q-1.40625 0 -2.453125 1.15625q-1.03125 1.140625 -1.03125 2.96875q0 1.640625 0.984375 2.671875q0.984375 1.015625 2.4375 1.015625q1.46875 0 2.40625 -1.015625q0.953125 -1.03125 0.953125 -2.859375z" fill-rule="nonzero"></path><path fill="#000000" fill-opacity="0.0" d="m746.91315 296.80054l50.64569 0l0 34.614166l-50.64569 0z" fill-rule="nonzero"></path><path fill="#000000" d="m770.9665 320.61636l0 2.03125l-11.34375 0q-0.03125 -0.765625 0.234375 -1.46875q0.4375 -1.15625 1.390625 -2.28125q0.953125 -1.125 2.765625 -2.609375q2.796875 -2.296875 3.78125 -3.625q0.984375 -1.34375 0.984375 -2.546875q0 -1.25 -0.90625 -2.109375q-0.890625 -0.859375 -2.328125 -0.859375q-1.515625 0 -2.4375 0.921875q-0.90625 0.90625 -0.921875 2.515625l-2.171875 -0.21875q0.21875 -2.421875 1.671875 -3.6875q1.453125 -1.28125 3.90625 -1.28125q2.46875 0 3.90625 1.375q1.453125 1.359375 1.453125 3.390625q0 1.03125 -0.421875 2.03125q-0.421875 1.0 -1.40625 2.109375q-0.96875 1.09375 -3.25 3.015625q-1.890625 1.59375 -2.4375 2.15625q-0.53125 0.5625 -0.890625 1.140625l8.421875 0zm2.2695312 -6.4375q0 -3.046875 0.625 -4.90625q0.625 -1.859375 1.859375 -2.859375q1.234375 -1.015625 3.109375 -1.015625q1.390625 0 2.421875 0.5625q1.046875 0.546875 1.71875 1.59375q0.6875 1.046875 1.078125 2.5625q0.390625 1.5 0.390625 4.0625q0 3.015625 -0.625 4.875q-0.625 1.859375 -1.859375 2.875q-1.234375 1.015625 -3.125 1.015625q-2.484375 0 -3.890625 -1.78125q-1.703125 -2.15625 -1.703125 -6.984375zm2.171875 0q0 4.21875 0.984375 5.625q0.984375 1.40625 2.4375 1.40625q1.453125 0 2.4375 -1.40625q1.0 -1.40625 1.0 -5.625q0 -4.25 -1.0 -5.640625q-0.984375 -1.390625 -2.453125 -1.390625q-1.453125 0 -2.328125 1.21875q-1.078125 1.578125 -1.078125 5.8125z" fill-rule="nonzero"></path><path fill="#000000" fill-opacity="0.0" d="m625.8738 164.25984l50.64569 0l0 34.614166l-50.64569 0z" fill-rule="nonzero"></path><path fill="#000000" d="m649.9271 188.07568l0 2.03125l-11.34375 0q-0.03125 -0.765625 0.234375 -1.46875q0.4375 -1.15625 1.390625 -2.28125q0.953125 -1.125 2.765625 -2.609375q2.796875 -2.296875 3.78125 -3.625q0.984375 -1.34375 0.984375 -2.546875q0 -1.25 -0.90625 -2.109375q-0.890625 -0.859375 -2.328125 -0.859375q-1.515625 0 -2.4375 0.921875q-0.90625 0.90625 -0.921875 2.515625l-2.171875 -0.21875q0.21875 -2.421875 1.671875 -3.6875q1.453125 -1.28125 3.90625 -1.28125q2.46875 0 3.90625 1.375q1.453125 1.359375 1.453125 3.390625q0 1.03125 -0.421875 2.03125q-0.421875 1.0 -1.40625 2.109375q-0.96875 1.09375 -3.25 3.015625q-1.890625 1.59375 -2.4375 2.15625q-0.53125 0.5625 -0.890625 1.140625l8.421875 0zm10.207031 2.03125l-2.109375 0l0 -13.4375q-0.75 0.71875 -2.0 1.453125q-1.234375 0.71875 -2.21875 1.078125l0 -2.03125q1.78125 -0.828125 3.09375 -2.015625q1.328125 -1.1875 1.875 -2.296875l1.359375 0l0 17.25z" fill-rule="nonzero"></path><path fill="#000000" fill-opacity="0.0" d="m320.0342 104.30708c-45.380157 14.736664 -230.40945 34.853027 -272.28085 88.41995c-41.87139 53.566925 2.1049843 202.8062 21.05249 232.98161c18.94751 30.175415 78.36352 -22.45581 92.632545 -51.929108c14.269028 -29.473328 -36.258087 -92.86398 -7.0183716 -124.91078c29.239716 -32.0468 161.87184 -80.23534 182.45668 -67.37007c20.58487 12.865265 -47.251526 107.134735 -58.94748 144.56168c-11.695984 37.42694 -23.157928 65.965 -11.228363 80.0c11.929565 14.035004 66.665344 18.713043 82.805786 4.2099915c16.140411 -14.503082 7.018799 -71.81323 14.036743 -91.22836c7.017914 -19.41513 19.883636 -23.15747 28.070862 -25.262451c8.187225 -2.105011 17.777771 -0.46676636 21.05249 12.632538c3.2747192 13.099304 -3.041565 48.185486 -1.4042053 65.96326c1.6373596 17.777771 -4.912079 36.492554 11.228363 40.7034c16.140411 4.210846 72.04724 3.0411377 85.61417 -15.438324c13.566925 -18.479431 6.781708 -65.02887 -4.212616 -95.438324c-10.994293 -30.409424 -76.25632 -75.555984 -61.753265 -87.01836c14.503052 -11.462387 129.59055 3.0393677 148.77164 18.244095c19.181091 15.204727 -27.13562 24.562988 -33.684998 72.98425c-6.5494385 48.421265 -21.050354 178.71304 -5.6115723 217.5433c15.438782 38.83026 80.23273 44.67804 98.24408 15.438293c18.011414 -29.239685 2.5726318 -155.78912 9.824158 -190.87662c7.251526 -35.087494 27.836853 -48.42038 33.68506 -19.648285c5.8482056 28.772095 -9.356079 154.85431 1.4041748 192.28082c10.760315 37.426514 43.27472 37.658386 63.15747 32.2782c19.882751 -5.380127 50.29138 -20.582642 56.1391 -64.55902c5.8477783 -43.97638 0.70166016 -145.2638 -21.05249 -199.29922c-21.75415 -54.03543 -56.84076 -93.80228 -109.47241 -124.913376c-52.631653 -31.111115 -171.93134 -51.461075 -206.3176 -61.75329" fill-rule="nonzero"></path><path stroke="#ff0000" stroke-width="3.0" stroke-linejoin="round" stroke-linecap="butt" d="m320.0342 104.30708c-45.380157 14.736664 -230.40945 34.853027 -272.28085 88.41995c-41.87139 53.566925 2.1049843 202.80623 21.05249 232.98161c18.94751 30.175415 78.36352 -22.45581 92.632545 -51.929108c14.269028 -29.473328 -36.258087 -92.86395 -7.0183716 -124.91078c29.23973 -32.0468 161.87181 -80.23534 182.45668 -67.37007c20.58487 12.865265 -47.251526 107.134735 -58.94748 144.56168c-11.695984 37.42697 -23.157928 65.96503 -11.228363 80.0c11.929565 14.034973 66.665344 18.713043 82.805786 4.2099915c16.140411 -14.503082 7.0188293 -71.81323 14.036743 -91.22836c7.017914 -19.41513 19.883636 -23.15747 28.070862 -25.262451c8.187225 -2.105011 17.777771 -0.46676636 21.05249 12.632538c3.2747192 13.099304 -3.0415344 48.185486 -1.4042053 65.96326c1.6373596 17.777771 -4.912079 36.492584 11.228363 40.7034c16.140411 4.210846 72.04724 3.0411377 85.61417 -15.438324c13.566925 -18.479431 6.781708 -65.02887 -4.212616 -95.438324c-10.994293 -30.409424 -76.25635 -75.555984 -61.753265 -87.01836c14.503082 -11.462372 129.59055 3.0393677 148.77164 18.244095c19.181091 15.204727 -27.13562 24.562988 -33.684998 72.98425c-6.5494385 48.421265 -21.050354 178.71304 -5.6115723 217.5433c15.438782 38.83026 80.23273 44.67804 98.24408 15.438293c18.011353 -29.239685 2.5726318 -155.78915 9.824158 -190.87662c7.251526 -35.087494 27.836792 -48.42038 33.68506 -19.648285c5.8481445 28.772095 -9.35614 154.85431 1.4041748 192.28082c10.760254 37.426514 43.27472 37.658325 63.15747 32.2782c19.882812 -5.380127 50.29138 -20.582642 56.1391 -64.55902c5.8477783 -43.97638 0.7017212 -145.2638 -21.05249 -199.29922c-21.75415 -54.03543 -56.84076 -93.80226 -109.47241 -124.913376c-26.315857 -15.555557 -69.298706 -28.420822 -110.000854 -38.68373c-20.351074 -5.131447 -40.131958 -9.61232 -56.974243 -13.453575c-4.2105713 -0.9603119 -8.237457 -1.880661 -12.043701 -2.7612c-1.9031372 -0.44026947 -3.751068 -0.8705826 -5.5392456 -1.2909698c-0.8940735 -0.21019745 -1.7731934 -0.4179077 -2.6368103 -0.62314606l-1.7030029 -0.4072342" fill-rule="evenodd"></path><path fill="#ff0000" stroke="#ff0000" stroke-width="3.0" stroke-linecap="butt" d="m495.89355 102.640854l-14.423431 1.3666077l11.927429 8.224319z" fill-rule="evenodd"></path></g></svg>

