<?xml version="1.0" standalone="yes"?>

<svg version="1.1" viewBox="0.0 0.0 789.0 1051.0" fill="none" stroke="none" stroke-linecap="square" stroke-miterlimit="10" xmlns="http://www.w3.org/2000/svg" xmlns:xlink="http://www.w3.org/1999/xlink"><clipPath id="p.0"><path d="m0 0l789.0 0l0 1051.0l-789.0 0l0 -1051.0z" clip-rule="nonzero"></path></clipPath><g clip-path="url(#p.0)"><path fill="#000000" fill-opacity="0.0" d="m0 0l789.0551 0l0 1051.8608l-789.0551 0z" fill-rule="nonzero"></path><path fill="#000000" fill-opacity="0.0" d="m16.619423 12.732284l642.3936 0l0 68.25197l-642.3936 0z" fill-rule="nonzero"></path><path fill="#000000" d="m298.16 52.452286l0 -19.03125l-6.796875 0l0 -3.875002l18.203125 0l0 3.875002l-6.78125 0l0 19.03125l-4.625 0zm18.5625 0l-4.390625 0l0 -16.59375l4.078125 0l0 2.359375q1.046875 -1.671875 1.875 -2.203125q0.84375 -0.53125 1.90625 -0.53125q1.5 0 2.890625 0.828125l-1.359375 3.828125q-1.109375 -0.71875 -2.0625 -0.71875q-0.921875 0 -1.5625 0.515625q-0.640625 0.5 -1.015625 1.828125q-0.359375 1.328125 -0.359375 5.5625l0 5.125zm17.859375 -5.28125l4.375 0.734375q-0.84375 2.40625 -2.671875 3.671875q-1.8125 1.25 -4.546875 1.25q-4.328125 0 -6.40625 -2.828125q-1.640625 -2.265625 -1.640625 -5.71875q0 -4.125 2.15625 -6.453125q2.15625 -2.34375 5.453125 -2.34375q3.703125 0 5.84375 2.453125q2.140625 2.4375 2.046875 7.484375l-11.0 0q0.046875 1.953125 1.0625 3.046875q1.015625 1.078125 2.53125 1.078125q1.03125 0 1.734375 -0.5625q0.703125 -0.5625 1.0625 -1.8125zm0.25 -4.4375q-0.046875 -1.90625 -0.984375 -2.890625q-0.9375 -1.0 -2.28125 -1.0q-1.4375 0 -2.375 1.046875q-0.9375 1.046875 -0.921875 2.84375l6.5625 0zm17.546875 4.4375l4.375 0.734375q-0.84375 2.40625 -2.671875 3.671875q-1.8125 1.25 -4.546875 1.25q-4.328125 0 -6.40625 -2.828125q-1.640625 -2.265625 -1.640625 -5.71875q0 -4.125 2.15625 -6.453125q2.15625 -2.34375 5.453125 -2.34375q3.703125 0 5.84375 2.453125q2.140625 2.4375 2.046875 7.484375l-11.0 0q0.046875 1.953125 1.0625 3.046875q1.015625 1.078125 2.53125 1.078125q1.03125 0 1.734375 -0.5625q0.703125 -0.5625 1.0625 -1.8125zm0.25 -4.4375q-0.046875 -1.90625 -0.984375 -2.890625q-0.9375 -1.0 -2.28125 -1.0q-1.4375 0 -2.375 1.046875q-0.9375 1.046875 -0.921875 2.84375l6.5625 0zm27.125 9.71875l-4.390625 0l0 -16.546875q-2.40625 2.25 -5.671875 3.328125l0 -3.984375q1.71875 -0.5625 3.734375 -2.125q2.015625 -1.5781269 2.765625 -3.671877l3.5625 0l0 23.000002z" fill-rule="nonzero"></path><path fill="#f1c232" d="m301.69028 115.11024l0 0c0 -18.84726 16.174164 -34.125984 36.126007 -34.125984l0 0c9.581207 0 18.769989 3.5954056 25.544922 9.99527c6.774933 6.399864 10.581055 15.079941 10.581055 24.130714l0 0c0 18.847267 -16.174164 34.125984 -36.125977 34.125984l0 0c-19.951843 0 -36.126007 -15.278717 -36.126007 -34.125984z" fill-rule="nonzero"></path><path stroke="#1155cc" stroke-width="2.0" stroke-linejoin="round" stroke-linecap="butt" d="m301.69028 115.11024l0 0c0 -18.84726 16.174164 -34.125984 36.126007 -34.125984l0 0c9.581207 0 18.769989 3.5954056 25.544922 9.99527c6.774933 6.399864 10.581055 15.079941 10.581055 24.130714l0 0c0 18.847267 -16.174164 34.125984 -36.125977 34.125984l0 0c-19.951843 0 -36.126007 -15.278717 -36.126007 -34.125984z" fill-rule="nonzero"></path><path fill="#434343" d="m340.59558 123.65024l-3.296875 0l0 -12.40625q-1.8125 1.6875 -4.25 2.484375l0 -2.984375q1.28125 -0.421875 2.796875 -1.59375q1.515625 -1.1875 2.078125 -2.75l2.671875 0l0 17.25z" fill-rule="nonzero"></path><path fill="#f1c232" d="m16.619423 223.45407l0 0c0 -18.84726 16.174152 -34.12599 36.125984 -34.12599l0 0c9.581203 0 18.769989 3.5954132 25.54493 9.99527c6.774933 6.399872 10.581055 15.079941 10.581055 24.130722l0 0c0 18.84726 -16.174156 34.125977 -36.125984 34.125977l0 0c-19.951832 0 -36.125984 -15.278717 -36.125984 -34.125977z" fill-rule="nonzero"></path><path stroke="#1155cc" stroke-width="2.0" stroke-linejoin="round" stroke-linecap="butt" d="m16.619423 223.45407l0 0c0 -18.84726 16.174152 -34.12599 36.125984 -34.12599l0 0c9.581203 0 18.769989 3.5954132 25.54493 9.99527c6.774933 6.399872 10.581055 15.079941 10.581055 24.130722l0 0c0 18.84726 -16.174156 34.125977 -36.125984 34.125977l0 0c-19.951832 0 -36.125984 -15.278717 -36.125984 -34.125977z" fill-rule="nonzero"></path><path fill="#434343" d="m58.212204 228.93156l0 3.0625l-11.546875 0q0.1875 -1.734375 1.125 -3.28125q0.9375 -1.5625 3.703125 -4.125q2.234375 -2.078125 2.734375 -2.8125q0.6875 -1.015625 0.6875 -2.015625q0 -1.109375 -0.59375 -1.6875q-0.59375 -0.59375 -1.640625 -0.59375q-1.03125 0 -1.640625 0.625q-0.609375 0.609375 -0.703125 2.046875l-3.28125 -0.328125q0.296875 -2.71875 1.84375 -3.890625q1.546875 -1.1875 3.859375 -1.1875q2.546875 0 4.0 1.375q1.453125 1.359375 1.453125 3.40625q0 1.15625 -0.421875 2.203125q-0.40625 1.046875 -1.3125 2.203125q-0.59375 0.765625 -2.15625 2.203125q-1.5625 1.421875 -1.984375 1.890625q-0.40625 0.46875 -0.65625 0.90625l6.53125 0z" fill-rule="nonzero"></path><path fill="#f1c232" d="m16.619423 355.88715l0 0c0 -18.84726 16.174152 -34.125977 36.125984 -34.125977l0 0c9.581203 0 18.769989 3.595398 25.54493 9.99527c6.774933 6.3998413 10.581055 15.079926 10.581055 24.130707l0 0c0 18.84726 -16.174156 34.125977 -36.125984 34.125977l0 0c-19.951832 0 -36.125984 -15.278717 -36.125984 -34.125977z" fill-rule="nonzero"></path><path stroke="#1155cc" stroke-width="2.0" stroke-linejoin="round" stroke-linecap="butt" d="m16.619423 355.88715l0 0c0 -18.84726 16.174152 -34.125977 36.125984 -34.125977l0 0c9.581203 0 18.769989 3.595398 25.54493 9.99527c6.774933 6.3998413 10.581055 15.079926 10.581055 24.130707l0 0c0 18.84726 -16.174156 34.125977 -36.125984 34.125977l0 0c-19.951832 0 -36.125984 -15.278717 -36.125984 -34.125977z" fill-rule="nonzero"></path><path fill="#434343" d="m46.97783 359.86465l3.1875 -0.390625q0.15625 1.21875 0.8125 1.875q0.671875 0.640625 1.625 0.640625q1.015625 0 1.703125 -0.765625q0.703125 -0.78125 0.703125 -2.09375q0 -1.25 -0.671875 -1.96875q-0.65625 -0.734375 -1.625 -0.734375q-0.625 0 -1.5 0.25l0.359375 -2.6875q1.328125 0.046875 2.03125 -0.5625q0.703125 -0.625 0.703125 -1.640625q0 -0.875 -0.515625 -1.390625q-0.515625 -0.515625 -1.359375 -0.515625q-0.84375 0 -1.453125 0.59375q-0.59375 0.578125 -0.71875 1.703125l-3.03125 -0.515625q0.3125 -1.5625 0.953125 -2.484375q0.640625 -0.9375 1.78125 -1.46875q1.140625 -0.53125 2.5625 -0.53125q2.421875 0 3.890625 1.546875q1.203125 1.265625 1.203125 2.859375q0 2.265625 -2.46875 3.609375q1.46875 0.3125 2.34375 1.421875q0.890625 1.09375 0.890625 2.65625q0 2.265625 -1.65625 3.859375q-1.640625 1.59375 -4.109375 1.59375q-2.328125 0 -3.859375 -1.34375q-1.53125 -1.34375 -1.78125 -3.515625z" fill-rule="nonzero"></path><path fill="#f1c232" d="m301.69028 223.45407l0 0c0 -18.84726 16.174164 -34.12599 36.126007 -34.12599l0 0c9.581207 0 18.769989 3.5954132 25.544922 9.99527c6.774933 6.399872 10.581055 15.079941 10.581055 24.130722l0 0c0 18.84726 -16.174164 34.125977 -36.125977 34.125977l0 0c-19.951843 0 -36.126007 -15.278717 -36.126007 -34.125977z" fill-rule="nonzero"></path><path stroke="#1155cc" stroke-width="2.0" stroke-linejoin="round" stroke-linecap="butt" d="m301.69028 223.45407l0 0c0 -18.84726 16.174164 -34.12599 36.126007 -34.12599l0 0c9.581207 0 18.769989 3.5954132 25.544922 9.99527c6.774933 6.399872 10.581055 15.079941 10.581055 24.130722l0 0c0 18.84726 -16.174164 34.125977 -36.125977 34.125977l0 0c-19.951843 0 -36.126007 -15.278717 -36.126007 -34.125977z" fill-rule="nonzero"></path><path fill="#434343" d="m338.62683 231.99406l0 -3.453125l-7.03125 0l0 -2.890625l7.453125 -10.90625l2.765625 0l0 10.890625l2.125 0l0 2.90625l-2.125 0l0 3.453125l-3.1875 0zm0 -6.359375l0 -5.859375l-3.953125 5.859375l3.953125 0z" fill-rule="nonzero"></path><path fill="#f1c232" d="m586.76117 223.45407l0 0c0 -18.84726 16.174133 -34.12599 36.125977 -34.12599l0 0c9.581177 0 18.769958 3.5954132 25.544922 9.99527c6.7749634 6.399872 10.581055 15.079941 10.581055 24.130722l0 0c0 18.84726 -16.174133 34.125977 -36.125977 34.125977l0 0c-19.951843 0 -36.125977 -15.278717 -36.125977 -34.125977z" fill-rule="nonzero"></path><path stroke="#1155cc" stroke-width="2.0" stroke-linejoin="round" stroke-linecap="butt" d="m586.76117 223.45407l0 0c0 -18.84726 16.174133 -34.12599 36.125977 -34.12599l0 0c9.581177 0 18.769958 3.5954132 25.544922 9.99527c6.7749634 6.399872 10.581055 15.079941 10.581055 24.130722l0 0c0 18.84726 -16.174133 34.125977 -36.125977 34.125977l0 0c-19.951843 0 -36.125977 -15.278717 -36.125977 -34.125977z" fill-rule="nonzero"></path><path fill="#434343" d="m617.22894 218.10344l0 -3.0625l11.265625 0l0 2.390625q-1.390625 1.375 -2.84375 3.953125q-1.4375 2.5625 -2.1875 5.453125q-0.75 2.875 -0.75 5.15625l-3.171875 0q0.078125 -3.5625 1.46875 -7.265625q1.390625 -3.703125 3.71875 -6.625l-7.5 0z" fill-rule="nonzero"></path><path fill="#f1c232" d="m229.43832 355.88715l0 0c0 -18.84726 16.174149 -34.125977 36.125977 -34.125977l0 0c9.581207 0 18.769989 3.595398 25.544922 9.99527c6.774933 6.3998413 10.581055 15.079926 10.581055 24.130707l0 0c0 18.84726 -16.174133 34.125977 -36.125977 34.125977l0 0c-19.951828 0 -36.125977 -15.278717 -36.125977 -34.125977z" fill-rule="nonzero"></path><path stroke="#1155cc" stroke-width="2.0" stroke-linejoin="round" stroke-linecap="butt" d="m229.43832 355.88715l0 0c0 -18.84726 16.174149 -34.125977 36.125977 -34.125977l0 0c9.581207 0 18.769989 3.595398 25.544922 9.99527c6.774933 6.3998413 10.581055 15.079926 10.581055 24.130707l0 0c0 18.84726 -16.174133 34.125977 -36.125977 34.125977l0 0c-19.951828 0 -36.125977 -15.278717 -36.125977 -34.125977z" fill-rule="nonzero"></path><path fill="#434343" d="m259.95297 360.00528l3.28125 -0.34375q0.140625 1.125 0.828125 1.78125q0.703125 0.640625 1.609375 0.640625q1.03125 0 1.734375 -0.828125q0.71875 -0.84375 0.71875 -2.53125q0 -1.59375 -0.71875 -2.375q-0.703125 -0.796875 -1.828125 -0.796875q-1.421875 0 -2.546875 1.25l-2.671875 -0.375l1.6875 -8.953125l8.703125 0l0 3.09375l-6.203125 0l-0.515625 2.90625q1.09375 -0.546875 2.25 -0.546875q2.1875 0 3.703125 1.59375q1.53125 1.59375 1.53125 4.140625q0 2.125 -1.234375 3.78125q-1.671875 2.28125 -4.65625 2.28125q-2.375 0 -3.875 -1.28125q-1.5 -1.28125 -1.796875 -3.4375z" fill-rule="nonzero"></path><path fill="#f1c232" d="m373.94226 355.88715l0 0c0 -18.84726 16.174164 -34.125977 36.125977 -34.125977l0 0c9.581207 0 18.769989 3.595398 25.544922 9.99527c6.774933 6.3998413 10.581055 15.079926 10.581055 24.130707l0 0c0 18.84726 -16.174133 34.125977 -36.125977 34.125977l0 0c-19.951813 0 -36.125977 -15.278717 -36.125977 -34.125977z" fill-rule="nonzero"></path><path stroke="#1155cc" stroke-width="2.0" stroke-linejoin="round" stroke-linecap="butt" d="m373.94226 355.88715l0 0c0 -18.84726 16.174164 -34.125977 36.125977 -34.125977l0 0c9.581207 0 18.769989 3.595398 25.544922 9.99527c6.774933 6.3998413 10.581055 15.079926 10.581055 24.130707l0 0c0 18.84726 -16.174133 34.125977 -36.125977 34.125977l0 0c-19.951813 0 -36.125977 -15.278717 -36.125977 -34.125977z" fill-rule="nonzero"></path><path fill="#434343" d="m415.56628 351.4584l-3.1875 0.34375q-0.109375 -0.984375 -0.609375 -1.453125q-0.484375 -0.46875 -1.265625 -0.46875q-1.046875 0 -1.765625 0.9375q-0.71875 0.9375 -0.90625 3.90625q1.21875 -1.453125 3.046875 -1.453125q2.0625 0 3.53125 1.578125q1.484375 1.5625 1.484375 4.046875q0 2.640625 -1.546875 4.234375q-1.546875 1.59375 -3.984375 1.59375q-2.59375 0 -4.28125 -2.015625q-1.671875 -2.03125 -1.671875 -6.640625q0 -4.71875 1.75 -6.796875q1.75 -2.09375 4.53125 -2.09375q1.96875 0 3.25 1.09375q1.28125 1.09375 1.625 3.1875zm-7.453125 7.171875q0 1.609375 0.734375 2.484375q0.734375 0.875 1.6875 0.875q0.90625 0 1.515625 -0.71875q0.609375 -0.71875 0.609375 -2.34375q0 -1.671875 -0.65625 -2.453125q-0.65625 -0.78125 -1.640625 -0.78125q-0.9375 0 -1.59375 0.75q-0.65625 0.734375 -0.65625 2.1875z" fill-rule="nonzero"></path><path fill="#f1c232" d="m518.44617 355.88715l0 0c0 -18.84726 16.174194 -34.125977 36.126038 -34.125977l0 0c9.581177 0 18.769958 3.595398 25.544922 9.99527c6.7749023 6.3998413 10.581055 15.079926 10.581055 24.130707l0 0c0 18.84726 -16.174194 34.125977 -36.125977 34.125977l0 0c-19.951843 0 -36.126038 -15.278717 -36.126038 -34.125977z" fill-rule="nonzero"></path><path stroke="#1155cc" stroke-width="2.0" stroke-linejoin="round" stroke-linecap="butt" d="m518.44617 355.88715l0 0c0 -18.84726 16.174194 -34.125977 36.126038 -34.125977l0 0c9.581177 0 18.769958 3.595398 25.544922 9.99527c6.7749023 6.3998413 10.581055 15.079926 10.581055 24.130707l0 0c0 18.84726 -16.174194 34.125977 -36.125977 34.125977l0 0c-19.951843 0 -36.126038 -15.278717 -36.126038 -34.125977z" fill-rule="nonzero"></path><path fill="#434343" d="m551.7421 355.16153q-1.28125 -0.546875 -1.859375 -1.484375q-0.578125 -0.953125 -0.578125 -2.078125q0 -1.921875 1.34375 -3.171875q1.34375 -1.25 3.8125 -1.25q2.453125 0 3.796875 1.25q1.359375 1.25 1.359375 3.171875q0 1.203125 -0.625 2.140625q-0.609375 0.921875 -1.734375 1.421875q1.421875 0.5625 2.15625 1.671875q0.75 1.09375 0.75 2.546875q0 2.375 -1.515625 3.875q-1.515625 1.484375 -4.03125 1.484375q-2.34375 0 -3.90625 -1.234375q-1.84375 -1.453125 -1.84375 -3.984375q0 -1.40625 0.6875 -2.5625q0.703125 -1.171875 2.1875 -1.796875zm0.6875 -3.328125q0 0.984375 0.546875 1.546875q0.5625 0.546875 1.484375 0.546875q0.9375 0 1.5 -0.546875q0.5625 -0.5625 0.5625 -1.546875q0 -0.9375 -0.5625 -1.484375q-0.546875 -0.5625 -1.46875 -0.5625q-0.9375 0 -1.5 0.5625q-0.5625 0.5625 -0.5625 1.484375zm-0.3125 7.359375q0 1.359375 0.6875 2.125q0.703125 0.765625 1.75 0.765625q1.015625 0 1.6875 -0.734375q0.671875 -0.734375 0.671875 -2.109375q0 -1.21875 -0.6875 -1.9375q-0.671875 -0.734375 -1.71875 -0.734375q-1.203125 0 -1.796875 0.828125q-0.59375 0.828125 -0.59375 1.796875z" fill-rule="nonzero"></path><path fill="#f1c232" d="m662.95013 355.88715l0 0c0 -18.84726 16.174133 -34.125977 36.125977 -34.125977l0 0c9.581238 0 18.77002 3.595398 25.544922 9.99527c6.7749634 6.3998413 10.581055 15.079926 10.581055 24.130707l0 0c0 18.84726 -16.174133 34.125977 -36.125977 34.125977l0 0c-19.951843 0 -36.125977 -15.278717 -36.125977 -34.125977z" fill-rule="nonzero"></path><path stroke="#1155cc" stroke-width="2.0" stroke-linejoin="round" stroke-linecap="butt" d="m662.95013 355.88715l0 0c0 -18.84726 16.174133 -34.125977 36.125977 -34.125977l0 0c9.581238 0 18.77002 3.595398 25.544922 9.99527c6.7749634 6.3998413 10.581055 15.079926 10.581055 24.130707l0 0c0 18.84726 -16.174133 34.125977 -36.125977 34.125977l0 0c-19.951843 0 -36.125977 -15.278717 -36.125977 -34.125977z" fill-rule="nonzero"></path><path fill="#434343" d="m695.1816 364.42715l-3.296875 0l0 -12.40625q-1.8125 1.6875 -4.25 2.484375l0 -2.984375q1.28125 -0.421875 2.796875 -1.59375q1.515625 -1.1875 2.078125 -2.75l2.671875 0l0 17.25zm10.488281 -17.25q2.484375 0 3.890625 1.78125q1.6875 2.109375 1.6875 7.0q0 4.875 -1.6875 7.0q-1.40625 1.765625 -3.890625 1.765625q-2.515625 0 -4.046875 -1.921875q-1.53125 -1.9375 -1.53125 -6.890625q0 -4.84375 1.6875 -6.984375q1.390625 -1.75 3.890625 -1.75zm0 2.734375q-0.609375 0 -1.078125 0.375q-0.46875 0.375 -0.71875 1.359375q-0.34375 1.28125 -0.34375 4.3125q0 3.015625 0.296875 4.15625q0.3125 1.125 0.765625 1.5q0.46875 0.375 1.078125 0.375q0.59375 0 1.0625 -0.375q0.46875 -0.390625 0.71875 -1.375q0.34375 -1.265625 0.34375 -4.28125q0 -3.03125 -0.3125 -4.15625q-0.296875 -1.140625 -0.765625 -1.515625q-0.453125 -0.375 -1.046875 -0.375z" fill-rule="nonzero"></path><path fill="#f1c232" d="m518.44617 488.32022l0 0c0 -18.84726 16.174194 -34.126007 36.126038 -34.126007l0 0c9.581177 0 18.769958 3.5954285 25.544922 9.99527c6.7749023 6.399872 10.581055 15.079956 10.581055 24.130737l0 0c0 18.84726 -16.174194 34.125946 -36.125977 34.125946l0 0c-19.951843 0 -36.126038 -15.278687 -36.126038 -34.125946z" fill-rule="nonzero"></path><path stroke="#1155cc" stroke-width="2.0" stroke-linejoin="round" stroke-linecap="butt" d="m518.44617 488.32022l0 0c0 -18.84726 16.174194 -34.126007 36.126038 -34.126007l0 0c9.581177 0 18.769958 3.5954285 25.544922 9.99527c6.7749023 6.399872 10.581055 15.079956 10.581055 24.130737l0 0c0 18.84726 -16.174194 34.125946 -36.125977 34.125946l0 0c-19.951843 0 -36.126038 -15.278687 -36.126038 -34.125946z" fill-rule="nonzero"></path><path fill="#434343" d="m548.9921 492.89145l3.1875 -0.359375q0.109375 0.96875 0.59375 1.4375q0.5 0.46875 1.3125 0.46875q1.015625 0 1.734375 -0.9375q0.71875 -0.9375 0.921875 -3.890625q-1.25 1.453125 -3.109375 1.453125q-2.03125 0 -3.5 -1.5625q-1.46875 -1.578125 -1.46875 -4.078125q0 -2.609375 1.546875 -4.203125q1.5625 -1.609375 3.953125 -1.609375q2.625 0 4.296875 2.03125q1.671875 2.015625 1.671875 6.640625q0 4.703125 -1.75 6.796875q-1.734375 2.09375 -4.546875 2.09375q-2.015625 0 -3.265625 -1.078125q-1.234375 -1.078125 -1.578125 -3.203125zm7.453125 -7.203125q0 -1.59375 -0.734375 -2.46875q-0.734375 -0.875 -1.6875 -0.875q-0.921875 0 -1.53125 0.71875q-0.59375 0.71875 -0.59375 2.359375q0 1.65625 0.65625 2.4375q0.65625 0.78125 1.640625 0.78125q0.953125 0 1.59375 -0.75q0.65625 -0.75 0.65625 -2.203125z" fill-rule="nonzero"></path><path fill="#f1c232" d="m662.95013 488.32022l0 0c0 -18.84726 16.174133 -34.126007 36.125977 -34.126007l0 0c9.581238 0 18.77002 3.5954285 25.544922 9.99527c6.7749634 6.399872 10.581055 15.079956 10.581055 24.130737l0 0c0 18.84726 -16.174133 34.125946 -36.125977 34.125946l0 0c-19.951843 0 -36.125977 -15.278687 -36.125977 -34.125946z" fill-rule="nonzero"></path><path stroke="#1155cc" stroke-width="2.0" stroke-linejoin="round" stroke-linecap="butt" d="m662.95013 488.32022l0 0c0 -18.84726 16.174133 -34.126007 36.125977 -34.126007l0 0c9.581238 0 18.77002 3.5954285 25.544922 9.99527c6.7749634 6.399872 10.581055 15.079956 10.581055 24.130737l0 0c0 18.84726 -16.174133 34.125946 -36.125977 34.125946l0 0c-19.951843 0 -36.125977 -15.278687 -36.125977 -34.125946z" fill-rule="nonzero"></path><path fill="#434343" d="m695.1816 496.8602l-3.296875 0l0 -12.40625q-1.8125 1.6875 -4.25 2.484375l0 -2.984375q1.28125 -0.421875 2.796875 -1.59375q1.515625 -1.1875 2.078125 -2.75l2.671875 0l0 17.25zm13.347656 0l-3.296875 0l0 -12.40625q-1.8125 1.6875 -4.25 2.484375l0 -2.984375q1.28125 -0.421875 2.796875 -1.59375q1.515625 -1.1875 2.078125 -2.75l2.671875 0l0 17.25z" fill-rule="nonzero"></path><path fill="#000000" fill-opacity="0.0" d="m337.81628 149.23622l0 40.091858" fill-rule="nonzero"></path><path stroke="#000000" stroke-width="2.0" stroke-linejoin="round" stroke-linecap="butt" d="m337.81628 149.23622l0 40.091858" fill-rule="nonzero"></path><path fill="#000000" fill-opacity="0.0" d="m52.745407 257.58005l0 64.18112" fill-rule="nonzero"></path><path stroke="#000000" stroke-width="2.0" stroke-linejoin="round" stroke-linecap="butt" d="m52.745407 257.58005l0 64.18112" fill-rule="nonzero"></path><path fill="#000000" fill-opacity="0.0" d="m312.27133 247.58478l-46.70703 74.17639" fill-rule="nonzero"></path><path stroke="#000000" stroke-width="2.0" stroke-linejoin="round" stroke-linecap="butt" d="m312.27133 247.58478l-46.70703 74.17639" fill-rule="nonzero"></path><path fill="#000000" fill-opacity="0.0" d="m363.3612 247.58478l46.70703 74.17639" fill-rule="nonzero"></path><path stroke="#000000" stroke-width="2.0" stroke-linejoin="round" stroke-linecap="butt" d="m363.3612 247.58478l46.70703 74.17639" fill-rule="nonzero"></path><path fill="#000000" fill-opacity="0.0" d="m597.3422 247.58478l-42.77002 74.17639" fill-rule="nonzero"></path><path stroke="#000000" stroke-width="2.0" stroke-linejoin="round" stroke-linecap="butt" d="m597.3422 247.58478l-42.77002 74.17639" fill-rule="nonzero"></path><path fill="#000000" fill-opacity="0.0" d="m648.43207 247.58478l50.644043 74.17639" fill-rule="nonzero"></path><path stroke="#000000" stroke-width="2.0" stroke-linejoin="round" stroke-linecap="butt" d="m648.43207 247.58478l50.644043 74.17639" fill-rule="nonzero"></path><path fill="#000000" fill-opacity="0.0" d="m554.5722 390.01312l0 64.18109" fill-rule="nonzero"></path><path stroke="#000000" stroke-width="2.0" stroke-linejoin="round" stroke-linecap="butt" d="m554.5722 390.01312l0 64.18109" fill-rule="nonzero"></path><path fill="#000000" fill-opacity="0.0" d="m699.0761 390.01312l0 64.18109" fill-rule="nonzero"></path><path stroke="#000000" stroke-width="2.0" stroke-linejoin="round" stroke-linecap="butt" d="m699.0761 390.01312l0 64.18109" fill-rule="nonzero"></path><path fill="#000000" fill-opacity="0.0" d="m373.94226 115.11024l223.39996 84.21311" fill-rule="nonzero"></path><path stroke="#000000" stroke-width="2.0" stroke-linejoin="round" stroke-linecap="butt" d="m373.94226 115.11024l223.39996 84.21311" fill-rule="nonzero"></path><path fill="#000000" fill-opacity="0.0" d="m301.69028 115.11024l-223.39993 84.21311" fill-rule="nonzero"></path><path stroke="#000000" stroke-width="2.0" stroke-linejoin="round" stroke-linecap="butt" d="m301.69028 115.11024l-223.39993 84.21311" fill-rule="nonzero"></path><path fill="#000000" fill-opacity="0.0" d="m270.85303 80.98425l25.417328 0l0 34.614174l-25.417328 0z" fill-rule="nonzero"></path><path fill="#000000" d="m285.82535 106.83134l-2.109375 0l0 -13.4375q-0.75 0.71875 -2.0 1.453125q-1.234375 0.71875 -2.21875 1.078125l0 -2.03125q1.78125 -0.828125 3.09375 -2.015625q1.328125 -1.1875 1.875 -2.296875l1.359375 0l0 17.25z" fill-rule="nonzero"></path><path fill="#000000" fill-opacity="0.0" d="m379.3622 80.49606l46.70865 0l0 34.614174l-46.70865 0z" fill-rule="nonzero"></path><path fill="#000000" d="m401.447 104.3119l0 2.03125l-11.34375 0q-0.03125 -0.765625 0.234375 -1.46875q0.4375 -1.15625 1.390625 -2.28125q0.953125 -1.125 2.765625 -2.609375q2.796875 -2.296875 3.78125 -3.625q0.984375 -1.34375 0.984375 -2.546875q0 -1.25 -0.90625 -2.109375q-0.890625 -0.859375 -2.328125 -0.859375q-1.515625 0 -2.4375 0.921875q-0.90625 0.90625 -0.921875 2.515625l-2.171875 -0.21875q0.21875 -2.421875 1.671875 -3.6875q1.453125 -1.28125 3.90625 -1.28125q2.46875 0 3.90625 1.375q1.453125 1.359375 1.453125 3.390625q0 1.03125 -0.421875 2.03125q-0.421875 1.0 -1.40625 2.109375q-0.96875 1.09375 -3.25 3.015625q-1.890625 1.59375 -2.4375 2.15625q-0.53125 0.5625 -0.890625 1.140625l8.421875 0zm13.347656 0l0 2.03125l-11.34375 0q-0.03125 -0.765625 0.234375 -1.46875q0.4375 -1.15625 1.390625 -2.28125q0.953125 -1.125 2.765625 -2.609375q2.796875 -2.296875 3.78125 -3.625q0.984375 -1.34375 0.984375 -2.546875q0 -1.25 -0.90625 -2.109375q-0.890625 -0.859375 -2.328125 -0.859375q-1.515625 0 -2.4375 0.921875q-0.90625 0.90625 -0.921875 2.515625l-2.171875 -0.21875q0.21875 -2.421875 1.671875 -3.6875q1.453125 -1.28125 3.90625 -1.28125q2.46875 0 3.90625 1.375q1.453125 1.359375 1.453125 3.390625q0 1.03125 -0.421875 2.03125q-0.421875 1.0 -1.40625 2.109375q-0.96875 1.09375 -3.25 3.015625q-1.890625 1.59375 -2.4375 2.15625q-0.53125 0.5625 -0.890625 1.140625l8.421875 0z" fill-rule="nonzero"></path><path fill="#000000" fill-opacity="0.0" d="m9.808399 294.5643l25.417324 0l0 34.614166l-25.417324 0z" fill-rule="nonzero"></path><path fill="#000000" d="m16.858858 315.88013l2.109375 -0.28125q0.359375 1.78125 1.234375 2.578125q0.875 0.796875 2.125 0.796875q1.484375 0 2.5 -1.03125q1.03125 -1.03125 1.03125 -2.5625q0 -1.453125 -0.953125 -2.390625q-0.9375 -0.953125 -2.40625 -0.953125q-0.59375 0 -1.484375 0.234375l0.234375 -1.84375q0.203125 0.015625 0.34375 0.015625q1.34375 0 2.421875 -0.703125q1.078125 -0.703125 1.078125 -2.15625q0 -1.171875 -0.796875 -1.921875q-0.78125 -0.765625 -2.015625 -0.765625q-1.234375 0 -2.0625 0.78125q-0.8125 0.765625 -1.046875 2.3125l-2.109375 -0.375q0.390625 -2.125 1.75 -3.28125q1.375 -1.171875 3.421875 -1.171875q1.40625 0 2.578125 0.609375q1.1875 0.59375 1.8125 1.640625q0.640625 1.046875 0.640625 2.21875q0 1.109375 -0.609375 2.03125q-0.59375 0.90625 -1.765625 1.4375q1.53125 0.359375 2.375 1.46875q0.84375 1.109375 0.84375 2.765625q0 2.25 -1.640625 3.828125q-1.640625 1.5625 -4.15625 1.5625q-2.265625 0 -3.765625 -1.34375q-1.484375 -1.359375 -1.6875 -3.5z" fill-rule="nonzero"></path><path fill="#000000" fill-opacity="0.0" d="m63.454067 294.5643l25.417324 0l0 34.614166l-25.417324 0z" fill-rule="nonzero"></path><path fill="#000000" d="m77.254524 320.41138l0 -4.109375l-7.453125 0l0 -1.9375l7.828125 -11.140625l1.734375 0l0 11.140625l2.3125 0l0 1.9375l-2.3125 0l0 4.109375l-2.109375 0zm0 -6.046875l0 -7.75l-5.390625 7.75l5.390625 0z" fill-rule="nonzero"></path><path fill="#000000" fill-opacity="0.0" d="m296.27036 159.60236l25.417297 0l0 34.61418l-25.417297 0z" fill-rule="nonzero"></path><path fill="#000000" d="m314.24268 172.4807l-2.09375 0.15625q-0.28125 -1.234375 -0.796875 -1.796875q-0.859375 -0.90625 -2.109375 -0.90625q-1.0 0 -1.765625 0.5625q-1.0 0.71875 -1.578125 2.125q-0.5625 1.390625 -0.59375 3.96875q0.765625 -1.15625 1.859375 -1.71875q1.109375 -0.5625 2.3125 -0.5625q2.109375 0 3.59375 1.546875q1.484375 1.546875 1.484375 4.015625q0 1.609375 -0.703125 3.0q-0.6875 1.390625 -1.90625 2.140625q-1.21875 0.734375 -2.765625 0.734375q-2.640625 0 -4.3125 -1.9375q-1.65625 -1.953125 -1.65625 -6.40625q0 -4.96875 1.84375 -7.234375q1.59375 -1.96875 4.3125 -1.96875q2.03125 0 3.328125 1.140625q1.296875 1.125 1.546875 3.140625zm-8.609375 7.40625q0 1.078125 0.453125 2.078125q0.46875 1.0 1.296875 1.53125q0.84375 0.515625 1.75 0.515625q1.34375 0 2.296875 -1.078125q0.96875 -1.078125 0.96875 -2.9375q0 -1.78125 -0.953125 -2.796875q-0.953125 -1.03125 -2.390625 -1.03125q-1.421875 0 -2.421875 1.03125q-1.0 1.015625 -1.0 2.6875z" fill-rule="nonzero"></path><path fill="#000000" fill-opacity="0.0" d="m353.9449 159.60367l25.417328 0l0 34.61418l-25.417328 0z" fill-rule="nonzero"></path><path fill="#000000" fill-opacity="0.0" d="m244.08398 287.14697l25.417328 0l0 34.614166l-25.417328 0z" fill-rule="nonzero"></path><path fill="#000000" d="m251.25945 298.05658l0 -2.015625l11.125015 0l0 1.640625q-1.640625 1.734375 -3.265625 4.640625q-1.609375 2.890625 -2.484375 5.953125q-0.625 2.15625 -0.81251526 4.71875l-2.15625 0q0.03125 -2.03125 0.78125 -4.890625q0.765625 -2.875 2.1875153 -5.546875q1.4375 -2.671875 3.03125 -4.5l-8.406265 0z" fill-rule="nonzero"></path><path fill="#000000" fill-opacity="0.0" d="m282.19028 294.5643l25.417328 0l0 34.614166l-25.417328 0z" fill-rule="nonzero"></path><path fill="#000000" d="m292.47513 311.09888q-1.3125 -0.484375 -1.953125 -1.375q-0.625 -0.890625 -0.625 -2.140625q0 -1.875 1.34375 -3.140625q1.34375 -1.28125 3.578125 -1.28125q2.25 0 3.625 1.3125q1.375 1.296875 1.375 3.171875q0 1.203125 -0.625 2.09375q-0.625 0.875 -1.90625 1.359375q1.578125 0.515625 2.40625 1.671875q0.828125 1.140625 0.828125 2.734375q0 2.203125 -1.5625 3.703125q-1.5625 1.5 -4.09375 1.5q-2.546875 0 -4.109375 -1.5q-1.5625 -1.515625 -1.5625 -3.765625q0 -1.671875 0.84375 -2.796875q0.859375 -1.140625 2.4375 -1.546875zm-0.421875 -3.578125q0 1.21875 0.78125 2.0q0.78125 0.765625 2.03125 0.765625q1.21875 0 2.0 -0.765625q0.78125 -0.765625 0.78125 -1.890625q0 -1.15625 -0.8125 -1.9375q-0.796875 -0.796875 -1.984375 -0.796875q-1.203125 0 -2.0 0.78125q-0.796875 0.765625 -0.796875 1.84375zm-0.6875 7.9375q0 0.890625 0.421875 1.734375q0.4375 0.84375 1.28125 1.3125q0.84375 0.46875 1.8125 0.46875q1.515625 0 2.5 -0.96875q0.984375 -0.984375 0.984375 -2.484375q0 -1.515625 -1.015625 -2.515625q-1.015625 -1.0 -2.53125 -1.0q-1.5 0 -2.484375 0.984375q-0.96875 0.984375 -0.96875 2.46875z" fill-rule="nonzero"></path><path fill="#000000" fill-opacity="0.0" d="m363.94357 294.5643l25.417328 0l0 34.614166l-25.417328 0z" fill-rule="nonzero"></path><path fill="#000000" d="m371.2909 316.44263l2.03125 -0.1875q0.25 1.421875 0.96875 2.078125q0.734375 0.640625 1.875 0.640625q0.96875 0 1.703125 -0.4375q0.734375 -0.453125 1.203125 -1.203125q0.46875 -0.75 0.78125 -2.015625q0.328125 -1.265625 0.328125 -2.578125q0 -0.140625 -0.015625 -0.421875q-0.640625 1.015625 -1.734375 1.640625q-1.09375 0.625 -2.375 0.625q-2.125 0 -3.609375 -1.546875q-1.46875 -1.546875 -1.46875 -4.078125q0 -2.609375 1.53125 -4.203125q1.546875 -1.59375 3.875 -1.59375q1.671875 0 3.0625 0.90625q1.390625 0.890625 2.109375 2.5625q0.71875 1.671875 0.71875 4.84375q0 3.28125 -0.71875 5.234375q-0.71875 1.953125 -2.125 2.984375q-1.40625 1.015625 -3.3125 1.015625q-2.015625 0 -3.296875 -1.125q-1.265625 -1.125 -1.53125 -3.140625zm8.640625 -7.59375q0 -1.8125 -0.96875 -2.875q-0.96875 -1.0625 -2.328125 -1.0625q-1.40625 0 -2.453125 1.15625q-1.03125 1.140625 -1.03125 2.96875q0 1.640625 0.984375 2.671875q0.984375 1.015625 2.4375 1.015625q1.46875 0 2.40625 -1.015625q0.953125 -1.03125 0.953125 -2.859375z" fill-rule="nonzero"></path><path fill="#000000" fill-opacity="0.0" d="m408.0982 287.14697l50.64569 0l0 34.614166l-50.64569 0z" fill-rule="nonzero"></path><path fill="#000000" d="m429.0109 312.99408l-2.109375 0l0 -13.4375q-0.75 0.71875 -2.0 1.453125q-1.234375 0.71875 -2.21875 1.078125l0 -2.03125q1.78125 -0.828125 3.09375 -2.015625q1.328125 -1.1875 1.875 -2.296875l1.359375 0l0 17.25zm5.4101562 -8.46875q0 -3.046875 0.625 -4.90625q0.625 -1.859375 1.859375 -2.859375q1.234375 -1.015625 3.109375 -1.015625q1.390625 0 2.421875 0.5625q1.046875 0.546875 1.71875 1.59375q0.6875 1.046875 1.078125 2.5625q0.390625 1.5 0.390625 4.0625q0 3.015625 -0.625 4.875q-0.625 1.859375 -1.859375 2.875q-1.234375 1.015625 -3.125 1.015625q-2.484375 0 -3.890625 -1.78125q-1.703125 -2.15625 -1.703125 -6.984375zm2.171875 0q0 4.21875 0.984375 5.625q0.984375 1.40625 2.4375 1.40625q1.453125 0 2.4375 -1.40625q1.0 -1.40625 1.0 -5.625q0 -4.25 -1.0 -5.640625q-0.984375 -1.390625 -2.453125 -1.390625q-1.453125 0 -2.328125 1.21875q-1.078125 1.578125 -1.078125 5.8125z" fill-rule="nonzero"></path><path fill="#000000" fill-opacity="0.0" d="m52.745407 151.97507l25.41732 0l0 34.614166l-25.41732 0z" fill-rule="nonzero"></path><path fill="#000000" d="m70.85837 175.79091l0 2.03125l-11.343754 0q-0.03125 -0.765625 0.234375 -1.46875q0.4375 -1.15625 1.390625 -2.28125q0.953125 -1.125 2.765625 -2.609375q2.7968788 -2.296875 3.7812538 -3.625q0.984375 -1.34375 0.984375 -2.546875q0 -1.25 -0.90625 -2.109375q-0.890625 -0.859375 -2.328125 -0.859375q-1.5156288 0 -2.4375038 0.921875q-0.90625 0.90625 -0.921875 2.515625l-2.171875 -0.21875q0.21875 -2.421875 1.671875 -3.6875q1.453125 -1.28125 3.9062538 -1.28125q2.46875 0 3.90625 1.375q1.453125 1.359375 1.453125 3.390625q0 1.03125 -0.421875 2.03125q-0.421875 1.0 -1.40625 2.109375q-0.96875 1.09375 -3.25 3.015625q-1.8906288 1.59375 -2.4375038 2.15625q-0.53125 0.5625 -0.890625 1.140625l8.421879 0z" fill-rule="nonzero"></path><path fill="#000000" fill-opacity="0.0" d="m99.362206 199.32283l25.41732 0l0 34.61418l-25.41732 0z" fill-rule="nonzero"></path><path fill="#000000" d="m106.39704 220.66992l2.21875 -0.1875q0.234375 1.609375 1.125 2.4375q0.90625 0.8125 2.171875 0.8125q1.53125 0 2.578125 -1.140625q1.0625 -1.15625 1.0625 -3.0625q0 -1.796875 -1.015625 -2.84375q-1.015625 -1.046875 -2.65625 -1.046875q-1.015625 0 -1.84375 0.46875q-0.8125 0.453125 -1.28125 1.203125l-1.984375 -0.265625l1.65625 -8.828125l8.546875 0l0 2.015625l-6.859375 0l-0.921875 4.625q1.546875 -1.078125 3.25 -1.078125q2.25 0 3.796875 1.5625q1.546875 1.546875 1.546875 4.0q0 2.328125 -1.359375 4.03125q-1.65625 2.09375 -4.515625 2.09375q-2.34375 0 -3.828125 -1.3125q-1.484375 -1.3125 -1.6875 -3.484375z" fill-rule="nonzero"></path><path fill="#000000" fill-opacity="0.0" d="m353.94467 159.60367l50.64566 0l0 34.61418l-50.64566 0z" fill-rule="nonzero"></path><path fill="#000000" d="m374.85736 185.45076l-2.109375 0l0 -13.4375q-0.75 0.71875 -2.0 1.453125q-1.234375 0.71875 -2.21875 1.078125l0 -2.03125q1.78125 -0.828125 3.09375 -2.015625q1.328125 -1.1875 1.875 -2.296875l1.359375 0l0 17.25zm13.347656 0l-2.109375 0l0 -13.4375q-0.75 0.71875 -2.0 1.453125q-1.234375 0.71875 -2.21875 1.078125l0 -2.03125q1.78125 -0.828125 3.09375 -2.015625q1.328125 -1.1875 1.875 -2.296875l1.359375 0l0 17.25z" fill-rule="nonzero"></path><path fill="#000000" fill-opacity="0.0" d="m536.1153 194.21785l50.64563 0l0 34.614166l-50.64563 0z" fill-rule="nonzero"></path><path fill="#000000" d="m557.02795 220.06493l-2.109375 0l0 -13.4375q-0.75 0.71875 -2.0 1.453125q-1.234375 0.71875 -2.21875 1.078125l0 -2.03125q1.78125 -0.828125 3.09375 -2.015625q1.328125 -1.1875 1.875 -2.296875l1.359375 0l0 17.25zm16.488281 -2.03125l0 2.03125l-11.34375 0q-0.03125 -0.765625 0.234375 -1.46875q0.4375 -1.15625 1.390625 -2.28125q0.953125 -1.125 2.765625 -2.609375q2.796875 -2.296875 3.78125 -3.625q0.984375 -1.34375 0.984375 -2.546875q0 -1.25 -0.90625 -2.109375q-0.890625 -0.859375 -2.328125 -0.859375q-1.515625 0 -2.4375 0.921875q-0.90625 0.90625 -0.921875 2.515625l-2.171875 -0.21875q0.21875 -2.421875 1.671875 -3.6875q1.453125 -1.28125 3.90625 -1.28125q2.46875 0 3.90625 1.375q1.453125 1.359375 1.453125 3.390625q0 1.03125 -0.421875 2.03125q-0.421875 1.0 -1.40625 2.109375q-0.96875 1.09375 -3.25 3.015625q-1.890625 1.59375 -2.4375 2.15625q-0.53125 0.5625 -0.890625 1.140625l8.421875 0z" fill-rule="nonzero"></path><path fill="#000000" fill-opacity="0.0" d="m503.9276 287.14697l50.64569 0l0 34.614166l-50.64569 0z" fill-rule="nonzero"></path><path fill="#000000" d="m524.8403 312.99408l-2.109375 0l0 -13.4375q-0.75 0.71875 -2.0 1.453125q-1.234375 0.71875 -2.21875 1.078125l0 -2.03125q1.78125 -0.828125 3.09375 -2.015625q1.328125 -1.1875 1.875 -2.296875l1.359375 0l0 17.25zm5.4257812 -4.53125l2.109375 -0.28125q0.359375 1.78125 1.234375 2.578125q0.875 0.796875 2.125 0.796875q1.484375 0 2.5 -1.03125q1.03125 -1.03125 1.03125 -2.5625q0 -1.453125 -0.953125 -2.390625q-0.9375 -0.953125 -2.40625 -0.953125q-0.59375 0 -1.484375 0.234375l0.234375 -1.84375q0.203125 0.015625 0.34375 0.015625q1.34375 0 2.421875 -0.703125q1.078125 -0.703125 1.078125 -2.15625q0 -1.171875 -0.796875 -1.921875q-0.78125 -0.765625 -2.015625 -0.765625q-1.234375 0 -2.0625 0.78125q-0.8125 0.765625 -1.046875 2.3125l-2.109375 -0.375q0.390625 -2.125 1.75 -3.28125q1.375 -1.171875 3.421875 -1.171875q1.40625 0 2.578125 0.609375q1.1875 0.59375 1.8125 1.640625q0.640625 1.046875 0.640625 2.21875q0 1.109375 -0.609375 2.03125q-0.59375 0.90625 -1.765625 1.4375q1.53125 0.359375 2.375 1.46875q0.84375 1.109375 0.84375 2.765625q0 2.25 -1.640625 3.828125q-1.640625 1.5625 -4.15625 1.5625q-2.265625 0 -3.765625 -1.34375q-1.484375 -1.359375 -1.6875 -3.5z" fill-rule="nonzero"></path><path fill="#000000" fill-opacity="0.0" d="m500.3095 419.58005l50.64569 0l0 34.614166l-50.64569 0z" fill-rule="nonzero"></path><path fill="#000000" d="m521.22217 445.42712l-2.109375 0l0 -13.4375q-0.75 0.71875 -2.0 1.453125q-1.234375 0.71875 -2.21875 1.078125l0 -2.03125q1.78125 -0.828125 3.09375 -2.015625q1.328125 -1.1875 1.875 -2.296875l1.359375 0l0 17.25zm12.175781 0l0 -4.109375l-7.453125 0l0 -1.9375l7.828125 -11.140625l1.734375 0l0 11.140625l2.3125 0l0 1.9375l-2.3125 0l0 4.109375l-2.109375 0zm0 -6.046875l0 -7.75l-5.390625 7.75l5.390625 0z" fill-rule="nonzero"></path><path fill="#000000" fill-opacity="0.0" d="m561.8108 419.58005l50.64569 0l0 34.614166l-50.64569 0z" fill-rule="nonzero"></path><path fill="#000000" d="m582.7235 445.42712l-2.109375 0l0 -13.4375q-0.75 0.71875 -2.0 1.453125q-1.234375 0.71875 -2.21875 1.078125l0 -2.03125q1.78125 -0.828125 3.09375 -2.015625q1.328125 -1.1875 1.875 -2.296875l1.359375 0l0 17.25zm5.4101562 -4.5l2.21875 -0.1875q0.234375 1.609375 1.125 2.4375q0.90625 0.8125 2.171875 0.8125q1.53125 0 2.578125 -1.140625q1.0625 -1.15625 1.0625 -3.0625q0 -1.796875 -1.015625 -2.84375q-1.015625 -1.046875 -2.65625 -1.046875q-1.015625 0 -1.84375 0.46875q-0.8125 0.453125 -1.28125 1.203125l-1.984375 -0.265625l1.65625 -8.828125l8.546875 0l0 2.015625l-6.859375 0l-0.921875 4.625q1.546875 -1.078125 3.25 -1.078125q2.25 0 3.796875 1.5625q1.546875 1.546875 1.546875 4.0q0 2.328125 -1.359375 4.03125q-1.65625 2.09375 -4.515625 2.09375q-2.34375 0 -3.828125 -1.3125q-1.484375 -1.3125 -1.6875 -3.484375z" fill-rule="nonzero"></path><path fill="#000000" fill-opacity="0.0" d="m565.1494 292.14435l50.64563 0l0 34.614166l-50.64563 0z" fill-rule="nonzero"></path><path fill="#000000" d="m586.0621 317.99146l-2.109375 0l0 -13.4375q-0.75 0.71875 -2.0 1.453125q-1.234375 0.71875 -2.21875 1.078125l0 -2.03125q1.78125 -0.828125 3.09375 -2.015625q1.328125 -1.1875 1.875 -2.296875l1.359375 0l0 17.25zm16.347656 -12.96875l-2.09375 0.15625q-0.28125 -1.234375 -0.796875 -1.796875q-0.859375 -0.90625 -2.109375 -0.90625q-1.0 0 -1.765625 0.5625q-1.0 0.71875 -1.578125 2.125q-0.5625 1.390625 -0.59375 3.96875q0.765625 -1.15625 1.859375 -1.71875q1.109375 -0.5625 2.3125 -0.5625q2.109375 0 3.59375 1.546875q1.484375 1.546875 1.484375 4.015625q0 1.609375 -0.703125 3.0q-0.6875 1.390625 -1.90625 2.140625q-1.21875 0.734375 -2.765625 0.734375q-2.640625 0 -4.3125 -1.9375q-1.65625 -1.953125 -1.65625 -6.40625q0 -4.96875 1.84375 -7.234375q1.59375 -1.96875 4.3125 -1.96875q2.03125 0 3.328125 1.140625q1.296875 1.125 1.546875 3.140625zm-8.609375 7.40625q0 1.078125 0.453125 2.078125q0.46875 1.0 1.296875 1.53125q0.84375 0.515625 1.75 0.515625q1.34375 0 2.296875 -1.078125q0.96875 -1.078125 0.96875 -2.9375q0 -1.78125 -0.953125 -2.796875q-0.953125 -1.03125 -2.390625 -1.03125q-1.421875 0 -2.421875 1.03125q-1.0 1.015625 -1.0 2.6875z" fill-rule="nonzero"></path><path fill="#000000" fill-opacity="0.0" d="m637.30426 294.5643l50.64569 0l0 34.614166l-50.64569 0z" fill-rule="nonzero"></path><path fill="#000000" d="m658.2169 320.41138l-2.109375 0l0 -13.4375q-0.75 0.71875 -2.0 1.453125q-1.234375 0.71875 -2.21875 1.078125l0 -2.03125q1.78125 -0.828125 3.09375 -2.015625q1.328125 -1.1875 1.875 -2.296875l1.359375 0l0 17.25zm5.5507812 -14.9375l0 -2.015625l11.125 0l0 1.640625q-1.640625 1.734375 -3.265625 4.640625q-1.609375 2.890625 -2.484375 5.953125q-0.625 2.15625 -0.8125 4.71875l-2.15625 0q0.03125 -2.03125 0.78125 -4.890625q0.765625 -2.875 2.1875 -5.546875q1.4375 -2.671875 3.03125 -4.5l-8.40625 0z" fill-rule="nonzero"></path><path fill="#000000" fill-opacity="0.0" d="m642.5982 419.58005l50.64569 0l0 34.614166l-50.64569 0z" fill-rule="nonzero"></path><path fill="#000000" d="m663.5109 445.42712l-2.109375 0l0 -13.4375q-0.75 0.71875 -2.0 1.453125q-1.234375 0.71875 -2.21875 1.078125l0 -2.03125q1.78125 -0.828125 3.09375 -2.015625q1.328125 -1.1875 1.875 -2.296875l1.359375 0l0 17.25zm8.660156 -9.3125q-1.3125 -0.484375 -1.953125 -1.375q-0.625 -0.890625 -0.625 -2.140625q0 -1.875 1.34375 -3.140625q1.34375 -1.28125 3.578125 -1.28125q2.25 0 3.625 1.3125q1.375 1.296875 1.375 3.171875q0 1.203125 -0.625 2.09375q-0.625 0.875 -1.90625 1.359375q1.578125 0.515625 2.40625 1.671875q0.828125 1.140625 0.828125 2.734375q0 2.203125 -1.5625 3.703125q-1.5625 1.5 -4.09375 1.5q-2.546875 0 -4.109375 -1.5q-1.5625 -1.515625 -1.5625 -3.765625q0 -1.671875 0.84375 -2.796875q0.859375 -1.140625 2.4375 -1.546875zm-0.421875 -3.578125q0 1.21875 0.78125 2.0q0.78125 0.765625 2.03125 0.765625q1.21875 0 2.0 -0.765625q0.78125 -0.765625 0.78125 -1.890625q0 -1.15625 -0.8125 -1.9375q-0.796875 -0.796875 -1.984375 -0.796875q-1.203125 0 -2.0 0.78125q-0.796875 0.765625 -0.796875 1.84375zm-0.6875 7.9375q0 0.890625 0.421875 1.734375q0.4375 0.84375 1.28125 1.3125q0.84375 0.46875 1.8125 0.46875q1.515625 0 2.5 -0.96875q0.984375 -0.984375 0.984375 -2.484375q0 -1.515625 -1.015625 -2.515625q-1.015625 -1.0 -2.53125 -1.0q-1.5 0 -2.484375 0.984375q-0.96875 0.984375 -0.96875 2.46875z" fill-rule="nonzero"></path><path fill="#000000" fill-opacity="0.0" d="m704.9079 419.58005l50.64563 0l0 34.614166l-50.64563 0z" fill-rule="nonzero"></path><path fill="#000000" d="m725.82056 445.42712l-2.109375 0l0 -13.4375q-0.75 0.71875 -2.0 1.453125q-1.234375 0.71875 -2.21875 1.078125l0 -2.03125q1.78125 -0.828125 3.09375 -2.015625q1.328125 -1.1875 1.875 -2.296875l1.359375 0l0 17.25zm5.7226562 -3.96875l2.03125 -0.1875q0.25 1.421875 0.96875 2.078125q0.734375 0.640625 1.875 0.640625q0.96875 0 1.703125 -0.4375q0.734375 -0.453125 1.203125 -1.203125q0.46875 -0.75 0.78125 -2.015625q0.328125 -1.265625 0.328125 -2.578125q0 -0.140625 -0.015625 -0.421875q-0.640625 1.015625 -1.734375 1.640625q-1.09375 0.625 -2.375 0.625q-2.125 0 -3.609375 -1.546875q-1.46875 -1.546875 -1.46875 -4.078125q0 -2.609375 1.53125 -4.203125q1.546875 -1.59375 3.875 -1.59375q1.671875 0 3.0625 0.90625q1.390625 0.890625 2.109375 2.5625q0.71875 1.671875 0.71875 4.84375q0 3.28125 -0.71875 5.234375q-0.71875 1.953125 -2.125 2.984375q-1.40625 1.015625 -3.3125 1.015625q-2.015625 0 -3.296875 -1.125q-1.265625 -1.125 -1.53125 -3.140625zm8.640625 -7.59375q0 -1.8125 -0.96875 -2.875q-0.96875 -1.0625 -2.328125 -1.0625q-1.40625 0 -2.453125 1.15625q-1.03125 1.140625 -1.03125 2.96875q0 1.640625 0.984375 2.671875q0.984375 1.015625 2.4375 1.015625q1.46875 0 2.40625 -1.015625q0.953125 -1.03125 0.953125 -2.859375z" fill-rule="nonzero"></path><path fill="#000000" fill-opacity="0.0" d="m700.56146 292.14435l50.64563 0l0 34.614166l-50.64563 0z" fill-rule="nonzero"></path><path fill="#000000" d="m724.61475 315.9602l0 2.03125l-11.34375 0q-0.03125 -0.765625 0.234375 -1.46875q0.4375 -1.15625 1.390625 -2.28125q0.953125 -1.125 2.765625 -2.609375q2.796875 -2.296875 3.78125 -3.625q0.984375 -1.34375 0.984375 -2.546875q0 -1.25 -0.90625 -2.109375q-0.890625 -0.859375 -2.328125 -0.859375q-1.515625 0 -2.4375 0.921875q-0.90625 0.90625 -0.921875 2.515625l-2.171875 -0.21875q0.21875 -2.421875 1.671875 -3.6875q1.453125 -1.28125 3.90625 -1.28125q2.46875 0 3.90625 1.375q1.453125 1.359375 1.453125 3.390625q0 1.03125 -0.421875 2.03125q-0.421875 1.0 -1.40625 2.109375q-0.96875 1.09375 -3.25 3.015625q-1.890625 1.59375 -2.4375 2.15625q-0.53125 0.5625 -0.890625 1.140625l8.421875 0zm2.2695312 -6.4375q0 -3.046875 0.625 -4.90625q0.625 -1.859375 1.859375 -2.859375q1.234375 -1.015625 3.109375 -1.015625q1.390625 0 2.421875 0.5625q1.046875 0.546875 1.71875 1.59375q0.6875 1.046875 1.078125 2.5625q0.390625 1.5 0.390625 4.0625q0 3.015625 -0.625 4.875q-0.625 1.859375 -1.859375 2.875q-1.234375 1.015625 -3.125 1.015625q-2.484375 0 -3.890625 -1.78125q-1.703125 -2.15625 -1.703125 -6.984375zm2.171875 0q0 4.21875 0.984375 5.625q0.984375 1.40625 2.4375 1.40625q1.453125 0 2.4375 -1.40625q1.0 -1.40625 1.0 -5.625q0 -4.25 -1.0 -5.640625q-0.984375 -1.390625 -2.453125 -1.390625q-1.453125 0 -2.328125 1.21875q-1.078125 1.578125 -1.078125 5.8125z" fill-rule="nonzero"></path><path fill="#000000" fill-opacity="0.0" d="m579.5221 159.60367l50.64569 0l0 34.61418l-50.64569 0z" fill-rule="nonzero"></path><path fill="#000000" d="m603.5754 183.41951l0 2.03125l-11.34375 0q-0.03125 -0.765625 0.234375 -1.46875q0.4375 -1.15625 1.390625 -2.28125q0.953125 -1.125 2.765625 -2.609375q2.796875 -2.296875 3.78125 -3.625q0.984375 -1.34375 0.984375 -2.546875q0 -1.25 -0.90625 -2.109375q-0.890625 -0.859375 -2.328125 -0.859375q-1.515625 0 -2.4375 0.921875q-0.90625 0.90625 -0.921875 2.515625l-2.171875 -0.21875q0.21875 -2.421875 1.671875 -3.6875q1.453125 -1.28125 3.90625 -1.28125q2.46875 0 3.90625 1.375q1.453125 1.359375 1.453125 3.390625q0 1.03125 -0.421875 2.03125q-0.421875 1.0 -1.40625 2.109375q-0.96875 1.09375 -3.25 3.015625q-1.890625 1.59375 -2.4375 2.15625q-0.53125 0.5625 -0.890625 1.140625l8.421875 0zm10.207031 2.03125l-2.109375 0l0 -13.4375q-0.75 0.71875 -2.0 1.453125q-1.234375 0.71875 -2.21875 1.078125l0 -2.03125q1.78125 -0.828125 3.09375 -2.015625q1.328125 -1.1875 1.875 -2.296875l1.359375 0l0 17.25z" fill-rule="nonzero"></path><path fill="#f1c232" d="m321.7257 621.24146l0 0c0 -18.847229 16.174164 -34.125977 36.126007 -34.125977l0 0c9.581207 0 18.769989 3.595398 25.544922 9.9953c6.774933 6.3998413 10.581055 15.079895 10.581055 24.130676l0 0c0 18.84729 -16.174164 34.125977 -36.125977 34.125977l0 0c-19.951843 0 -36.126007 -15.278687 -36.126007 -34.125977z" fill-rule="nonzero"></path><path stroke="#1155cc" stroke-width="2.0" stroke-linejoin="round" stroke-linecap="butt" d="m321.7257 621.24146l0 0c0 -18.847229 16.174164 -34.125977 36.126007 -34.125977l0 0c9.581207 0 18.769989 3.595398 25.544922 9.9953c6.774933 6.3998413 10.581055 15.079895 10.581055 24.130676l0 0c0 18.84729 -16.174164 34.125977 -36.125977 34.125977l0 0c-19.951843 0 -36.126007 -15.278687 -36.126007 -34.125977z" fill-rule="nonzero"></path><path fill="#434343" d="m353.95718 629.7815l-3.296875 0l0 -12.40625q-1.8125 1.6875 -4.25 2.484375l0 -2.984375q1.28125 -0.421875 2.796875 -1.59375q1.515625 -1.1875 2.078125 -2.75l2.671875 0l0 17.25zm16.035156 -3.0625l0 3.0625l-11.546875 0q0.1875 -1.734375 1.125 -3.28125q0.9375 -1.5625 3.703125 -4.125q2.234375 -2.078125 2.734375 -2.8125q0.6875 -1.015625 0.6875 -2.015625q0 -1.109375 -0.59375 -1.6875q-0.59375 -0.59375 -1.640625 -0.59375q-1.03125 0 -1.640625 0.625q-0.609375 0.609375 -0.703125 2.046875l-3.28125 -0.328125q0.296875 -2.71875 1.84375 -3.890625q1.546875 -1.1875 3.859375 -1.1875q2.546875 0 4.0 1.375q1.453125 1.359375 1.453125 3.40625q0 1.15625 -0.421875 2.203125q-0.40625 1.046875 -1.3125 2.203125q-0.59375 0.765625 -2.15625 2.203125q-1.5625 1.421875 -1.984375 1.890625q-0.40625 0.46875 -0.65625 0.90625l6.53125 0z" fill-rule="nonzero"></path><path fill="#f1c232" d="m36.654854 729.5853l0 0c0 -18.84729 16.174156 -34.126038 36.125984 -34.126038l0 0c9.581207 0 18.769997 3.595459 25.54493 9.9953c6.7749405 6.3998413 10.581055 15.079956 10.581055 24.130737l0 0c0 18.847229 -16.174149 34.125977 -36.125984 34.125977l0 0c-19.951828 0 -36.125984 -15.278748 -36.125984 -34.125977z" fill-rule="nonzero"></path><path stroke="#1155cc" stroke-width="2.0" stroke-linejoin="round" stroke-linecap="butt" d="m36.654854 729.5853l0 0c0 -18.84729 16.174156 -34.126038 36.125984 -34.126038l0 0c9.581207 0 18.769997 3.595459 25.54493 9.9953c6.7749405 6.3998413 10.581055 15.079956 10.581055 24.130737l0 0c0 18.847229 -16.174149 34.125977 -36.125984 34.125977l0 0c-19.951828 0 -36.125984 -15.278748 -36.125984 -34.125977z" fill-rule="nonzero"></path><path fill="#434343" d="m68.88631 738.1253l-3.296875 0l0 -12.40625q-1.8125 1.6875 -4.25 2.484375l0 -2.984375q1.28125 -0.421875 2.796875 -1.59375q1.515625 -1.1875 2.078125 -2.75l2.671875 0l0 17.25zm4.8007812 -4.5625l3.1875 -0.390625q0.15625 1.21875 0.8125 1.875q0.671875 0.640625 1.625 0.640625q1.015625 0 1.703125 -0.765625q0.703125 -0.78125 0.703125 -2.09375q0 -1.25 -0.671875 -1.96875q-0.65625 -0.734375 -1.625 -0.734375q-0.625 0 -1.5 0.25l0.359375 -2.6875q1.328125 0.046875 2.03125 -0.5625q0.703125 -0.625 0.703125 -1.640625q0 -0.875 -0.515625 -1.390625q-0.515625 -0.515625 -1.359375 -0.515625q-0.84375 0 -1.453125 0.59375q-0.59375 0.578125 -0.71875 1.703125l-3.03125 -0.515625q0.3125 -1.5625 0.953125 -2.484375q0.640625 -0.9375 1.78125 -1.46875q1.140625 -0.53125 2.5625 -0.53125q2.421875 0 3.890625 1.546875q1.203125 1.265625 1.203125 2.859375q0 2.265625 -2.46875 3.609375q1.46875 0.3125 2.34375 1.421875q0.890625 1.09375 0.890625 2.65625q0 2.265625 -1.65625 3.859375q-1.640625 1.59375 -4.109375 1.59375q-2.328125 0 -3.859375 -1.34375q-1.53125 -1.34375 -1.78125 -3.515625z" fill-rule="nonzero"></path><path fill="#f1c232" d="m36.654854 862.0184l0 0c0 -18.84729 16.174156 -34.125977 36.125984 -34.125977l0 0c9.581207 0 18.769997 3.595398 25.54493 9.995239c6.7749405 6.3999023 10.581055 15.079956 10.581055 24.130737l0 0c0 18.84729 -16.174149 34.125977 -36.125984 34.125977l0 0c-19.951828 0 -36.125984 -15.278687 -36.125984 -34.125977z" fill-rule="nonzero"></path><path stroke="#1155cc" stroke-width="2.0" stroke-linejoin="round" stroke-linecap="butt" d="m36.654854 862.0184l0 0c0 -18.84729 16.174156 -34.125977 36.125984 -34.125977l0 0c9.581207 0 18.769997 3.595398 25.54493 9.995239c6.7749405 6.3999023 10.581055 15.079956 10.581055 24.130737l0 0c0 18.84729 -16.174149 34.125977 -36.125984 34.125977l0 0c-19.951828 0 -36.125984 -15.278687 -36.125984 -34.125977z" fill-rule="nonzero"></path><path fill="#434343" d="m68.88631 870.55835l-3.296875 0l0 -12.40625q-1.8125 1.6875 -4.25 2.484375l0 -2.984375q1.28125 -0.421875 2.796875 -1.59375q1.515625 -1.1875 2.078125 -2.75l2.671875 0l0 17.25zm11.378906 0l0 -3.453125l-7.03125 0l0 -2.890625l7.453125 -10.90625l2.765625 0l0 10.890625l2.125 0l0 2.90625l-2.125 0l0 3.453125l-3.1875 0zm0 -6.359375l0 -5.859375l-3.953125 5.859375l3.953125 0z" fill-rule="nonzero"></path><path fill="#f1c232" d="m321.7257 729.5853l0 0c0 -18.84729 16.174164 -34.126038 36.126007 -34.126038l0 0c9.581207 0 18.769989 3.595459 25.544922 9.9953c6.774933 6.3998413 10.581055 15.079956 10.581055 24.130737l0 0c0 18.847229 -16.174164 34.125977 -36.125977 34.125977l0 0c-19.951843 0 -36.126007 -15.278748 -36.126007 -34.125977z" fill-rule="nonzero"></path><path stroke="#1155cc" stroke-width="2.0" stroke-linejoin="round" stroke-linecap="butt" d="m321.7257 729.5853l0 0c0 -18.84729 16.174164 -34.126038 36.126007 -34.126038l0 0c9.581207 0 18.769989 3.595459 25.544922 9.9953c6.774933 6.3998413 10.581055 15.079956 10.581055 24.130737l0 0c0 18.847229 -16.174164 34.125977 -36.125977 34.125977l0 0c-19.951843 0 -36.126007 -15.278748 -36.126007 -34.125977z" fill-rule="nonzero"></path><path fill="#434343" d="m353.95718 738.1253l-3.296875 0l0 -12.40625q-1.8125 1.6875 -4.25 2.484375l0 -2.984375q1.28125 -0.421875 2.796875 -1.59375q1.515625 -1.1875 2.078125 -2.75l2.671875 0l0 17.25zm4.9570312 -4.421875l3.28125 -0.34375q0.140625 1.125 0.828125 1.78125q0.703125 0.640625 1.609375 0.640625q1.03125 0 1.734375 -0.828125q0.71875 -0.84375 0.71875 -2.53125q0 -1.59375 -0.71875 -2.375q-0.703125 -0.796875 -1.828125 -0.796875q-1.421875 0 -2.546875 1.25l-2.671875 -0.375l1.6875 -8.953125l8.703125 0l0 3.09375l-6.203125 0l-0.515625 2.90625q1.09375 -0.546875 2.25 -0.546875q2.1875 0 3.703125 1.59375q1.53125 1.59375 1.53125 4.140625q0 2.125 -1.234375 3.78125q-1.671875 2.28125 -4.65625 2.28125q-2.375 0 -3.875 -1.28125q-1.5 -1.28125 -1.796875 -3.4375z" fill-rule="nonzero"></path><path fill="#f1c232" d="m606.7966 729.5853l0 0c0 -18.84729 16.174194 -34.126038 36.125977 -34.126038l0 0c9.581238 0 18.77002 3.595459 25.544983 9.9953c6.7749023 6.3998413 10.581055 15.079956 10.581055 24.130737l0 0c0 18.847229 -16.174194 34.125977 -36.126038 34.125977l0 0c-19.951782 0 -36.125977 -15.278748 -36.125977 -34.125977z" fill-rule="nonzero"></path><path stroke="#1155cc" stroke-width="2.0" stroke-linejoin="round" stroke-linecap="butt" d="m606.7966 729.5853l0 0c0 -18.84729 16.174194 -34.126038 36.125977 -34.126038l0 0c9.581238 0 18.77002 3.595459 25.544983 9.9953c6.7749023 6.3998413 10.581055 15.079956 10.581055 24.130737l0 0c0 18.847229 -16.174194 34.125977 -36.126038 34.125977l0 0c-19.951782 0 -36.125977 -15.278748 -36.125977 -34.125977z" fill-rule="nonzero"></path><path fill="#434343" d="m639.028 738.1253l-3.296875 0l0 -12.40625q-1.8125 1.6875 -4.25 2.484375l0 -2.984375q1.28125 -0.421875 2.796875 -1.59375q1.515625 -1.1875 2.078125 -2.75l2.671875 0l0 17.25zm7.7382812 -9.265625q-1.28125 -0.546875 -1.859375 -1.484375q-0.578125 -0.953125 -0.578125 -2.078125q0 -1.921875 1.34375 -3.171875q1.34375 -1.25 3.8125 -1.25q2.453125 0 3.796875 1.25q1.359375 1.25 1.359375 3.171875q0 1.203125 -0.625 2.140625q-0.609375 0.921875 -1.734375 1.421875q1.421875 0.5625 2.15625 1.671875q0.75 1.09375 0.75 2.546875q0 2.375 -1.515625 3.875q-1.515625 1.484375 -4.03125 1.484375q-2.34375 0 -3.90625 -1.234375q-1.84375 -1.453125 -1.84375 -3.984375q0 -1.40625 0.6875 -2.5625q0.703125 -1.171875 2.1875 -1.796875zm0.6875 -3.328125q0 0.984375 0.546875 1.546875q0.5625 0.546875 1.484375 0.546875q0.9375 0 1.5 -0.546875q0.5625 -0.5625 0.5625 -1.546875q0 -0.9375 -0.5625 -1.484375q-0.546875 -0.5625 -1.46875 -0.5625q-0.9375 0 -1.5 0.5625q-0.5625 0.5625 -0.5625 1.484375zm-0.3125 7.359375q0 1.359375 0.6875 2.125q0.703125 0.765625 1.75 0.765625q1.015625 0 1.6875 -0.734375q0.671875 -0.734375 0.671875 -2.109375q0 -1.21875 -0.6875 -1.9375q-0.671875 -0.734375 -1.71875 -0.734375q-1.203125 0 -1.796875 0.828125q-0.59375 0.828125 -0.59375 1.796875z" fill-rule="nonzero"></path><path fill="#f1c232" d="m249.47375 862.0184l0 0c0 -18.84729 16.174164 -34.125977 36.125977 -34.125977l0 0c9.581207 0 18.769989 3.595398 25.544922 9.995239c6.7749634 6.3999023 10.581055 15.079956 10.581055 24.130737l0 0c0 18.84729 -16.174133 34.125977 -36.125977 34.125977l0 0c-19.951813 0 -36.125977 -15.278687 -36.125977 -34.125977z" fill-rule="nonzero"></path><path stroke="#1155cc" stroke-width="2.0" stroke-linejoin="round" stroke-linecap="butt" d="m249.47375 862.0184l0 0c0 -18.84729 16.174164 -34.125977 36.125977 -34.125977l0 0c9.581207 0 18.769989 3.595398 25.544922 9.995239c6.7749634 6.3999023 10.581055 15.079956 10.581055 24.130737l0 0c0 18.84729 -16.174133 34.125977 -36.125977 34.125977l0 0c-19.951813 0 -36.125977 -15.278687 -36.125977 -34.125977z" fill-rule="nonzero"></path><path fill="#434343" d="m281.7052 870.55835l-3.296875 0l0 -12.40625q-1.8125 1.6875 -4.25 2.484375l0 -2.984375q1.28125 -0.421875 2.796875 -1.59375q1.515625 -1.1875 2.078125 -2.75l2.671875 0l0 17.25zm16.066406 -12.96875l-3.1875 0.34375q-0.109375 -0.984375 -0.609375 -1.453125q-0.484375 -0.46875 -1.265625 -0.46875q-1.046875 0 -1.765625 0.9375q-0.71875 0.9375 -0.90625 3.90625q1.21875 -1.453125 3.046875 -1.453125q2.0625 0 3.53125 1.578125q1.484375 1.5625 1.484375 4.046875q0 2.640625 -1.546875 4.234375q-1.546875 1.59375 -3.984375 1.59375q-2.59375 0 -4.28125 -2.015625q-1.671875 -2.03125 -1.671875 -6.640625q0 -4.71875 1.75 -6.796875q1.75 -2.09375 4.53125 -2.09375q1.96875 0 3.25 1.09375q1.28125 1.09375 1.625 3.1875zm-7.453125 7.171875q0 1.609375 0.734375 2.484375q0.734375 0.875 1.6875 0.875q0.90625 0 1.515625 -0.71875q0.609375 -0.71875 0.609375 -2.34375q0 -1.671875 -0.65625 -2.453125q-0.65625 -0.78125 -1.640625 -0.78125q-0.9375 0 -1.59375 0.75q-0.65625 0.734375 -0.65625 2.1875z" fill-rule="nonzero"></path><path fill="#f1c232" d="m393.9777 862.0184l0 0c0 -18.84729 16.174164 -34.125977 36.125977 -34.125977l0 0c9.581207 0 18.769989 3.595398 25.544922 9.995239c6.7749634 6.3999023 10.581055 15.079956 10.581055 24.130737l0 0c0 18.84729 -16.174133 34.125977 -36.125977 34.125977l0 0c-19.951813 0 -36.125977 -15.278687 -36.125977 -34.125977z" fill-rule="nonzero"></path><path stroke="#1155cc" stroke-width="2.0" stroke-linejoin="round" stroke-linecap="butt" d="m393.9777 862.0184l0 0c0 -18.84729 16.174164 -34.125977 36.125977 -34.125977l0 0c9.581207 0 18.769989 3.595398 25.544922 9.995239c6.7749634 6.3999023 10.581055 15.079956 10.581055 24.130737l0 0c0 18.84729 -16.174133 34.125977 -36.125977 34.125977l0 0c-19.951813 0 -36.125977 -15.278687 -36.125977 -34.125977z" fill-rule="nonzero"></path><path fill="#434343" d="m426.20914 870.55835l-3.296875 0l0 -12.40625q-1.8125 1.6875 -4.25 2.484375l0 -2.984375q1.28125 -0.421875 2.796875 -1.59375q1.515625 -1.1875 2.078125 -2.75l2.671875 0l0 17.25zm4.9101562 -13.890625l0 -3.0625l11.265625 0l0 2.390625q-1.390625 1.375 -2.84375 3.953125q-1.4375 2.5625 -2.1875 5.453125q-0.75 2.875 -0.75 5.15625l-3.171875 0q0.078125 -3.5625 1.46875 -7.265625q1.390625 -3.703125 3.71875 -6.625l-7.5 0z" fill-rule="nonzero"></path><path fill="#f1c232" d="m538.4816 862.0184l0 0c0 -18.84729 16.174133 -34.125977 36.125977 -34.125977l0 0c9.581238 0 18.77002 3.595398 25.544922 9.995239c6.7749634 6.3999023 10.581055 15.079956 10.581055 24.130737l0 0c0 18.84729 -16.174133 34.125977 -36.125977 34.125977l0 0c-19.951843 0 -36.125977 -15.278687 -36.125977 -34.125977z" fill-rule="nonzero"></path><path stroke="#1155cc" stroke-width="2.0" stroke-linejoin="round" stroke-linecap="butt" d="m538.4816 862.0184l0 0c0 -18.84729 16.174133 -34.125977 36.125977 -34.125977l0 0c9.581238 0 18.77002 3.595398 25.544922 9.995239c6.7749634 6.3999023 10.581055 15.079956 10.581055 24.130737l0 0c0 18.84729 -16.174133 34.125977 -36.125977 34.125977l0 0c-19.951843 0 -36.125977 -15.278687 -36.125977 -34.125977z" fill-rule="nonzero"></path><path fill="#434343" d="m570.7131 870.55835l-3.296875 0l0 -12.40625q-1.8125 1.6875 -4.25 2.484375l0 -2.984375q1.28125 -0.421875 2.796875 -1.59375q1.515625 -1.1875 2.078125 -2.75l2.671875 0l0 17.25zm4.9882812 -3.96875l3.1875 -0.359375q0.109375 0.96875 0.59375 1.4375q0.5 0.46875 1.3125 0.46875q1.015625 0 1.734375 -0.9375q0.71875 -0.9375 0.921875 -3.890625q-1.25 1.453125 -3.109375 1.453125q-2.03125 0 -3.5 -1.5625q-1.46875 -1.578125 -1.46875 -4.078125q0 -2.609375 1.546875 -4.203125q1.5625 -1.609375 3.953125 -1.609375q2.625 0 4.296875 2.03125q1.671875 2.015625 1.671875 6.640625q0 4.703125 -1.75 6.796875q-1.734375 2.09375 -4.546875 2.09375q-2.015625 0 -3.265625 -1.078125q-1.234375 -1.078125 -1.578125 -3.203125zm7.453125 -7.203125q0 -1.59375 -0.734375 -2.46875q-0.734375 -0.875 -1.6875 -0.875q-0.921875 0 -1.53125 0.71875q-0.59375 0.71875 -0.59375 2.359375q0 1.65625 0.65625 2.4375q0.65625 0.78125 1.640625 0.78125q0.953125 0 1.59375 -0.75q0.65625 -0.75 0.65625 -2.203125z" fill-rule="nonzero"></path><path fill="#f1c232" d="m682.98553 862.0184l0 0c0 -18.84729 16.174194 -34.125977 36.126038 -34.125977l0 0c9.581177 0 18.769958 3.595398 25.544922 9.995239c6.7749023 6.3999023 10.581055 15.079956 10.581055 24.130737l0 0c0 18.84729 -16.174194 34.125977 -36.125977 34.125977l0 0c-19.951843 0 -36.126038 -15.278687 -36.126038 -34.125977z" fill-rule="nonzero"></path><path stroke="#1155cc" stroke-width="2.0" stroke-linejoin="round" stroke-linecap="butt" d="m682.98553 862.0184l0 0c0 -18.84729 16.174194 -34.125977 36.126038 -34.125977l0 0c9.581177 0 18.769958 3.595398 25.544922 9.995239c6.7749023 6.3999023 10.581055 15.079956 10.581055 24.130737l0 0c0 18.84729 -16.174194 34.125977 -36.125977 34.125977l0 0c-19.951843 0 -36.126038 -15.278687 -36.126038 -34.125977z" fill-rule="nonzero"></path><path fill="#434343" d="m717.90454 867.49585l0 3.0625l-11.546875 0q0.1875 -1.734375 1.125 -3.28125q0.9375 -1.5625 3.703125 -4.125q2.234375 -2.078125 2.734375 -2.8125q0.6875 -1.015625 0.6875 -2.015625q0 -1.109375 -0.59375 -1.6875q-0.59375 -0.59375 -1.640625 -0.59375q-1.03125 0 -1.640625 0.625q-0.609375 0.609375 -0.703125 2.046875l-3.28125 -0.328125q0.296875 -2.71875 1.84375 -3.890625q1.546875 -1.1875 3.859375 -1.1875q2.546875 0 4.0 1.375q1.453125 1.359375 1.453125 3.40625q0 1.15625 -0.421875 2.203125q-0.40625 1.046875 -1.3125 2.203125q-0.59375 0.765625 -2.15625 2.203125q-1.5625 1.421875 -1.984375 1.890625q-0.40625 0.46875 -0.65625 0.90625l6.53125 0zm10.660156 3.0625l-3.296875 0l0 -12.40625q-1.8125 1.6875 -4.25 2.484375l0 -2.984375q1.28125 -0.421875 2.796875 -1.59375q1.515625 -1.1875 2.078125 -2.75l2.671875 0l0 17.25z" fill-rule="nonzero"></path><path fill="#f1c232" d="m538.4816 994.4514l0 0c0 -18.847229 16.174133 -34.125977 36.125977 -34.125977l0 0c9.581238 0 18.77002 3.595398 25.544922 9.9953c6.7749634 6.3998413 10.581055 15.079956 10.581055 24.130676l0 0c0 18.84729 -16.174133 34.125977 -36.125977 34.125977l0 0c-19.951843 0 -36.125977 -15.278687 -36.125977 -34.125977z" fill-rule="nonzero"></path><path stroke="#1155cc" stroke-width="2.0" stroke-linejoin="round" stroke-linecap="butt" d="m538.4816 994.4514l0 0c0 -18.847229 16.174133 -34.125977 36.125977 -34.125977l0 0c9.581238 0 18.77002 3.595398 25.544922 9.9953c6.7749634 6.3998413 10.581055 15.079956 10.581055 24.130676l0 0c0 18.84729 -16.174133 34.125977 -36.125977 34.125977l0 0c-19.951843 0 -36.125977 -15.278687 -36.125977 -34.125977z" fill-rule="nonzero"></path><path fill="#434343" d="m573.4006 999.92896l0 3.0625l-11.546875 0q0.1875 -1.734375 1.125 -3.28125q0.9375 -1.5625 3.703125 -4.125q2.234375 -2.078125 2.734375 -2.8125q0.6875 -1.015625 0.6875 -2.015625q0 -1.109375 -0.59375 -1.6875q-0.59375 -0.59375 -1.640625 -0.59375q-1.03125 0 -1.640625 0.625q-0.609375 0.609375 -0.703125 2.046875l-3.28125 -0.328125q0.296875 -2.71875 1.84375 -3.890625q1.546875 -1.1875 3.859375 -1.1875q2.546875 0 4.0 1.375q1.453125 1.359375 1.453125 3.40625q0 1.15625 -0.421875 2.203125q-0.40625 1.046875 -1.3125 2.203125q-0.59375 0.765625 -2.15625 2.203125q-1.5625 1.421875 -1.984375 1.890625q-0.40625 0.46875 -0.65625 0.90625l6.53125 0zm7.8007812 -14.1875q2.484375 0 3.890625 1.78125q1.6875 2.109375 1.6875 7.0q0 4.875 -1.6875 7.0q-1.40625 1.765625 -3.890625 1.765625q-2.515625 0 -4.046875 -1.921875q-1.53125 -1.9375 -1.53125 -6.890625q0 -4.84375 1.6875 -6.984375q1.390625 -1.75 3.890625 -1.75zm0 2.734375q-0.609375 0 -1.078125 0.375q-0.46875 0.375 -0.71875 1.359375q-0.34375 1.28125 -0.34375 4.3125q0 3.015625 0.296875 4.15625q0.3125 1.125 0.765625 1.5q0.46875 0.375 1.078125 0.375q0.59375 0 1.0625 -0.375q0.46875 -0.390625 0.71875 -1.375q0.34375 -1.265625 0.34375 -4.28125q0 -3.03125 -0.3125 -4.15625q-0.296875 -1.140625 -0.765625 -1.515625q-0.453125 -0.375 -1.046875 -0.375z" fill-rule="nonzero"></path><path fill="#f1c232" d="m682.98553 994.4514l0 0c0 -18.847229 16.174194 -34.125977 36.126038 -34.125977l0 0c9.581177 0 18.769958 3.595398 25.544922 9.9953c6.7749023 6.3998413 10.581055 15.079956 10.581055 24.130676l0 0c0 18.84729 -16.174194 34.125977 -36.125977 34.125977l0 0c-19.951843 0 -36.126038 -15.278687 -36.126038 -34.125977z" fill-rule="nonzero"></path><path stroke="#1155cc" stroke-width="2.0" stroke-linejoin="round" stroke-linecap="butt" d="m682.98553 994.4514l0 0c0 -18.847229 16.174194 -34.125977 36.126038 -34.125977l0 0c9.581177 0 18.769958 3.595398 25.544922 9.9953c6.7749023 6.3998413 10.581055 15.079956 10.581055 24.130676l0 0c0 18.84729 -16.174194 34.125977 -36.125977 34.125977l0 0c-19.951843 0 -36.126038 -15.278687 -36.126038 -34.125977z" fill-rule="nonzero"></path><path fill="#434343" d="m717.90454 999.92896l0 3.0625l-11.546875 0q0.1875 -1.734375 1.125 -3.28125q0.9375 -1.5625 3.703125 -4.125q2.234375 -2.078125 2.734375 -2.8125q0.6875 -1.015625 0.6875 -2.015625q0 -1.109375 -0.59375 -1.6875q-0.59375 -0.59375 -1.640625 -0.59375q-1.03125 0 -1.640625 0.625q-0.609375 0.609375 -0.703125 2.046875l-3.28125 -0.328125q0.296875 -2.71875 1.84375 -3.890625q1.546875 -1.1875 3.859375 -1.1875q2.546875 0 4.0 1.375q1.453125 1.359375 1.453125 3.40625q0 1.15625 -0.421875 2.203125q-0.40625 1.046875 -1.3125 2.203125q-0.59375 0.765625 -2.15625 2.203125q-1.5625 1.421875 -1.984375 1.890625q-0.40625 0.46875 -0.65625 0.90625l6.53125 0zm13.347656 0l0 3.0625l-11.546875 0q0.1875 -1.734375 1.125 -3.28125q0.9375 -1.5625 3.703125 -4.125q2.234375 -2.078125 2.734375 -2.8125q0.6875 -1.015625 0.6875 -2.015625q0 -1.109375 -0.59375 -1.6875q-0.59375 -0.59375 -1.640625 -0.59375q-1.03125 0 -1.640625 0.625q-0.609375 0.609375 -0.703125 2.046875l-3.28125 -0.328125q0.296875 -2.71875 1.84375 -3.890625q1.546875 -1.1875 3.859375 -1.1875q2.546875 0 4.0 1.375q1.453125 1.359375 1.453125 3.40625q0 1.15625 -0.421875 2.203125q-0.40625 1.046875 -1.3125 2.203125q-0.59375 0.765625 -2.15625 2.203125q-1.5625 1.421875 -1.984375 1.890625q-0.40625 0.46875 -0.65625 0.90625l6.53125 0z" fill-rule="nonzero"></path><path fill="#000000" fill-opacity="0.0" d="m357.8517 655.36743l0 40.091858" fill-rule="nonzero"></path><path stroke="#000000" stroke-width="2.0" stroke-linejoin="round" stroke-linecap="butt" d="m357.8517 655.36743l0 40.091858" fill-rule="nonzero"></path><path fill="#000000" fill-opacity="0.0" d="m72.78084 763.7113l0 64.18109" fill-rule="nonzero"></path><path stroke="#000000" stroke-width="2.0" stroke-linejoin="round" stroke-linecap="butt" d="m72.78084 763.7113l0 64.18109" fill-rule="nonzero"></path><path fill="#000000" fill-opacity="0.0" d="m332.30676 753.716l-46.70703 74.17639" fill-rule="nonzero"></path><path stroke="#000000" stroke-width="2.0" stroke-linejoin="round" stroke-linecap="butt" d="m332.30676 753.716l-46.70703 74.17639" fill-rule="nonzero"></path><path fill="#000000" fill-opacity="0.0" d="m383.39664 753.716l46.70703 74.17639" fill-rule="nonzero"></path><path stroke="#000000" stroke-width="2.0" stroke-linejoin="round" stroke-linecap="butt" d="m383.39664 753.716l46.70703 74.17639" fill-rule="nonzero"></path><path fill="#000000" fill-opacity="0.0" d="m617.3776 753.716l-42.77002 74.17639" fill-rule="nonzero"></path><path stroke="#000000" stroke-width="2.0" stroke-linejoin="round" stroke-linecap="butt" d="m617.3776 753.716l-42.77002 74.17639" fill-rule="nonzero"></path><path fill="#000000" fill-opacity="0.0" d="m668.4675 753.716l50.644043 74.17639" fill-rule="nonzero"></path><path stroke="#000000" stroke-width="2.0" stroke-linejoin="round" stroke-linecap="butt" d="m668.4675 753.716l50.644043 74.17639" fill-rule="nonzero"></path><path fill="#000000" fill-opacity="0.0" d="m574.6076 896.14435l0 64.18109" fill-rule="nonzero"></path><path stroke="#000000" stroke-width="2.0" stroke-linejoin="round" stroke-linecap="butt" d="m574.6076 896.14435l0 64.18109" fill-rule="nonzero"></path><path fill="#000000" fill-opacity="0.0" d="m719.1116 896.14435l0 64.18109" fill-rule="nonzero"></path><path stroke="#000000" stroke-width="2.0" stroke-linejoin="round" stroke-linecap="butt" d="m719.1116 896.14435l0 64.18109" fill-rule="nonzero"></path><path fill="#000000" fill-opacity="0.0" d="m393.9777 621.24146l223.39993 84.213135" fill-rule="nonzero"></path><path stroke="#000000" stroke-width="2.0" stroke-linejoin="round" stroke-linecap="butt" d="m393.9777 621.24146l223.39993 84.213135" fill-rule="nonzero"></path><path fill="#000000" fill-opacity="0.0" d="m321.7257 621.24146l-223.39993 84.213135" fill-rule="nonzero"></path><path stroke="#000000" stroke-width="2.0" stroke-linejoin="round" stroke-linecap="butt" d="m321.7257 621.24146l-223.39993 84.213135" fill-rule="nonzero"></path><path fill="#000000" fill-opacity="0.0" d="m290.88846 587.1155l25.417328 0l0 34.614197l-25.417328 0z" fill-rule="nonzero"></path><path fill="#000000" d="m305.86078 612.9626l-2.109375 0l0 -13.4375q-0.75 0.71875 -2.0 1.453125q-1.234375 0.71875 -2.21875 1.078125l0 -2.03125q1.78125 -0.828125 3.09375 -2.015625q1.328125 -1.1875 1.875 -2.296875l1.359375 0l0 17.25z" fill-rule="nonzero"></path><path fill="#000000" fill-opacity="0.0" d="m399.39764 586.6273l46.70865 0l0 34.614136l-46.70865 0z" fill-rule="nonzero"></path><path fill="#000000" d="m421.48245 610.4431l0 2.03125l-11.34375 0q-0.03125 -0.765625 0.234375 -1.46875q0.4375 -1.15625 1.390625 -2.28125q0.953125 -1.125 2.765625 -2.609375q2.796875 -2.296875 3.78125 -3.625q0.984375 -1.34375 0.984375 -2.546875q0 -1.25 -0.90625 -2.109375q-0.890625 -0.859375 -2.328125 -0.859375q-1.515625 0 -2.4375 0.921875q-0.90625 0.90625 -0.921875 2.515625l-2.171875 -0.21875q0.21875 -2.421875 1.671875 -3.6875q1.453125 -1.28125 3.90625 -1.28125q2.46875 0 3.90625 1.375q1.453125 1.359375 1.453125 3.390625q0 1.03125 -0.421875 2.03125q-0.421875 1.0 -1.40625 2.109375q-0.96875 1.09375 -3.25 3.015625q-1.890625 1.59375 -2.4375 2.15625q-0.53125 0.5625 -0.890625 1.140625l8.421875 0zm13.347656 0l0 2.03125l-11.34375 0q-0.03125 -0.765625 0.234375 -1.46875q0.4375 -1.15625 1.390625 -2.28125q0.953125 -1.125 2.765625 -2.609375q2.796875 -2.296875 3.78125 -3.625q0.984375 -1.34375 0.984375 -2.546875q0 -1.25 -0.90625 -2.109375q-0.890625 -0.859375 -2.328125 -0.859375q-1.515625 0 -2.4375 0.921875q-0.90625 0.90625 -0.921875 2.515625l-2.171875 -0.21875q0.21875 -2.421875 1.671875 -3.6875q1.453125 -1.28125 3.90625 -1.28125q2.46875 0 3.90625 1.375q1.453125 1.359375 1.453125 3.390625q0 1.03125 -0.421875 2.03125q-0.421875 1.0 -1.40625 2.109375q-0.96875 1.09375 -3.25 3.015625q-1.890625 1.59375 -2.4375 2.15625q-0.53125 0.5625 -0.890625 1.140625l8.421875 0z" fill-rule="nonzero"></path><path fill="#000000" fill-opacity="0.0" d="m29.843832 800.69556l25.417322 0l0 34.614136l-25.417322 0z" fill-rule="nonzero"></path><path fill="#000000" d="m36.89429 822.01135l2.109375 -0.28125q0.359375 1.78125 1.234375 2.578125q0.875 0.796875 2.125 0.796875q1.484375 0 2.5 -1.03125q1.03125 -1.03125 1.03125 -2.5625q0 -1.453125 -0.953125 -2.390625q-0.9375 -0.953125 -2.40625 -0.953125q-0.59375 0 -1.484375 0.234375l0.234375 -1.84375q0.203125 0.015625 0.34375 0.015625q1.34375 0 2.421875 -0.703125q1.078125 -0.703125 1.078125 -2.15625q0 -1.171875 -0.796875 -1.921875q-0.78125 -0.765625 -2.015625 -0.765625q-1.234375 0 -2.0625 0.78125q-0.8125 0.765625 -1.046875 2.3125l-2.109375 -0.375q0.390625 -2.125 1.75 -3.28125q1.375 -1.171875 3.421875 -1.171875q1.40625 0 2.578125 0.609375q1.1875 0.59375 1.8125 1.640625q0.640625 1.046875 0.640625 2.21875q0 1.109375 -0.609375 2.03125q-0.59375 0.90625 -1.765625 1.4375q1.53125 0.359375 2.375 1.46875q0.84375 1.109375 0.84375 2.765625q0 2.25 -1.640625 3.828125q-1.640625 1.5625 -4.15625 1.5625q-2.265625 0 -3.765625 -1.34375q-1.484375 -1.359375 -1.6875 -3.5z" fill-rule="nonzero"></path><path fill="#000000" fill-opacity="0.0" d="m83.4895 800.69556l25.41732 0l0 34.614136l-25.41732 0z" fill-rule="nonzero"></path><path fill="#000000" d="m97.28996 826.5426l0 -4.109375l-7.453125 0l0 -1.9375l7.828125 -11.140625l1.734375 0l0 11.140625l2.3124924 0l0 1.9375l-2.3124924 0l0 4.109375l-2.109375 0zm0 -6.046875l0 -7.75l-5.390625 7.75l5.390625 0z" fill-rule="nonzero"></path><path fill="#000000" fill-opacity="0.0" d="m316.3058 665.7336l25.417297 0l0 34.614197l-25.417297 0z" fill-rule="nonzero"></path><path fill="#000000" d="m334.2781 678.61194l-2.09375 0.15625q-0.28125 -1.234375 -0.796875 -1.796875q-0.859375 -0.90625 -2.109375 -0.90625q-1.0 0 -1.765625 0.5625q-1.0 0.71875 -1.578125 2.125q-0.5625 1.390625 -0.59375 3.96875q0.765625 -1.15625 1.859375 -1.71875q1.109375 -0.5625 2.3125 -0.5625q2.109375 0 3.59375 1.546875q1.484375 1.546875 1.484375 4.015625q0 1.609375 -0.703125 3.0q-0.6875 1.390625 -1.90625 2.140625q-1.21875 0.734375 -2.765625 0.734375q-2.640625 0 -4.3125 -1.9375q-1.65625 -1.953125 -1.65625 -6.40625q0 -4.96875 1.84375 -7.234375q1.59375 -1.96875 4.3125 -1.96875q2.03125 0 3.328125 1.140625q1.296875 1.125 1.546875 3.140625zm-8.609375 7.40625q0 1.078125 0.453125 2.078125q0.46875 1.0 1.296875 1.53125q0.84375 0.515625 1.75 0.515625q1.34375 0 2.296875 -1.078125q0.96875 -1.078125 0.96875 -2.9375q0 -1.78125 -0.953125 -2.796875q-0.953125 -1.03125 -2.390625 -1.03125q-1.421875 0 -2.421875 1.03125q-1.0 1.015625 -1.0 2.6875z" fill-rule="nonzero"></path><path fill="#000000" fill-opacity="0.0" d="m373.98032 665.7349l25.417328 0l0 34.614136l-25.417328 0z" fill-rule="nonzero"></path><path fill="#000000" fill-opacity="0.0" d="m264.11942 793.2782l25.417328 0l0 34.614197l-25.417328 0z" fill-rule="nonzero"></path><path fill="#000000" d="m271.2949 804.1878l0 -2.015625l11.125 0l0 1.640625q-1.640625 1.734375 -3.265625 4.640625q-1.609375 2.890625 -2.484375 5.953125q-0.625 2.15625 -0.8125 4.71875l-2.15625 0q0.03125 -2.03125 0.78125 -4.890625q0.765625 -2.875 2.1875 -5.546875q1.4375 -2.671875 3.03125 -4.5l-8.40625 0z" fill-rule="nonzero"></path><path fill="#000000" fill-opacity="0.0" d="m302.2257 800.69556l25.417328 0l0 34.614136l-25.417328 0z" fill-rule="nonzero"></path><path fill="#000000" d="m312.51056 817.2301q-1.3125 -0.484375 -1.953125 -1.375q-0.625 -0.890625 -0.625 -2.140625q0 -1.875 1.34375 -3.140625q1.34375 -1.28125 3.578125 -1.28125q2.25 0 3.625 1.3125q1.375 1.296875 1.375 3.171875q0 1.203125 -0.625 2.09375q-0.625 0.875 -1.90625 1.359375q1.578125 0.515625 2.40625 1.671875q0.828125 1.140625 0.828125 2.734375q0 2.203125 -1.5625 3.703125q-1.5625 1.5 -4.09375 1.5q-2.546875 0 -4.109375 -1.5q-1.5625 -1.515625 -1.5625 -3.765625q0 -1.671875 0.84375 -2.796875q0.859375 -1.140625 2.4375 -1.546875zm-0.421875 -3.578125q0 1.21875 0.78125 2.0q0.78125 0.765625 2.03125 0.765625q1.21875 0 2.0 -0.765625q0.78125 -0.765625 0.78125 -1.890625q0 -1.15625 -0.8125 -1.9375q-0.796875 -0.796875 -1.984375 -0.796875q-1.203125 0 -2.0 0.78125q-0.796875 0.765625 -0.796875 1.84375zm-0.6875 7.9375q0 0.890625 0.421875 1.734375q0.4375 0.84375 1.28125 1.3125q0.84375 0.46875 1.8125 0.46875q1.515625 0 2.5 -0.96875q0.984375 -0.984375 0.984375 -2.484375q0 -1.515625 -1.015625 -2.515625q-1.015625 -1.0 -2.53125 -1.0q-1.5 0 -2.484375 0.984375q-0.96875 0.984375 -0.96875 2.46875z" fill-rule="nonzero"></path><path fill="#000000" fill-opacity="0.0" d="m383.979 800.69556l25.417328 0l0 34.614136l-25.417328 0z" fill-rule="nonzero"></path><path fill="#000000" d="m391.32632 822.57385l2.03125 -0.1875q0.25 1.421875 0.96875 2.078125q0.734375 0.640625 1.875 0.640625q0.96875 0 1.703125 -0.4375q0.734375 -0.453125 1.203125 -1.203125q0.46875 -0.75 0.78125 -2.015625q0.328125 -1.265625 0.328125 -2.578125q0 -0.140625 -0.015625 -0.421875q-0.640625 1.015625 -1.734375 1.640625q-1.09375 0.625 -2.375 0.625q-2.125 0 -3.609375 -1.546875q-1.46875 -1.546875 -1.46875 -4.078125q0 -2.609375 1.53125 -4.203125q1.546875 -1.59375 3.875 -1.59375q1.671875 0 3.0625 0.90625q1.390625 0.890625 2.109375 2.5625q0.71875 1.671875 0.71875 4.84375q0 3.28125 -0.71875 5.234375q-0.71875 1.953125 -2.125 2.984375q-1.40625 1.015625 -3.3125 1.015625q-2.015625 0 -3.296875 -1.125q-1.265625 -1.125 -1.53125 -3.140625zm8.640625 -7.59375q0 -1.8125 -0.96875 -2.875q-0.96875 -1.0625 -2.328125 -1.0625q-1.40625 0 -2.453125 1.15625q-1.03125 1.140625 -1.03125 2.96875q0 1.640625 0.984375 2.671875q0.984375 1.015625 2.4375 1.015625q1.46875 0 2.40625 -1.015625q0.953125 -1.03125 0.953125 -2.859375z" fill-rule="nonzero"></path><path fill="#000000" fill-opacity="0.0" d="m428.13367 793.2782l50.64566 0l0 34.614197l-50.64566 0z" fill-rule="nonzero"></path><path fill="#000000" d="m449.04633 819.1253l-2.109375 0l0 -13.4375q-0.75 0.71875 -2.0 1.453125q-1.234375 0.71875 -2.21875 1.078125l0 -2.03125q1.78125 -0.828125 3.09375 -2.015625q1.328125 -1.1875 1.875 -2.296875l1.359375 0l0 17.25zm5.4101562 -8.46875q0 -3.046875 0.625 -4.90625q0.625 -1.859375 1.859375 -2.859375q1.234375 -1.015625 3.109375 -1.015625q1.390625 0 2.421875 0.5625q1.046875 0.546875 1.71875 1.59375q0.6875 1.046875 1.078125 2.5625q0.390625 1.5 0.390625 4.0625q0 3.015625 -0.625 4.875q-0.625 1.859375 -1.859375 2.875q-1.234375 1.015625 -3.125 1.015625q-2.484375 0 -3.890625 -1.78125q-1.703125 -2.15625 -1.703125 -6.984375zm2.171875 0q0 4.21875 0.984375 5.625q0.984375 1.40625 2.4375 1.40625q1.453125 0 2.4375 -1.40625q1.0 -1.40625 1.0 -5.625q0 -4.25 -1.0 -5.640625q-0.984375 -1.390625 -2.453125 -1.390625q-1.453125 0 -2.328125 1.21875q-1.078125 1.578125 -1.078125 5.8125z" fill-rule="nonzero"></path><path fill="#000000" fill-opacity="0.0" d="m72.78084 658.1063l25.417328 0l0 34.614136l-25.417328 0z" fill-rule="nonzero"></path><path fill="#000000" d="m90.8938 681.9221l0 2.03125l-11.34375 0q-0.03125 -0.765625 0.234375 -1.46875q0.4375 -1.15625 1.390625 -2.28125q0.953125 -1.125 2.765625 -2.609375q2.796875 -2.296875 3.78125 -3.625q0.984375 -1.34375 0.984375 -2.546875q0 -1.25 -0.90625 -2.109375q-0.890625 -0.859375 -2.328125 -0.859375q-1.515625 0 -2.4375 0.921875q-0.90625 0.90625 -0.921875 2.515625l-2.171875 -0.21875q0.21875 -2.421875 1.671875 -3.6875q1.453125 -1.28125 3.90625 -1.28125q2.46875 0 3.90625 1.375q1.453125 1.359375 1.453125 3.390625q0 1.03125 -0.421875 2.03125q-0.421875 1.0 -1.40625 2.109375q-0.96875 1.09375 -3.25 3.015625q-1.890625 1.59375 -2.4375 2.15625q-0.53125 0.5625 -0.890625 1.140625l8.421875 0z" fill-rule="nonzero"></path><path fill="#000000" fill-opacity="0.0" d="m119.39764 705.45404l25.41732 0l0 34.614197l-25.41732 0z" fill-rule="nonzero"></path><path fill="#000000" d="m126.43247 726.80115l2.2187424 -0.1875q0.234375 1.609375 1.125 2.4375q0.90625 0.8125 2.171875 0.8125q1.53125 0 2.578125 -1.140625q1.0625 -1.15625 1.0625 -3.0625q0 -1.796875 -1.015625 -2.84375q-1.015625 -1.046875 -2.65625 -1.046875q-1.015625 0 -1.84375 0.46875q-0.8125 0.453125 -1.28125 1.203125l-1.9843674 -0.265625l1.6562424 -8.828125l8.546875 0l0 2.015625l-6.859375 0l-0.921875 4.625q1.546875 -1.078125 3.25 -1.078125q2.25 0 3.796875 1.5625q1.546875 1.546875 1.546875 4.0q0 2.328125 -1.359375 4.03125q-1.65625 2.09375 -4.515625 2.09375q-2.34375 0 -3.828125 -1.3125q-1.4843674 -1.3125 -1.6874924 -3.484375z" fill-rule="nonzero"></path><path fill="#000000" fill-opacity="0.0" d="m373.9801 665.7349l50.64569 0l0 34.614136l-50.64569 0z" fill-rule="nonzero"></path><path fill="#000000" d="m394.8928 691.582l-2.109375 0l0 -13.4375q-0.75 0.71875 -2.0 1.453125q-1.234375 0.71875 -2.21875 1.078125l0 -2.03125q1.78125 -0.828125 3.09375 -2.015625q1.328125 -1.1875 1.875 -2.296875l1.359375 0l0 17.25zm13.347656 0l-2.109375 0l0 -13.4375q-0.75 0.71875 -2.0 1.453125q-1.234375 0.71875 -2.21875 1.078125l0 -2.03125q1.78125 -0.828125 3.09375 -2.015625q1.328125 -1.1875 1.875 -2.296875l1.359375 0l0 17.25z" fill-rule="nonzero"></path><path fill="#000000" fill-opacity="0.0" d="m556.1507 700.34906l50.64569 0l0 34.614197l-50.64569 0z" fill-rule="nonzero"></path><path fill="#000000" d="m577.0634 726.19617l-2.109375 0l0 -13.4375q-0.75 0.71875 -2.0 1.453125q-1.234375 0.71875 -2.21875 1.078125l0 -2.03125q1.78125 -0.828125 3.09375 -2.015625q1.328125 -1.1875 1.875 -2.296875l1.359375 0l0 17.25zm16.488281 -2.03125l0 2.03125l-11.34375 0q-0.03125 -0.765625 0.234375 -1.46875q0.4375 -1.15625 1.390625 -2.28125q0.953125 -1.125 2.765625 -2.609375q2.796875 -2.296875 3.78125 -3.625q0.984375 -1.34375 0.984375 -2.546875q0 -1.25 -0.90625 -2.109375q-0.890625 -0.859375 -2.328125 -0.859375q-1.515625 0 -2.4375 0.921875q-0.90625 0.90625 -0.921875 2.515625l-2.171875 -0.21875q0.21875 -2.421875 1.671875 -3.6875q1.453125 -1.28125 3.90625 -1.28125q2.46875 0 3.90625 1.375q1.453125 1.359375 1.453125 3.390625q0 1.03125 -0.421875 2.03125q-0.421875 1.0 -1.40625 2.109375q-0.96875 1.09375 -3.25 3.015625q-1.890625 1.59375 -2.4375 2.15625q-0.53125 0.5625 -0.890625 1.140625l8.421875 0z" fill-rule="nonzero"></path><path fill="#000000" fill-opacity="0.0" d="m523.9631 793.2782l50.64563 0l0 34.614197l-50.64563 0z" fill-rule="nonzero"></path><path fill="#000000" d="m544.87573 819.1253l-2.109375 0l0 -13.4375q-0.75 0.71875 -2.0 1.453125q-1.234375 0.71875 -2.21875 1.078125l0 -2.03125q1.78125 -0.828125 3.09375 -2.015625q1.328125 -1.1875 1.875 -2.296875l1.359375 0l0 17.25zm5.4257812 -4.53125l2.109375 -0.28125q0.359375 1.78125 1.234375 2.578125q0.875 0.796875 2.125 0.796875q1.484375 0 2.5 -1.03125q1.03125 -1.03125 1.03125 -2.5625q0 -1.453125 -0.953125 -2.390625q-0.9375 -0.953125 -2.40625 -0.953125q-0.59375 0 -1.484375 0.234375l0.234375 -1.84375q0.203125 0.015625 0.34375 0.015625q1.34375 0 2.421875 -0.703125q1.078125 -0.703125 1.078125 -2.15625q0 -1.171875 -0.796875 -1.921875q-0.78125 -0.765625 -2.015625 -0.765625q-1.234375 0 -2.0625 0.78125q-0.8125 0.765625 -1.046875 2.3125l-2.109375 -0.375q0.390625 -2.125 1.75 -3.28125q1.375 -1.171875 3.421875 -1.171875q1.40625 0 2.578125 0.609375q1.1875 0.59375 1.8125 1.640625q0.640625 1.046875 0.640625 2.21875q0 1.109375 -0.609375 2.03125q-0.59375 0.90625 -1.765625 1.4375q1.53125 0.359375 2.375 1.46875q0.84375 1.109375 0.84375 2.765625q0 2.25 -1.640625 3.828125q-1.640625 1.5625 -4.15625 1.5625q-2.265625 0 -3.765625 -1.34375q-1.484375 -1.359375 -1.6875 -3.5z" fill-rule="nonzero"></path><path fill="#000000" fill-opacity="0.0" d="m520.3449 925.7113l50.64569 0l0 34.614136l-50.64569 0z" fill-rule="nonzero"></path><path fill="#000000" d="m541.2576 951.55835l-2.109375 0l0 -13.4375q-0.75 0.71875 -2.0 1.453125q-1.234375 0.71875 -2.21875 1.078125l0 -2.03125q1.78125 -0.828125 3.09375 -2.015625q1.328125 -1.1875 1.875 -2.296875l1.359375 0l0 17.25zm12.175781 0l0 -4.109375l-7.453125 0l0 -1.9375l7.828125 -11.140625l1.734375 0l0 11.140625l2.3125 0l0 1.9375l-2.3125 0l0 4.109375l-2.109375 0zm0 -6.046875l0 -7.75l-5.390625 7.75l5.390625 0z" fill-rule="nonzero"></path><path fill="#000000" fill-opacity="0.0" d="m581.84625 925.7113l50.64569 0l0 34.614136l-50.64569 0z" fill-rule="nonzero"></path><path fill="#000000" d="m602.7589 951.55835l-2.109375 0l0 -13.4375q-0.75 0.71875 -2.0 1.453125q-1.234375 0.71875 -2.21875 1.078125l0 -2.03125q1.78125 -0.828125 3.09375 -2.015625q1.328125 -1.1875 1.875 -2.296875l1.359375 0l0 17.25zm5.4101562 -4.5l2.21875 -0.1875q0.234375 1.609375 1.125 2.4375q0.90625 0.8125 2.171875 0.8125q1.53125 0 2.578125 -1.140625q1.0625 -1.15625 1.0625 -3.0625q0 -1.796875 -1.015625 -2.84375q-1.015625 -1.046875 -2.65625 -1.046875q-1.015625 0 -1.84375 0.46875q-0.8125 0.453125 -1.28125 1.203125l-1.984375 -0.265625l1.65625 -8.828125l8.546875 0l0 2.015625l-6.859375 0l-0.921875 4.625q1.546875 -1.078125 3.25 -1.078125q2.25 0 3.796875 1.5625q1.546875 1.546875 1.546875 4.0q0 2.328125 -1.359375 4.03125q-1.65625 2.09375 -4.515625 2.09375q-2.34375 0 -3.828125 -1.3125q-1.484375 -1.3125 -1.6875 -3.484375z" fill-rule="nonzero"></path><path fill="#000000" fill-opacity="0.0" d="m585.1848 798.2756l50.64569 0l0 34.614197l-50.64569 0z" fill-rule="nonzero"></path><path fill="#000000" d="m606.09753 824.1227l-2.109375 0l0 -13.4375q-0.75 0.71875 -2.0 1.453125q-1.234375 0.71875 -2.21875 1.078125l0 -2.03125q1.78125 -0.828125 3.09375 -2.015625q1.328125 -1.1875 1.875 -2.296875l1.359375 0l0 17.25zm16.347656 -12.96875l-2.09375 0.15625q-0.28125 -1.234375 -0.796875 -1.796875q-0.859375 -0.90625 -2.109375 -0.90625q-1.0 0 -1.765625 0.5625q-1.0 0.71875 -1.578125 2.125q-0.5625 1.390625 -0.59375 3.96875q0.765625 -1.15625 1.859375 -1.71875q1.109375 -0.5625 2.3125 -0.5625q2.109375 0 3.59375 1.546875q1.484375 1.546875 1.484375 4.015625q0 1.609375 -0.703125 3.0q-0.6875 1.390625 -1.90625 2.140625q-1.21875 0.734375 -2.765625 0.734375q-2.640625 0 -4.3125 -1.9375q-1.65625 -1.953125 -1.65625 -6.40625q0 -4.96875 1.84375 -7.234375q1.59375 -1.96875 4.3125 -1.96875q2.03125 0 3.328125 1.140625q1.296875 1.125 1.546875 3.140625zm-8.609375 7.40625q0 1.078125 0.453125 2.078125q0.46875 1.0 1.296875 1.53125q0.84375 0.515625 1.75 0.515625q1.34375 0 2.296875 -1.078125q0.96875 -1.078125 0.96875 -2.9375q0 -1.78125 -0.953125 -2.796875q-0.953125 -1.03125 -2.390625 -1.03125q-1.421875 0 -2.421875 1.03125q-1.0 1.015625 -1.0 2.6875z" fill-rule="nonzero"></path><path fill="#000000" fill-opacity="0.0" d="m657.33966 800.69556l50.64569 0l0 34.614136l-50.64569 0z" fill-rule="nonzero"></path><path fill="#000000" d="m678.2524 826.5426l-2.109375 0l0 -13.4375q-0.75 0.71875 -2.0 1.453125q-1.234375 0.71875 -2.21875 1.078125l0 -2.03125q1.78125 -0.828125 3.09375 -2.015625q1.328125 -1.1875 1.875 -2.296875l1.359375 0l0 17.25zm5.5507812 -14.9375l0 -2.015625l11.125 0l0 1.640625q-1.640625 1.734375 -3.265625 4.640625q-1.609375 2.890625 -2.484375 5.953125q-0.625 2.15625 -0.8125 4.71875l-2.15625 0q0.03125 -2.03125 0.78125 -4.890625q0.765625 -2.875 2.1875 -5.546875q1.4375 -2.671875 3.03125 -4.5l-8.40625 0z" fill-rule="nonzero"></path><path fill="#000000" fill-opacity="0.0" d="m662.63367 925.7113l50.64563 0l0 34.614136l-50.64563 0z" fill-rule="nonzero"></path><path fill="#000000" d="m683.5463 951.55835l-2.109375 0l0 -13.4375q-0.75 0.71875 -2.0 1.453125q-1.234375 0.71875 -2.21875 1.078125l0 -2.03125q1.78125 -0.828125 3.09375 -2.015625q1.328125 -1.1875 1.875 -2.296875l1.359375 0l0 17.25zm8.660156 -9.3125q-1.3125 -0.484375 -1.953125 -1.375q-0.625 -0.890625 -0.625 -2.140625q0 -1.875 1.34375 -3.140625q1.34375 -1.28125 3.578125 -1.28125q2.25 0 3.625 1.3125q1.375 1.296875 1.375 3.171875q0 1.203125 -0.625 2.09375q-0.625 0.875 -1.90625 1.359375q1.578125 0.515625 2.40625 1.671875q0.828125 1.140625 0.828125 2.734375q0 2.203125 -1.5625 3.703125q-1.5625 1.5 -4.09375 1.5q-2.546875 0 -4.109375 -1.5q-1.5625 -1.515625 -1.5625 -3.765625q0 -1.671875 0.84375 -2.796875q0.859375 -1.140625 2.4375 -1.546875zm-0.421875 -3.578125q0 1.21875 0.78125 2.0q0.78125 0.765625 2.03125 0.765625q1.21875 0 2.0 -0.765625q0.78125 -0.765625 0.78125 -1.890625q0 -1.15625 -0.8125 -1.9375q-0.796875 -0.796875 -1.984375 -0.796875q-1.203125 0 -2.0 0.78125q-0.796875 0.765625 -0.796875 1.84375zm-0.6875 7.9375q0 0.890625 0.421875 1.734375q0.4375 0.84375 1.28125 1.3125q0.84375 0.46875 1.8125 0.46875q1.515625 0 2.5 -0.96875q0.984375 -0.984375 0.984375 -2.484375q0 -1.515625 -1.015625 -2.515625q-1.015625 -1.0 -2.53125 -1.0q-1.5 0 -2.484375 0.984375q-0.96875 0.984375 -0.96875 2.46875z" fill-rule="nonzero"></path><path fill="#000000" fill-opacity="0.0" d="m724.9433 925.7113l50.64569 0l0 34.614136l-50.64569 0z" fill-rule="nonzero"></path><path fill="#000000" d="m745.856 951.55835l-2.109375 0l0 -13.4375q-0.75 0.71875 -2.0 1.453125q-1.234375 0.71875 -2.21875 1.078125l0 -2.03125q1.78125 -0.828125 3.09375 -2.015625q1.328125 -1.1875 1.875 -2.296875l1.359375 0l0 17.25zm5.7226562 -3.96875l2.03125 -0.1875q0.25 1.421875 0.96875 2.078125q0.734375 0.640625 1.875 0.640625q0.96875 0 1.703125 -0.4375q0.734375 -0.453125 1.203125 -1.203125q0.46875 -0.75 0.78125 -2.015625q0.328125 -1.265625 0.328125 -2.578125q0 -0.140625 -0.015625 -0.421875q-0.640625 1.015625 -1.734375 1.640625q-1.09375 0.625 -2.375 0.625q-2.125 0 -3.609375 -1.546875q-1.46875 -1.546875 -1.46875 -4.078125q0 -2.609375 1.53125 -4.203125q1.546875 -1.59375 3.875 -1.59375q1.671875 0 3.0625 0.90625q1.390625 0.890625 2.109375 2.5625q0.71875 1.671875 0.71875 4.84375q0 3.28125 -0.71875 5.234375q-0.71875 1.953125 -2.125 2.984375q-1.40625 1.015625 -3.3125 1.015625q-2.015625 0 -3.296875 -1.125q-1.265625 -1.125 -1.53125 -3.140625zm8.640625 -7.59375q0 -1.8125 -0.96875 -2.875q-0.96875 -1.0625 -2.328125 -1.0625q-1.40625 0 -2.453125 1.15625q-1.03125 1.140625 -1.03125 2.96875q0 1.640625 0.984375 2.671875q0.984375 1.015625 2.4375 1.015625q1.46875 0 2.40625 -1.015625q0.953125 -1.03125 0.953125 -2.859375z" fill-rule="nonzero"></path><path fill="#000000" fill-opacity="0.0" d="m720.59686 798.2756l50.64569 0l0 34.614197l-50.64569 0z" fill-rule="nonzero"></path><path fill="#000000" d="m744.65015 822.09143l0 2.03125l-11.34375 0q-0.03125 -0.765625 0.234375 -1.46875q0.4375 -1.15625 1.390625 -2.28125q0.953125 -1.125 2.765625 -2.609375q2.796875 -2.296875 3.78125 -3.625q0.984375 -1.34375 0.984375 -2.546875q0 -1.25 -0.90625 -2.109375q-0.890625 -0.859375 -2.328125 -0.859375q-1.515625 0 -2.4375 0.921875q-0.90625 0.90625 -0.921875 2.515625l-2.171875 -0.21875q0.21875 -2.421875 1.671875 -3.6875q1.453125 -1.28125 3.90625 -1.28125q2.46875 0 3.90625 1.375q1.453125 1.359375 1.453125 3.390625q0 1.03125 -0.421875 2.03125q-0.421875 1.0 -1.40625 2.109375q-0.96875 1.09375 -3.25 3.015625q-1.890625 1.59375 -2.4375 2.15625q-0.53125 0.5625 -0.890625 1.140625l8.421875 0zm2.2695312 -6.4375q0 -3.046875 0.625 -4.90625q0.625 -1.859375 1.859375 -2.859375q1.234375 -1.015625 3.109375 -1.015625q1.390625 0 2.421875 0.5625q1.046875 0.546875 1.71875 1.59375q0.6875 1.046875 1.078125 2.5625q0.390625 1.5 0.390625 4.0625q0 3.015625 -0.625 4.875q-0.625 1.859375 -1.859375 2.875q-1.234375 1.015625 -3.125 1.015625q-2.484375 0 -3.890625 -1.78125q-1.703125 -2.15625 -1.703125 -6.984375zm2.171875 0q0 4.21875 0.984375 5.625q0.984375 1.40625 2.4375 1.40625q1.453125 0 2.4375 -1.40625q1.0 -1.40625 1.0 -5.625q0 -4.25 -1.0 -5.640625q-0.984375 -1.390625 -2.453125 -1.390625q-1.453125 0 -2.328125 1.21875q-1.078125 1.578125 -1.078125 5.8125z" fill-rule="nonzero"></path><path fill="#000000" fill-opacity="0.0" d="m599.55756 665.7349l50.64563 0l0 34.614136l-50.64563 0z" fill-rule="nonzero"></path><path fill="#000000" d="m623.61084 689.5507l0 2.03125l-11.34375 0q-0.03125 -0.765625 0.234375 -1.46875q0.4375 -1.15625 1.390625 -2.28125q0.953125 -1.125 2.765625 -2.609375q2.796875 -2.296875 3.78125 -3.625q0.984375 -1.34375 0.984375 -2.546875q0 -1.25 -0.90625 -2.109375q-0.890625 -0.859375 -2.328125 -0.859375q-1.515625 0 -2.4375 0.921875q-0.90625 0.90625 -0.921875 2.515625l-2.171875 -0.21875q0.21875 -2.421875 1.671875 -3.6875q1.453125 -1.28125 3.90625 -1.28125q2.46875 0 3.90625 1.375q1.453125 1.359375 1.453125 3.390625q0 1.03125 -0.421875 2.03125q-0.421875 1.0 -1.40625 2.109375q-0.96875 1.09375 -3.25 3.015625q-1.890625 1.59375 -2.4375 2.15625q-0.53125 0.5625 -0.890625 1.140625l8.421875 0zm10.207031 2.03125l-2.109375 0l0 -13.4375q-0.75 0.71875 -2.0 1.453125q-1.234375 0.71875 -2.21875 1.078125l0 -2.03125q1.78125 -0.828125 3.09375 -2.015625q1.328125 -1.1875 1.875 -2.296875l1.359375 0l0 17.25z" fill-rule="nonzero"></path><path fill="#000000" fill-opacity="0.0" d="m36.656166 508.61023l642.3937 0l0 68.25195l-642.3937 0z" fill-rule="nonzero"></path><path fill="#000000" d="m318.19675 548.33026l0 -19.03125l-6.796875 0l0 -3.875l18.203125 0l0 3.875l-6.78125 0l0 19.03125l-4.625 0zm18.5625 0l-4.390625 0l0 -16.59375l4.078125 0l0 2.359375q1.046875 -1.671875 1.875 -2.203125q0.84375 -0.53125 1.90625 -0.53125q1.5 0 2.890625 0.828125l-1.359375 3.828125q-1.109375 -0.71875 -2.0625 -0.71875q-0.921875 0 -1.5625 0.515625q-0.640625 0.5 -1.015625 1.828125q-0.359375 1.328125 -0.359375 5.5625l0 5.125zm17.859375 -5.28125l4.375 0.734375q-0.84375 2.40625 -2.671875 3.671875q-1.8125 1.25 -4.546875 1.25q-4.328125 0 -6.40625 -2.828125q-1.640625 -2.265625 -1.640625 -5.71875q0 -4.125 2.15625 -6.453125q2.15625 -2.34375 5.453125 -2.34375q3.703125 0 5.84375 2.453125q2.140625 2.4375 2.046875 7.484375l-11.0 0q0.046875 1.953125 1.0625 3.046875q1.015625 1.078125 2.53125 1.078125q1.03125 0 1.734375 -0.5625q0.703125 -0.5625 1.0625 -1.8125zm0.25 -4.4375q-0.046875 -1.90625 -0.984375 -2.890625q-0.9375 -1.0 -2.28125 -1.0q-1.4375 0 -2.375 1.046875q-0.9375 1.046875 -0.921875 2.84375l6.5625 0zm17.546875 4.4375l4.375 0.734375q-0.84375 2.40625 -2.671875 3.671875q-1.8125 1.25 -4.546875 1.25q-4.328125 0 -6.40625 -2.828125q-1.640625 -2.265625 -1.640625 -5.71875q0 -4.125 2.15625 -6.453125q2.15625 -2.34375 5.453125 -2.34375q3.703125 0 5.84375 2.453125q2.140625 2.4375 2.046875 7.484375l-11.0 0q0.046875 1.953125 1.0625 3.046875q1.015625 1.078125 2.53125 1.078125q1.03125 0 1.734375 -0.5625q0.703125 -0.5625 1.0625 -1.8125zm0.25 -4.4375q-0.046875 -1.90625 -0.984375 -2.890625q-0.9375 -1.0 -2.28125 -1.0q-1.4375 0 -2.375 1.046875q-0.9375 1.046875 -0.921875 2.84375l6.5625 0zm30.71875 5.640625l0 4.078125l-15.390625 0q0.25 -2.3125 1.5 -4.375q1.25 -2.078125 4.9375 -5.5q2.96875 -2.765625 3.640625 -3.75q0.90625 -1.359375 0.90625 -2.6875q0 -1.46875 -0.796875 -2.25q-0.78125 -0.796875 -2.171875 -0.796875q-1.375 0 -2.1875 0.828125q-0.8125 0.828125 -0.9375 2.75l-4.375 -0.4375q0.390625 -3.625 2.453125 -5.203125q2.0625 -1.578125 5.15625 -1.578125q3.390625 0 5.328125 1.828125q1.9375 1.828125 1.9375 4.546875q0 1.546875 -0.5625 2.953125q-0.546875 1.390625 -1.75 2.921875q-0.796875 1.015625 -2.875 2.921875q-2.078125 1.90625 -2.640625 2.53125q-0.546875 0.625 -0.890625 1.21875l8.71875 0z" fill-rule="nonzero"></path></g></svg>

